{"glyphs":{"0":{"ha":633,"x_min":42,"x_max":592,"o":"m 317 -17 q 165 27 225 -17 q 74 179 106 71 q 42 476 42 288 q 74 774 42 665 q 165 926 106 882 q 317 969 225 969 q 467 925 407 969 q 560 772 528 881 q 592 476 592 664 q 560 181 592 289 q 467 28 528 72 q 317 -17 407 -17 m 317 124 q 380 156 358 124 q 410 252 401 188 q 418 428 418 317 l 418 525 q 410 701 418 636 q 380 797 401 765 q 317 829 358 829 q 253 797 275 829 q 224 701 232 765 q 215 525 215 636 l 215 428 q 224 252 215 317 q 253 156 232 188 q 317 124 275 124 z "},"1":{"ha":633,"x_min":54,"x_max":632,"o":"m 56 140 l 269 140 l 269 735 l 54 735 l 54 846 q 203 883 115 853 q 354 953 290 913 l 436 953 l 436 140 l 632 140 l 632 0 l 56 0 l 56 140 z "},"2":{"ha":633,"x_min":46,"x_max":592,"o":"m 46 33 q 73 170 46 106 q 149 299 100 235 q 236 400 186 346 q 331 512 297 468 q 389 610 365 556 q 413 724 413 664 q 392 795 413 764 q 325 826 371 826 q 253 786 276 826 q 229 682 229 746 l 229 625 l 58 625 q 54 681 54 649 q 133 897 54 825 q 332 969 211 969 q 517 908 446 969 q 588 722 588 847 q 553 565 588 642 q 472 426 518 488 q 354 283 425 365 q 283 200 293 214 q 254 156 263 172 l 592 156 l 592 0 l 46 0 l 46 33 z "},"3":{"ha":633,"x_min":35,"x_max":592,"o":"m 317 -17 q 108 60 182 -17 q 35 269 35 138 l 35 294 l 208 294 l 208 265 q 235 160 208 197 q 314 124 263 124 q 390 159 363 124 q 418 264 418 194 q 304 414 418 414 l 258 414 l 258 554 l 307 554 q 375 592 349 554 q 401 701 401 631 q 314 829 401 829 q 248 796 271 829 q 225 696 225 763 l 225 669 l 51 669 l 51 708 q 85 845 51 786 q 177 937 118 904 q 313 969 236 969 q 504 901 433 969 q 575 708 575 833 q 542 578 575 629 q 451 494 510 528 l 451 489 q 553 406 515 465 q 592 256 592 346 q 515 57 592 131 q 317 -17 439 -17 z "},"4":{"ha":633,"x_min":11,"x_max":618,"o":"m 354 215 l 11 215 l 11 349 q 145 639 83 475 q 251 969 207 803 l 418 969 q 344 730 394 856 q 240 502 293 604 q 156 356 188 400 l 354 356 l 354 569 q 407 696 381 622 q 447 828 433 769 l 521 828 l 521 356 l 618 356 l 618 215 l 521 215 l 521 0 l 354 0 l 354 215 z "},"5":{"ha":633,"x_min":42,"x_max":601,"o":"m 322 -17 q 118 67 194 -17 q 42 296 42 151 l 215 296 q 244 169 215 215 q 322 122 272 122 q 400 171 371 122 q 429 311 429 219 q 402 438 429 392 q 332 483 375 483 q 229 403 265 483 l 68 425 l 100 953 l 561 953 l 561 797 l 247 797 l 233 572 q 369 619 292 619 q 537 541 472 619 q 601 311 601 463 q 527 69 601 156 q 322 -17 453 -17 z "},"6":{"ha":633,"x_min":42,"x_max":592,"o":"m 329 -17 q 115 90 188 -17 q 42 449 42 196 q 74 757 42 642 q 166 921 106 872 q 317 969 226 969 q 505 885 443 969 q 567 660 567 800 l 396 660 q 376 787 396 744 q 311 829 357 829 q 249 793 269 829 q 222 694 229 757 q 214 524 215 632 q 276 579 238 560 q 361 599 315 599 q 533 514 474 599 q 592 292 592 429 q 558 128 592 199 q 464 21 524 58 q 329 -17 404 -17 m 322 124 q 395 170 371 124 q 419 292 419 217 q 395 417 419 371 q 322 463 371 463 q 249 417 274 463 q 224 292 224 371 q 249 170 224 217 q 322 124 274 124 z "},"7":{"ha":633,"x_min":32,"x_max":601,"o":"m 138 0 q 219 426 138 214 q 421 797 300 638 l 32 797 l 32 953 l 601 953 l 601 840 q 402 465 483 663 q 321 71 321 268 q 322 0 321 33 l 138 0 z "},"8":{"ha":633,"x_min":42,"x_max":592,"o":"m 317 -17 q 110 60 178 -17 q 42 261 42 138 q 164 489 42 428 q 87 578 113 522 q 61 704 61 635 q 128 894 61 819 q 317 969 194 969 q 506 894 439 969 q 572 704 572 819 q 546 578 572 635 q 468 489 519 522 q 592 261 592 428 q 524 60 592 138 q 317 -17 456 -17 m 317 556 q 381 591 358 556 q 404 693 404 626 q 381 795 404 760 q 317 831 358 831 q 253 796 275 831 q 231 693 231 761 q 253 590 231 625 q 317 556 275 556 m 317 122 q 393 160 367 122 q 419 269 419 197 q 393 380 419 342 q 317 418 367 418 q 240 380 267 418 q 214 269 214 342 q 240 160 214 197 q 317 122 267 122 z "},"9":{"ha":633,"x_min":42,"x_max":592,"o":"m 317 -17 q 128 68 190 -17 q 67 293 67 153 l 238 293 q 257 166 238 208 q 322 124 276 124 q 384 160 364 124 q 411 258 404 196 q 419 429 418 321 q 357 374 396 393 q 272 354 318 354 q 101 439 160 354 q 42 661 42 524 q 76 824 42 754 q 169 932 110 894 q 304 969 229 969 q 519 863 446 969 q 592 504 592 757 q 560 196 592 311 q 467 32 528 81 q 317 -17 407 -17 m 311 490 q 385 536 360 490 q 410 661 410 582 q 385 783 410 736 q 311 829 360 829 q 238 783 263 829 q 214 661 214 736 q 238 536 214 582 q 311 490 263 490 z "},"\r":{"ha":317,"x_min":0,"x_max":0,"o":""}," ":{"ha":317,"x_min":0,"x_max":0,"o":""},"A":{"ha":822,"x_min":0,"x_max":821,"o":"m 307 953 l 514 953 l 821 0 l 639 0 l 581 188 l 229 188 l 172 0 l 0 0 l 307 953 m 532 346 l 436 664 q 408 793 422 711 l 403 793 q 375 664 389 706 l 278 346 l 532 346 z "},"Á":{"ha":822,"x_min":0,"x_max":821,"o":"m 307 953 l 514 953 l 821 0 l 639 0 l 581 188 l 229 188 l 172 0 l 0 0 l 307 953 m 532 346 l 436 664 q 408 793 422 711 l 403 793 q 375 664 389 706 l 278 346 l 532 346 m 400 1185 l 581 1185 l 582 1181 l 460 1043 l 308 1043 l 400 1185 z "},"Ă":{"ha":822,"x_min":0,"x_max":821,"o":"m 307 953 l 514 953 l 821 0 l 639 0 l 581 188 l 229 188 l 172 0 l 0 0 l 307 953 m 532 346 l 436 664 q 408 793 422 711 l 403 793 q 375 664 389 706 l 278 346 l 532 346 m 410 1022 q 313 1044 356 1022 q 248 1101 271 1067 q 225 1171 225 1135 l 328 1171 q 355 1140 332 1154 q 410 1125 378 1125 q 467 1140 443 1125 q 493 1171 490 1154 l 596 1171 q 573 1101 596 1135 q 508 1044 550 1067 q 410 1022 465 1022 z "},"Ắ":{"ha":822,"x_min":0,"x_max":821,"o":"m 307 953 l 514 953 l 821 0 l 639 0 l 581 188 l 229 188 l 172 0 l 0 0 l 307 953 m 532 346 l 436 664 q 408 793 422 711 l 403 793 q 375 664 389 706 l 278 346 l 532 346 m 410 1022 q 313 1044 356 1022 q 248 1101 271 1067 q 225 1171 225 1135 l 328 1171 q 355 1140 332 1154 q 410 1125 378 1125 q 467 1140 443 1125 q 493 1171 490 1154 l 596 1171 q 573 1101 596 1135 q 508 1044 550 1067 q 410 1022 465 1022 m 400 1357 l 581 1357 l 582 1353 l 460 1215 l 308 1215 l 400 1357 z "},"Ặ":{"ha":822,"x_min":0,"x_max":821,"o":"m 307 953 l 514 953 l 821 0 l 639 0 l 581 188 l 229 188 l 172 0 l 0 0 l 307 953 m 532 346 l 436 664 q 408 793 422 711 l 403 793 q 375 664 389 706 l 278 346 l 532 346 m 322 -93 l 499 -93 l 499 -253 l 322 -253 l 322 -93 m 410 1022 q 313 1044 356 1022 q 248 1101 271 1067 q 225 1171 225 1135 l 328 1171 q 355 1140 332 1154 q 410 1125 378 1125 q 467 1140 443 1125 q 493 1171 490 1154 l 596 1171 q 573 1101 596 1135 q 508 1044 550 1067 q 410 1022 465 1022 z "},"Ằ":{"ha":822,"x_min":0,"x_max":821,"o":"m 307 953 l 514 953 l 821 0 l 639 0 l 581 188 l 229 188 l 172 0 l 0 0 l 307 953 m 532 346 l 436 664 q 408 793 422 711 l 403 793 q 375 664 389 706 l 278 346 l 532 346 m 410 1022 q 313 1044 356 1022 q 248 1101 271 1067 q 225 1171 225 1135 l 328 1171 q 355 1140 332 1154 q 410 1125 378 1125 q 467 1140 443 1125 q 493 1171 490 1154 l 596 1171 q 573 1101 596 1135 q 508 1044 550 1067 q 410 1022 465 1022 m 219 1353 l 221 1357 l 388 1357 l 507 1215 l 369 1215 l 219 1353 z "},"Ẳ":{"ha":822,"x_min":0,"x_max":821,"o":"m 307 953 l 514 953 l 821 0 l 639 0 l 581 188 l 229 188 l 172 0 l 0 0 l 307 953 m 532 346 l 436 664 q 408 793 422 711 l 403 793 q 375 664 389 706 l 278 346 l 532 346 m 410 1022 q 313 1044 356 1022 q 248 1101 271 1067 q 225 1171 225 1135 l 328 1171 q 355 1140 332 1154 q 410 1125 378 1125 q 467 1140 443 1125 q 493 1171 490 1154 l 596 1171 q 573 1101 596 1135 q 508 1044 550 1067 q 410 1022 465 1022 m 365 1279 l 385 1279 q 418 1285 408 1279 q 428 1306 428 1292 q 416 1326 428 1321 q 381 1332 404 1332 l 314 1332 l 314 1390 q 410 1401 358 1401 q 505 1383 464 1401 q 546 1317 546 1364 q 520 1260 546 1279 q 454 1238 494 1240 l 454 1208 l 365 1208 l 365 1279 z "},"Ẵ":{"ha":822,"x_min":0,"x_max":821,"o":"m 307 953 l 514 953 l 821 0 l 639 0 l 581 188 l 229 188 l 172 0 l 0 0 l 307 953 m 532 346 l 436 664 q 408 793 422 711 l 403 793 q 375 664 389 706 l 278 346 l 532 346 m 410 1022 q 313 1044 356 1022 q 248 1101 271 1067 q 225 1171 225 1135 l 328 1171 q 355 1140 332 1154 q 410 1125 378 1125 q 467 1140 443 1125 q 493 1171 490 1154 l 596 1171 q 573 1101 596 1135 q 508 1044 550 1067 q 410 1022 465 1022 m 200 1210 q 231 1316 200 1269 q 324 1363 263 1363 q 360 1357 343 1363 q 410 1339 378 1351 q 454 1322 436 1328 q 490 1317 472 1317 q 540 1363 533 1317 l 622 1363 q 591 1256 622 1303 q 499 1210 560 1210 q 462 1215 479 1210 q 413 1233 444 1221 q 368 1250 386 1244 q 332 1256 350 1256 q 282 1210 289 1256 l 200 1210 z "},"Ǎ":{"ha":822,"x_min":0,"x_max":821,"o":"m 307 953 l 514 953 l 821 0 l 639 0 l 581 188 l 229 188 l 172 0 l 0 0 l 307 953 m 532 346 l 436 664 q 408 793 422 711 l 403 793 q 375 664 389 706 l 278 346 l 532 346 m 224 1185 l 349 1185 l 411 1131 l 472 1185 l 597 1185 l 479 1039 l 343 1039 l 224 1185 z "},"Â":{"ha":822,"x_min":0,"x_max":821,"o":"m 307 953 l 514 953 l 821 0 l 639 0 l 581 188 l 229 188 l 172 0 l 0 0 l 307 953 m 532 346 l 436 664 q 408 793 422 711 l 403 793 q 375 664 389 706 l 278 346 l 532 346 m 343 1185 l 479 1185 l 597 1039 l 472 1039 l 411 1093 l 349 1039 l 224 1039 l 343 1185 z "},"Ấ":{"ha":822,"x_min":0,"x_max":821,"o":"m 307 953 l 514 953 l 821 0 l 639 0 l 581 188 l 229 188 l 172 0 l 0 0 l 307 953 m 532 346 l 436 664 q 408 793 422 711 l 403 793 q 375 664 389 706 l 278 346 l 532 346 m 343 1185 l 479 1185 l 597 1039 l 472 1039 l 411 1093 l 349 1039 l 224 1039 l 343 1185 m 400 1379 l 581 1379 l 582 1375 l 460 1238 l 308 1238 l 400 1379 z "},"Ậ":{"ha":822,"x_min":0,"x_max":821,"o":"m 307 953 l 514 953 l 821 0 l 639 0 l 581 188 l 229 188 l 172 0 l 0 0 l 307 953 m 532 346 l 436 664 q 408 793 422 711 l 403 793 q 375 664 389 706 l 278 346 l 532 346 m 343 1185 l 479 1185 l 597 1039 l 472 1039 l 411 1093 l 349 1039 l 224 1039 l 343 1185 m 322 -93 l 499 -93 l 499 -253 l 322 -253 l 322 -93 z "},"Ầ":{"ha":822,"x_min":0,"x_max":821,"o":"m 307 953 l 514 953 l 821 0 l 639 0 l 581 188 l 229 188 l 172 0 l 0 0 l 307 953 m 532 346 l 436 664 q 408 793 422 711 l 403 793 q 375 664 389 706 l 278 346 l 532 346 m 343 1185 l 479 1185 l 597 1039 l 472 1039 l 411 1093 l 349 1039 l 224 1039 l 343 1185 m 219 1375 l 221 1379 l 388 1379 l 507 1238 l 369 1238 l 219 1375 z "},"Ẩ":{"ha":822,"x_min":0,"x_max":821,"o":"m 307 953 l 514 953 l 821 0 l 639 0 l 581 188 l 229 188 l 172 0 l 0 0 l 307 953 m 532 346 l 436 664 q 408 793 422 711 l 403 793 q 375 664 389 706 l 278 346 l 532 346 m 343 1185 l 479 1185 l 597 1039 l 472 1039 l 411 1093 l 349 1039 l 224 1039 l 343 1185 m 365 1301 l 385 1301 q 418 1308 408 1301 q 428 1328 428 1314 q 416 1349 428 1343 q 381 1354 404 1354 l 314 1354 l 314 1413 q 410 1424 358 1424 q 505 1405 464 1424 q 546 1339 546 1386 q 520 1282 546 1301 q 454 1260 494 1263 l 454 1231 l 365 1231 l 365 1301 z "},"Ẫ":{"ha":822,"x_min":0,"x_max":821,"o":"m 307 953 l 514 953 l 821 0 l 639 0 l 581 188 l 229 188 l 172 0 l 0 0 l 307 953 m 532 346 l 436 664 q 408 793 422 711 l 403 793 q 375 664 389 706 l 278 346 l 532 346 m 343 1185 l 479 1185 l 597 1039 l 472 1039 l 411 1093 l 349 1039 l 224 1039 l 343 1185 m 200 1232 q 231 1338 200 1292 q 324 1385 263 1385 q 360 1379 343 1385 q 410 1361 378 1374 q 454 1344 436 1350 q 490 1339 472 1339 q 540 1385 533 1339 l 622 1385 q 591 1278 622 1325 q 499 1232 560 1232 q 462 1238 479 1232 q 413 1256 444 1243 q 368 1272 386 1267 q 332 1278 350 1278 q 282 1232 289 1278 l 200 1232 z "},"Ȁ":{"ha":822,"x_min":0,"x_max":821,"o":"m 307 953 l 514 953 l 821 0 l 639 0 l 581 188 l 229 188 l 172 0 l 0 0 l 307 953 m 532 346 l 436 664 q 408 793 422 711 l 403 793 q 375 664 389 706 l 278 346 l 532 346 m 151 1181 l 153 1185 l 292 1185 l 378 1043 l 268 1043 l 151 1181 m 346 1181 l 347 1185 l 486 1185 l 572 1043 l 463 1043 l 346 1181 z "},"Ä":{"ha":822,"x_min":0,"x_max":821,"o":"m 307 953 l 514 953 l 821 0 l 639 0 l 581 188 l 229 188 l 172 0 l 0 0 l 307 953 m 532 346 l 436 664 q 408 793 422 711 l 403 793 q 375 664 389 706 l 278 346 l 532 346 m 219 1226 l 358 1226 l 358 1075 l 219 1075 l 219 1226 m 463 1226 l 601 1226 l 601 1075 l 463 1075 l 463 1226 z "},"Ạ":{"ha":822,"x_min":0,"x_max":821,"o":"m 307 953 l 514 953 l 821 0 l 639 0 l 581 188 l 229 188 l 172 0 l 0 0 l 307 953 m 532 346 l 436 664 q 408 793 422 711 l 403 793 q 375 664 389 706 l 278 346 l 532 346 m 322 -93 l 499 -93 l 499 -253 l 322 -253 l 322 -93 z "},"À":{"ha":822,"x_min":0,"x_max":821,"o":"m 307 953 l 514 953 l 821 0 l 639 0 l 581 188 l 229 188 l 172 0 l 0 0 l 307 953 m 532 346 l 436 664 q 408 793 422 711 l 403 793 q 375 664 389 706 l 278 346 l 532 346 m 219 1181 l 221 1185 l 388 1185 l 507 1043 l 369 1043 l 219 1181 z "},"Ả":{"ha":822,"x_min":0,"x_max":821,"o":"m 307 953 l 514 953 l 821 0 l 639 0 l 581 188 l 229 188 l 172 0 l 0 0 l 307 953 m 532 346 l 436 664 q 408 793 422 711 l 403 793 q 375 664 389 706 l 278 346 l 532 346 m 365 1107 l 385 1107 q 418 1113 408 1107 q 428 1133 428 1119 q 416 1154 428 1149 q 381 1160 404 1160 l 314 1160 l 314 1218 q 410 1229 358 1229 q 505 1210 464 1229 q 546 1144 546 1192 q 520 1088 546 1107 q 454 1065 494 1068 l 454 1036 l 365 1036 l 365 1107 z "},"Ȃ":{"ha":822,"x_min":0,"x_max":821,"o":"m 307 953 l 514 953 l 821 0 l 639 0 l 581 188 l 229 188 l 172 0 l 0 0 l 307 953 m 532 346 l 436 664 q 408 793 422 711 l 403 793 q 375 664 389 706 l 278 346 l 532 346 m 225 1092 q 248 1162 225 1128 q 313 1218 271 1196 q 410 1240 356 1240 q 508 1218 465 1240 q 573 1162 550 1196 q 596 1092 596 1128 l 493 1092 q 467 1123 490 1108 q 410 1138 443 1138 q 355 1123 378 1138 q 328 1092 332 1108 l 225 1092 z "},"Ā":{"ha":822,"x_min":0,"x_max":821,"o":"m 307 953 l 514 953 l 821 0 l 639 0 l 581 188 l 229 188 l 172 0 l 0 0 l 307 953 m 532 346 l 436 664 q 408 793 422 711 l 403 793 q 375 664 389 706 l 278 346 l 532 346 m 233 1175 l 588 1175 l 588 1054 l 233 1054 l 233 1175 z "},"Ą":{"ha":822,"x_min":0,"x_max":849,"o":"m 849 -168 l 849 -246 q 757 -261 799 -261 q 654 -228 690 -261 q 618 -147 618 -196 q 642 -70 618 -110 q 711 0 665 -31 l 639 0 l 581 188 l 229 188 l 172 0 l 0 0 l 307 953 l 514 953 l 821 0 q 761 -56 783 -25 q 739 -115 739 -87 q 758 -153 739 -139 q 818 -168 778 -168 l 849 -168 m 532 346 l 436 664 q 408 793 422 711 l 403 793 q 375 664 389 706 l 278 346 l 532 346 z "},"Å":{"ha":822,"x_min":0,"x_max":821,"o":"m 307 953 l 514 953 l 821 0 l 639 0 l 581 188 l 229 188 l 172 0 l 0 0 l 307 953 m 532 346 l 436 664 q 408 793 422 711 l 403 793 q 375 664 389 706 l 278 346 l 532 346 m 411 1001 q 317 1040 357 1001 q 278 1135 278 1079 q 317 1229 278 1190 q 411 1268 356 1268 q 506 1228 467 1268 q 544 1135 544 1189 q 506 1040 544 1079 q 411 1001 467 1001 m 411 1076 q 452 1093 435 1076 q 469 1135 469 1110 q 452 1176 469 1160 q 411 1193 435 1193 q 369 1176 386 1193 q 353 1135 353 1160 q 369 1093 353 1110 q 411 1076 386 1076 z "},"Ǻ":{"ha":822,"x_min":0,"x_max":821,"o":"m 449 1329 l 615 1329 l 617 1325 l 489 1178 l 351 1178 l 449 1329 m 301 936 q 278 1011 278 968 q 317 1102 278 1064 q 411 1140 356 1140 q 506 1102 467 1140 q 544 1011 544 1064 q 519 935 544 971 l 821 0 l 639 0 l 581 188 l 229 188 l 172 0 l 0 0 l 301 936 m 411 949 q 456 967 438 949 q 475 1011 475 985 q 456 1055 475 1038 q 411 1072 438 1072 q 365 1055 383 1072 q 347 1011 347 1038 q 365 967 347 985 q 411 949 383 949 m 532 346 l 436 664 q 408 793 422 711 l 403 793 q 375 664 389 706 l 278 346 l 532 346 z "},"Ã":{"ha":822,"x_min":0,"x_max":821,"o":"m 307 953 l 514 953 l 821 0 l 639 0 l 581 188 l 229 188 l 172 0 l 0 0 l 307 953 m 532 346 l 436 664 q 408 793 422 711 l 403 793 q 375 664 389 706 l 278 346 l 532 346 m 200 1038 q 231 1144 200 1097 q 324 1190 263 1190 q 360 1185 343 1190 q 410 1167 378 1179 q 454 1150 436 1156 q 490 1144 472 1144 q 540 1190 533 1144 l 622 1190 q 591 1084 622 1131 q 499 1038 560 1038 q 462 1043 479 1038 q 413 1061 444 1049 q 368 1078 386 1072 q 332 1083 350 1083 q 282 1038 289 1083 l 200 1038 z "},"Æ":{"ha":1139,"x_min":-11,"x_max":1079,"o":"m 354 953 l 1071 953 l 1071 794 l 608 794 l 664 567 l 1010 567 l 1010 408 l 703 408 l 764 158 l 1079 158 l 1079 0 l 621 0 l 575 188 l 224 188 l 154 0 l -11 0 l 354 953 m 538 346 l 456 694 l 440 758 l 435 758 l 410 692 l 282 346 l 538 346 z "},"Ǽ":{"ha":1139,"x_min":-11,"x_max":1079,"o":"m 354 953 l 1071 953 l 1071 794 l 608 794 l 664 567 l 1010 567 l 1010 408 l 703 408 l 764 158 l 1079 158 l 1079 0 l 621 0 l 575 188 l 224 188 l 154 0 l -11 0 l 354 953 m 538 346 l 456 694 l 440 758 l 435 758 l 410 692 l 282 346 l 538 346 m 683 1185 l 864 1185 l 865 1181 l 743 1043 l 592 1043 l 683 1185 z "},"B":{"ha":822,"x_min":83,"x_max":775,"o":"m 83 953 l 493 953 q 627 923 568 953 q 719 840 686 893 q 753 717 753 786 q 712 580 753 638 q 607 500 671 522 l 607 494 q 728 408 681 472 q 775 256 775 344 q 737 120 775 178 q 635 31 699 63 q 493 0 571 0 l 83 0 l 83 953 m 444 567 q 538 600 506 567 q 571 685 571 633 q 539 766 571 738 q 453 794 507 794 l 261 794 l 261 567 l 444 567 m 464 158 q 557 190 521 158 q 593 278 593 221 q 558 373 593 336 q 456 410 522 410 l 261 410 l 261 158 l 464 158 z "},"C":{"ha":822,"x_min":47,"x_max":776,"o":"m 426 -17 q 145 106 243 -17 q 47 476 47 229 q 145 847 47 724 q 426 969 243 969 q 680 876 583 969 q 776 599 776 783 l 594 599 q 549 761 594 706 q 426 817 504 817 q 280 737 329 817 q 231 511 231 657 l 231 442 q 281 216 231 296 q 432 136 332 136 q 557 191 511 136 q 603 353 603 246 l 776 353 q 681 78 776 172 q 426 -17 585 -17 z "},"Ć":{"ha":822,"x_min":47,"x_max":776,"o":"m 426 -17 q 145 106 243 -17 q 47 476 47 229 q 145 847 47 724 q 426 969 243 969 q 680 876 583 969 q 776 599 776 783 l 594 599 q 549 761 594 706 q 426 817 504 817 q 280 737 329 817 q 231 511 231 657 l 231 442 q 281 216 231 296 q 432 136 332 136 q 557 191 511 136 q 603 353 603 246 l 776 353 q 681 78 776 172 q 426 -17 585 -17 m 415 1185 l 596 1185 l 597 1181 l 475 1043 l 324 1043 l 415 1185 z "},"Č":{"ha":822,"x_min":47,"x_max":776,"o":"m 426 -17 q 145 106 243 -17 q 47 476 47 229 q 145 847 47 724 q 426 969 243 969 q 680 876 583 969 q 776 599 776 783 l 594 599 q 549 761 594 706 q 426 817 504 817 q 280 737 329 817 q 231 511 231 657 l 231 442 q 281 216 231 296 q 432 136 332 136 q 557 191 511 136 q 603 353 603 246 l 776 353 q 681 78 776 172 q 426 -17 585 -17 m 239 1185 l 364 1185 l 426 1131 l 488 1185 l 613 1185 l 494 1039 l 358 1039 l 239 1185 z "},"Ç":{"ha":822,"x_min":47,"x_max":776,"o":"m 432 136 q 557 191 511 136 q 603 353 603 246 l 776 353 q 693 91 776 185 q 471 -15 610 -3 l 467 -46 q 546 -72 515 -49 q 576 -140 576 -96 q 530 -228 576 -203 q 425 -253 483 -253 q 308 -242 361 -253 l 308 -174 l 407 -174 q 444 -166 432 -174 q 457 -140 457 -158 q 447 -115 457 -124 q 410 -107 436 -107 l 364 -107 l 375 -14 q 132 124 217 1 q 47 476 47 247 q 145 847 47 724 q 426 969 243 969 q 680 876 583 969 q 776 599 776 783 l 594 599 q 549 761 594 706 q 426 817 504 817 q 280 737 329 817 q 231 511 231 657 l 231 442 q 281 216 231 296 q 432 136 332 136 z "},"Ĉ":{"ha":822,"x_min":47,"x_max":776,"o":"m 426 -17 q 145 106 243 -17 q 47 476 47 229 q 145 847 47 724 q 426 969 243 969 q 680 876 583 969 q 776 599 776 783 l 594 599 q 549 761 594 706 q 426 817 504 817 q 280 737 329 817 q 231 511 231 657 l 231 442 q 281 216 231 296 q 432 136 332 136 q 557 191 511 136 q 603 353 603 246 l 776 353 q 681 78 776 172 q 426 -17 585 -17 m 358 1185 l 494 1185 l 613 1039 l 488 1039 l 426 1093 l 364 1039 l 239 1039 l 358 1185 z "},"Ċ":{"ha":822,"x_min":47,"x_max":776,"o":"m 426 -17 q 145 106 243 -17 q 47 476 47 229 q 145 847 47 724 q 426 969 243 969 q 680 876 583 969 q 776 599 776 783 l 594 599 q 549 761 594 706 q 426 817 504 817 q 280 737 329 817 q 231 511 231 657 l 231 442 q 281 216 231 296 q 432 136 332 136 q 557 191 511 136 q 603 353 603 246 l 776 353 q 681 78 776 172 q 426 -17 585 -17 m 338 1226 l 515 1226 l 515 1067 l 338 1067 l 338 1226 z "},"D":{"ha":822,"x_min":83,"x_max":775,"o":"m 83 953 l 393 953 q 674 835 574 953 q 775 490 775 717 q 675 125 775 250 q 393 0 575 0 l 83 0 l 83 953 m 376 158 q 535 234 478 158 q 592 456 592 310 l 592 525 q 535 726 592 657 q 376 794 478 794 l 261 794 l 261 158 l 376 158 z "},"Ǆ":{"ha":1518,"x_min":83,"x_max":1489,"o":"m 83 953 l 393 953 q 674 835 574 953 q 775 490 775 717 q 675 125 775 250 q 393 0 575 0 l 83 0 l 83 953 m 376 158 q 535 234 478 158 q 592 456 592 310 l 592 525 q 535 726 592 657 q 376 794 478 794 l 261 794 l 261 158 l 376 158 m 844 68 l 1236 794 l 874 794 l 874 953 l 1479 953 l 1479 883 l 1088 158 l 1489 158 l 1489 0 l 844 0 l 844 68 m 982 1185 l 1107 1185 l 1169 1131 l 1231 1185 l 1356 1185 l 1238 1039 l 1101 1039 l 982 1185 z "},"Ð":{"ha":822,"x_min":14,"x_max":775,"o":"m 83 433 l 14 433 l 14 551 l 83 551 l 83 953 l 393 953 q 674 835 574 953 q 775 490 775 717 q 675 125 775 250 q 393 0 575 0 l 83 0 l 83 433 m 376 158 q 535 234 478 158 q 592 456 592 310 l 592 525 q 535 726 592 657 q 376 794 478 794 l 261 794 l 261 551 l 435 551 l 435 433 l 261 433 l 261 158 l 376 158 z "},"Ď":{"ha":822,"x_min":83,"x_max":775,"o":"m 83 953 l 393 953 q 674 835 574 953 q 775 490 775 717 q 675 125 775 250 q 393 0 575 0 l 83 0 l 83 953 m 376 158 q 535 234 478 158 q 592 456 592 310 l 592 525 q 535 726 592 657 q 376 794 478 794 l 261 794 l 261 158 l 376 158 m 178 1185 l 303 1185 l 365 1131 l 426 1185 l 551 1185 l 433 1039 l 297 1039 l 178 1185 z "},"Đ":{"ha":822,"x_min":14,"x_max":775,"o":"m 83 433 l 14 433 l 14 551 l 83 551 l 83 953 l 393 953 q 674 835 574 953 q 775 490 775 717 q 675 125 775 250 q 393 0 575 0 l 83 0 l 83 433 m 376 158 q 535 234 478 158 q 592 456 592 310 l 592 525 q 535 726 592 657 q 376 794 478 794 l 261 794 l 261 551 l 435 551 l 435 433 l 261 433 l 261 158 l 376 158 z "},"ǅ":{"ha":1392,"x_min":83,"x_max":1367,"o":"m 83 953 l 393 953 q 674 835 574 953 q 775 490 775 717 q 675 125 775 250 q 393 0 575 0 l 83 0 l 83 953 m 376 158 q 535 234 478 158 q 592 456 592 310 l 592 525 q 535 726 592 657 q 376 794 478 794 l 261 794 l 261 158 l 376 158 m 847 71 l 1131 590 l 864 590 l 864 731 l 1357 731 l 1357 661 l 1072 140 l 1367 140 l 1367 0 l 847 0 l 847 71 m 919 1004 l 1044 1004 l 1107 908 l 1168 1004 l 1293 1004 l 1175 817 l 1039 817 l 919 1004 z "},"E":{"ha":760,"x_min":83,"x_max":699,"o":"m 83 953 l 690 953 l 690 794 l 261 794 l 261 567 l 629 567 l 629 408 l 261 408 l 261 158 l 699 158 l 699 0 l 83 0 l 83 953 z "},"É":{"ha":760,"x_min":83,"x_max":699,"o":"m 83 953 l 690 953 l 690 794 l 261 794 l 261 567 l 629 567 l 629 408 l 261 408 l 261 158 l 699 158 l 699 0 l 83 0 l 83 953 m 376 1185 l 557 1185 l 558 1181 l 436 1043 l 285 1043 l 376 1185 z "},"Ĕ":{"ha":760,"x_min":83,"x_max":699,"o":"m 83 953 l 690 953 l 690 794 l 261 794 l 261 567 l 629 567 l 629 408 l 261 408 l 261 158 l 699 158 l 699 0 l 83 0 l 83 953 m 386 1022 q 290 1044 332 1022 q 224 1101 247 1067 q 201 1171 201 1135 l 304 1171 q 331 1140 308 1154 q 386 1125 354 1125 q 443 1140 419 1125 q 469 1171 467 1154 l 572 1171 q 549 1101 572 1135 q 484 1044 526 1067 q 386 1022 442 1022 z "},"Ě":{"ha":760,"x_min":83,"x_max":699,"o":"m 83 953 l 690 953 l 690 794 l 261 794 l 261 567 l 629 567 l 629 408 l 261 408 l 261 158 l 699 158 l 699 0 l 83 0 l 83 953 m 200 1185 l 325 1185 l 388 1131 l 449 1185 l 574 1185 l 456 1039 l 319 1039 l 200 1185 z "},"Ê":{"ha":760,"x_min":83,"x_max":699,"o":"m 83 953 l 690 953 l 690 794 l 261 794 l 261 567 l 629 567 l 629 408 l 261 408 l 261 158 l 699 158 l 699 0 l 83 0 l 83 953 m 319 1185 l 456 1185 l 574 1039 l 449 1039 l 388 1093 l 325 1039 l 200 1039 l 319 1185 z "},"Ế":{"ha":760,"x_min":83,"x_max":699,"o":"m 83 953 l 690 953 l 690 794 l 261 794 l 261 567 l 629 567 l 629 408 l 261 408 l 261 158 l 699 158 l 699 0 l 83 0 l 83 953 m 319 1185 l 456 1185 l 574 1039 l 449 1039 l 388 1093 l 325 1039 l 200 1039 l 319 1185 m 376 1379 l 557 1379 l 558 1375 l 436 1238 l 285 1238 l 376 1379 z "},"Ệ":{"ha":760,"x_min":83,"x_max":699,"o":"m 83 953 l 690 953 l 690 794 l 261 794 l 261 567 l 629 567 l 629 408 l 261 408 l 261 158 l 699 158 l 699 0 l 83 0 l 83 953 m 318 -93 l 494 -93 l 494 -253 l 318 -253 l 318 -93 m 319 1185 l 456 1185 l 574 1039 l 449 1039 l 388 1093 l 325 1039 l 200 1039 l 319 1185 z "},"Ề":{"ha":760,"x_min":83,"x_max":699,"o":"m 83 953 l 690 953 l 690 794 l 261 794 l 261 567 l 629 567 l 629 408 l 261 408 l 261 158 l 699 158 l 699 0 l 83 0 l 83 953 m 319 1185 l 456 1185 l 574 1039 l 449 1039 l 388 1093 l 325 1039 l 200 1039 l 319 1185 m 196 1375 l 197 1379 l 364 1379 l 483 1238 l 346 1238 l 196 1375 z "},"Ể":{"ha":760,"x_min":83,"x_max":699,"o":"m 83 953 l 690 953 l 690 794 l 261 794 l 261 567 l 629 567 l 629 408 l 261 408 l 261 158 l 699 158 l 699 0 l 83 0 l 83 953 m 319 1185 l 456 1185 l 574 1039 l 449 1039 l 388 1093 l 325 1039 l 200 1039 l 319 1185 m 342 1301 l 361 1301 q 394 1308 385 1301 q 404 1328 404 1314 q 392 1349 404 1343 q 357 1354 381 1354 l 290 1354 l 290 1413 q 386 1424 335 1424 q 481 1405 440 1424 q 522 1339 522 1386 q 497 1282 522 1301 q 431 1260 471 1263 l 431 1231 l 342 1231 l 342 1301 z "},"Ễ":{"ha":760,"x_min":83,"x_max":699,"o":"m 83 953 l 690 953 l 690 794 l 261 794 l 261 567 l 629 567 l 629 408 l 261 408 l 261 158 l 699 158 l 699 0 l 83 0 l 83 953 m 319 1185 l 456 1185 l 574 1039 l 449 1039 l 388 1093 l 325 1039 l 200 1039 l 319 1185 m 176 1232 q 208 1338 176 1292 q 300 1385 239 1385 q 337 1379 319 1385 q 386 1361 354 1374 q 431 1344 413 1350 q 467 1339 449 1339 q 517 1385 510 1339 l 599 1385 q 567 1278 599 1325 q 475 1232 536 1232 q 438 1238 456 1232 q 389 1256 421 1243 q 344 1272 363 1267 q 308 1278 326 1278 q 258 1232 265 1278 l 176 1232 z "},"Ȅ":{"ha":760,"x_min":83,"x_max":699,"o":"m 83 953 l 690 953 l 690 794 l 261 794 l 261 567 l 629 567 l 629 408 l 261 408 l 261 158 l 699 158 l 699 0 l 83 0 l 83 953 m 128 1181 l 129 1185 l 268 1185 l 354 1043 l 244 1043 l 128 1181 m 322 1181 l 324 1185 l 463 1185 l 549 1043 l 439 1043 l 322 1181 z "},"Ë":{"ha":760,"x_min":83,"x_max":699,"o":"m 83 953 l 690 953 l 690 794 l 261 794 l 261 567 l 629 567 l 629 408 l 261 408 l 261 158 l 699 158 l 699 0 l 83 0 l 83 953 m 196 1226 l 335 1226 l 335 1075 l 196 1075 l 196 1226 m 439 1226 l 578 1226 l 578 1075 l 439 1075 l 439 1226 z "},"Ė":{"ha":760,"x_min":83,"x_max":699,"o":"m 83 953 l 690 953 l 690 794 l 261 794 l 261 567 l 629 567 l 629 408 l 261 408 l 261 158 l 699 158 l 699 0 l 83 0 l 83 953 m 299 1226 l 476 1226 l 476 1067 l 299 1067 l 299 1226 z "},"Ẹ":{"ha":760,"x_min":83,"x_max":699,"o":"m 83 953 l 690 953 l 690 794 l 261 794 l 261 567 l 629 567 l 629 408 l 261 408 l 261 158 l 699 158 l 699 0 l 83 0 l 83 953 m 318 -93 l 494 -93 l 494 -253 l 318 -253 l 318 -93 z "},"È":{"ha":760,"x_min":83,"x_max":699,"o":"m 83 953 l 690 953 l 690 794 l 261 794 l 261 567 l 629 567 l 629 408 l 261 408 l 261 158 l 699 158 l 699 0 l 83 0 l 83 953 m 196 1181 l 197 1185 l 364 1185 l 483 1043 l 346 1043 l 196 1181 z "},"Ẻ":{"ha":760,"x_min":83,"x_max":699,"o":"m 83 953 l 690 953 l 690 794 l 261 794 l 261 567 l 629 567 l 629 408 l 261 408 l 261 158 l 699 158 l 699 0 l 83 0 l 83 953 m 342 1107 l 361 1107 q 394 1113 385 1107 q 404 1133 404 1119 q 392 1154 404 1149 q 357 1160 381 1160 l 290 1160 l 290 1218 q 386 1229 335 1229 q 481 1210 440 1229 q 522 1144 522 1192 q 497 1088 522 1107 q 431 1065 471 1068 l 431 1036 l 342 1036 l 342 1107 z "},"Ȇ":{"ha":760,"x_min":83,"x_max":699,"o":"m 83 953 l 690 953 l 690 794 l 261 794 l 261 567 l 629 567 l 629 408 l 261 408 l 261 158 l 699 158 l 699 0 l 83 0 l 83 953 m 201 1092 q 224 1162 201 1128 q 290 1218 247 1196 q 386 1240 332 1240 q 484 1218 442 1240 q 549 1162 526 1196 q 572 1092 572 1128 l 469 1092 q 443 1123 467 1108 q 386 1138 419 1138 q 331 1123 354 1138 q 304 1092 308 1108 l 201 1092 z "},"Ē":{"ha":760,"x_min":83,"x_max":699,"o":"m 83 953 l 690 953 l 690 794 l 261 794 l 261 567 l 629 567 l 629 408 l 261 408 l 261 158 l 699 158 l 699 0 l 83 0 l 83 953 m 210 1175 l 564 1175 l 564 1054 l 210 1054 l 210 1175 z "},"Ę":{"ha":760,"x_min":83,"x_max":726,"o":"m 726 -168 l 726 -246 q 635 -261 676 -261 q 532 -228 568 -261 q 496 -147 496 -196 q 519 -70 496 -110 q 589 0 543 -31 l 83 0 l 83 953 l 690 953 l 690 794 l 261 794 l 261 567 l 629 567 l 629 408 l 261 408 l 261 158 l 699 158 l 699 0 q 639 -56 661 -25 q 617 -115 617 -87 q 636 -153 617 -139 q 696 -168 656 -168 l 726 -168 z "},"Ẽ":{"ha":760,"x_min":83,"x_max":699,"o":"m 83 953 l 690 953 l 690 794 l 261 794 l 261 567 l 629 567 l 629 408 l 261 408 l 261 158 l 699 158 l 699 0 l 83 0 l 83 953 m 176 1038 q 208 1144 176 1097 q 300 1190 239 1190 q 337 1185 319 1190 q 386 1167 354 1179 q 431 1150 413 1156 q 467 1144 449 1144 q 517 1190 510 1144 l 599 1190 q 567 1084 599 1131 q 475 1038 536 1038 q 438 1043 456 1038 q 389 1061 421 1049 q 344 1078 363 1072 q 308 1083 326 1083 q 258 1038 265 1083 l 176 1038 z "},"F":{"ha":696,"x_min":83,"x_max":643,"o":"m 83 953 l 643 953 l 643 794 l 261 794 l 261 554 l 588 554 l 588 396 l 261 396 l 261 0 l 83 0 l 83 953 z "},"Ƒ":{"ha":696,"x_min":-47,"x_max":643,"o":"m 71 -253 q 8 -247 42 -253 q -47 -232 -26 -240 l -47 -118 l 21 -118 q 67 -102 51 -118 q 83 -56 83 -86 l 83 953 l 643 953 l 643 794 l 261 794 l 261 554 l 588 554 l 588 396 l 261 396 l 261 -67 q 215 -199 261 -144 q 71 -253 168 -253 z "},"G":{"ha":886,"x_min":47,"x_max":815,"o":"m 419 518 l 815 518 l 815 0 l 700 0 l 669 106 q 558 15 624 46 q 415 -17 492 -17 q 142 105 236 -17 q 47 476 47 226 q 151 847 47 725 q 451 969 256 969 q 633 928 550 969 q 765 808 715 888 q 815 619 815 729 l 633 619 q 580 765 633 713 q 446 817 526 817 q 284 738 338 817 q 231 511 231 658 l 231 442 q 284 215 231 293 q 447 136 338 136 q 581 199 529 136 q 633 365 633 263 l 419 365 l 419 518 z "},"Ğ":{"ha":886,"x_min":47,"x_max":815,"o":"m 419 518 l 815 518 l 815 0 l 700 0 l 669 106 q 558 15 624 46 q 415 -17 492 -17 q 142 105 236 -17 q 47 476 47 226 q 151 847 47 725 q 451 969 256 969 q 633 928 550 969 q 765 808 715 888 q 815 619 815 729 l 633 619 q 580 765 633 713 q 446 817 526 817 q 284 738 338 817 q 231 511 231 658 l 231 442 q 284 215 231 293 q 447 136 338 136 q 581 199 529 136 q 633 365 633 263 l 419 365 l 419 518 m 442 1022 q 345 1044 388 1022 q 280 1101 303 1067 q 257 1171 257 1135 l 360 1171 q 387 1140 364 1154 q 442 1125 410 1125 q 499 1140 475 1125 q 525 1171 522 1154 l 628 1171 q 605 1101 628 1135 q 540 1044 582 1067 q 442 1022 497 1022 z "},"Ǧ":{"ha":886,"x_min":47,"x_max":815,"o":"m 419 518 l 815 518 l 815 0 l 700 0 l 669 106 q 558 15 624 46 q 415 -17 492 -17 q 142 105 236 -17 q 47 476 47 226 q 151 847 47 725 q 451 969 256 969 q 633 928 550 969 q 765 808 715 888 q 815 619 815 729 l 633 619 q 580 765 633 713 q 446 817 526 817 q 284 738 338 817 q 231 511 231 658 l 231 442 q 284 215 231 293 q 447 136 338 136 q 581 199 529 136 q 633 365 633 263 l 419 365 l 419 518 m 256 1185 l 381 1185 l 443 1131 l 504 1185 l 629 1185 l 511 1039 l 375 1039 l 256 1185 z "},"Ĝ":{"ha":886,"x_min":47,"x_max":815,"o":"m 419 518 l 815 518 l 815 0 l 700 0 l 669 106 q 558 15 624 46 q 415 -17 492 -17 q 142 105 236 -17 q 47 476 47 226 q 151 847 47 725 q 451 969 256 969 q 633 928 550 969 q 765 808 715 888 q 815 619 815 729 l 633 619 q 580 765 633 713 q 446 817 526 817 q 284 738 338 817 q 231 511 231 658 l 231 442 q 284 215 231 293 q 447 136 338 136 q 581 199 529 136 q 633 365 633 263 l 419 365 l 419 518 m 375 1185 l 511 1185 l 629 1039 l 504 1039 l 443 1093 l 381 1039 l 256 1039 l 375 1185 z "},"Ģ":{"ha":886,"x_min":47,"x_max":815,"o":"m 419 518 l 815 518 l 815 0 l 700 0 l 669 106 q 558 15 624 46 q 415 -17 492 -17 q 142 105 236 -17 q 47 476 47 226 q 151 847 47 725 q 451 969 256 969 q 633 928 550 969 q 765 808 715 888 q 815 619 815 729 l 633 619 q 580 765 633 713 q 446 817 526 817 q 284 738 338 817 q 231 511 231 658 l 231 442 q 284 215 231 293 q 447 136 338 136 q 581 199 529 136 q 633 365 633 263 l 419 365 l 419 518 m 403 -247 l 335 -247 l 335 -93 l 513 -93 l 513 -232 l 449 -365 l 358 -365 l 403 -247 z "},"Ġ":{"ha":886,"x_min":47,"x_max":815,"o":"m 419 518 l 815 518 l 815 0 l 700 0 l 669 106 q 558 15 624 46 q 415 -17 492 -17 q 142 105 236 -17 q 47 476 47 226 q 151 847 47 725 q 451 969 256 969 q 633 928 550 969 q 765 808 715 888 q 815 619 815 729 l 633 619 q 580 765 633 713 q 446 817 526 817 q 284 738 338 817 q 231 511 231 658 l 231 442 q 284 215 231 293 q 447 136 338 136 q 581 199 529 136 q 633 365 633 263 l 419 365 l 419 518 m 354 1226 l 532 1226 l 532 1067 l 354 1067 l 354 1226 z "},"H":{"ha":822,"x_min":83,"x_max":739,"o":"m 83 953 l 261 953 l 261 567 l 561 567 l 561 953 l 739 953 l 739 0 l 561 0 l 561 408 l 261 408 l 261 0 l 83 0 l 83 953 z "},"Ħ":{"ha":822,"x_min":14,"x_max":810,"o":"m 810 686 l 739 686 l 739 0 l 561 0 l 561 408 l 261 408 l 261 0 l 83 0 l 83 686 l 14 686 l 14 814 l 83 814 l 83 953 l 261 953 l 261 814 l 561 814 l 561 953 l 739 953 l 739 814 l 810 814 l 810 686 m 561 686 l 261 686 l 261 567 l 561 567 l 561 686 z "},"Ĥ":{"ha":822,"x_min":83,"x_max":739,"o":"m 83 953 l 261 953 l 261 567 l 561 567 l 561 953 l 739 953 l 739 0 l 561 0 l 561 408 l 261 408 l 261 0 l 83 0 l 83 953 m 343 1185 l 479 1185 l 597 1039 l 472 1039 l 411 1093 l 349 1039 l 224 1039 l 343 1185 z "},"I":{"ha":317,"x_min":69,"x_max":247,"o":"m 69 953 l 247 953 l 247 0 l 69 0 l 69 953 z "},"Ĳ":{"ha":950,"x_min":69,"x_max":867,"o":"m 69 953 l 247 953 l 247 0 l 69 0 l 69 953 m 599 -17 q 399 46 469 -17 q 329 226 329 108 l 329 300 l 506 300 l 506 240 q 529 163 506 190 q 599 136 553 136 q 666 163 643 136 q 689 240 689 190 l 689 953 l 867 953 l 867 226 q 797 46 867 108 q 599 -17 728 -17 z "},"Í":{"ha":317,"x_min":56,"x_max":329,"o":"m 69 953 l 247 953 l 247 0 l 69 0 l 69 953 m 147 1185 l 328 1185 l 329 1181 l 207 1043 l 56 1043 l 147 1185 z "},"Ĭ":{"ha":317,"x_min":-28,"x_max":343,"o":"m 69 953 l 247 953 l 247 0 l 69 0 l 69 953 m 157 1022 q 60 1044 103 1022 q -5 1101 18 1067 q -28 1171 -28 1135 l 75 1171 q 102 1140 79 1154 q 157 1125 125 1125 q 214 1140 190 1125 q 240 1171 238 1154 l 343 1171 q 320 1101 343 1135 q 255 1044 297 1067 q 157 1022 213 1022 z "},"Ǐ":{"ha":317,"x_min":-29,"x_max":344,"o":"m 69 953 l 247 953 l 247 0 l 69 0 l 69 953 m -29 1185 l 96 1185 l 158 1131 l 219 1185 l 344 1185 l 226 1039 l 90 1039 l -29 1185 z "},"Î":{"ha":317,"x_min":-29,"x_max":344,"o":"m 69 953 l 247 953 l 247 0 l 69 0 l 69 953 m 90 1185 l 226 1185 l 344 1039 l 219 1039 l 158 1093 l 96 1039 l -29 1039 l 90 1185 z "},"Ȉ":{"ha":317,"x_min":-101,"x_max":319,"o":"m 69 953 l 247 953 l 247 0 l 69 0 l 69 953 m -101 1181 l -100 1185 l 39 1185 l 125 1043 l 15 1043 l -101 1181 m 93 1181 l 94 1185 l 233 1185 l 319 1043 l 210 1043 l 93 1181 z "},"Ï":{"ha":317,"x_min":-33,"x_max":349,"o":"m 69 953 l 247 953 l 247 0 l 69 0 l 69 953 m -33 1226 l 106 1226 l 106 1075 l -33 1075 l -33 1226 m 210 1226 l 349 1226 l 349 1075 l 210 1075 l 210 1226 z "},"İ":{"ha":317,"x_min":69,"x_max":247,"o":"m 69 953 l 247 953 l 247 0 l 69 0 l 69 953 m 69 1226 l 247 1226 l 247 1067 l 69 1067 l 69 1226 z "},"Ị":{"ha":317,"x_min":69,"x_max":247,"o":"m 69 953 l 247 953 l 247 0 l 69 0 l 69 953 m 69 -93 l 246 -93 l 246 -253 l 69 -253 l 69 -93 z "},"Ì":{"ha":317,"x_min":-33,"x_max":254,"o":"m 69 953 l 247 953 l 247 0 l 69 0 l 69 953 m -33 1181 l -32 1185 l 135 1185 l 254 1043 l 117 1043 l -33 1181 z "},"Ỉ":{"ha":317,"x_min":61,"x_max":293,"o":"m 69 953 l 247 953 l 247 0 l 69 0 l 69 953 m 113 1107 l 132 1107 q 165 1113 156 1107 q 175 1133 175 1119 q 163 1154 175 1149 q 128 1160 151 1160 l 61 1160 l 61 1218 q 157 1229 106 1229 q 252 1210 211 1229 q 293 1144 293 1192 q 267 1088 293 1107 q 201 1065 242 1068 l 201 1036 l 113 1036 l 113 1107 z "},"Ȋ":{"ha":317,"x_min":-28,"x_max":343,"o":"m 69 953 l 247 953 l 247 0 l 69 0 l 69 953 m -28 1092 q -5 1162 -28 1128 q 60 1218 18 1196 q 157 1240 103 1240 q 255 1218 213 1240 q 320 1162 297 1196 q 343 1092 343 1128 l 240 1092 q 214 1123 238 1108 q 157 1138 190 1138 q 102 1123 125 1138 q 75 1092 79 1108 l -28 1092 z "},"Ī":{"ha":317,"x_min":-19,"x_max":335,"o":"m 69 953 l 247 953 l 247 0 l 69 0 l 69 953 m -19 1175 l 335 1175 l 335 1054 l -19 1054 l -19 1175 z "},"Į":{"ha":317,"x_min":17,"x_max":247,"o":"m 219 0 q 160 -56 182 -25 q 138 -115 138 -87 q 157 -153 138 -139 q 217 -168 176 -168 l 247 -168 l 247 -246 q 156 -261 197 -261 q 53 -228 89 -261 q 17 -147 17 -196 q 40 -70 17 -110 q 110 0 64 -31 l 69 0 l 69 953 l 247 953 l 247 0 l 219 0 z "},"Ĩ":{"ha":317,"x_min":-53,"x_max":369,"o":"m 69 953 l 247 953 l 247 0 l 69 0 l 69 953 m -53 1038 q -22 1144 -53 1097 q 71 1190 10 1190 q 108 1185 90 1190 q 157 1167 125 1179 q 201 1150 183 1156 q 238 1144 219 1144 q 288 1190 281 1144 l 369 1190 q 338 1084 369 1131 q 246 1038 307 1038 q 209 1043 226 1038 q 160 1061 192 1049 q 115 1078 133 1072 q 79 1083 97 1083 q 29 1038 36 1083 l -53 1038 z "},"J":{"ha":633,"x_min":13,"x_max":550,"o":"m 282 -17 q 83 46 153 -17 q 13 226 13 108 l 13 300 l 189 300 l 189 240 q 213 163 189 190 q 282 136 236 136 q 349 163 326 136 q 372 240 372 190 l 372 953 l 550 953 l 550 226 q 481 46 550 108 q 282 -17 411 -17 z "},"Ĵ":{"ha":633,"x_min":13,"x_max":650,"o":"m 282 -17 q 83 46 153 -17 q 13 226 13 108 l 13 300 l 189 300 l 189 240 q 213 163 189 190 q 282 136 236 136 q 349 163 326 136 q 372 240 372 190 l 372 953 l 550 953 l 550 226 q 481 46 550 108 q 282 -17 411 -17 m 396 1185 l 532 1185 l 650 1039 l 525 1039 l 464 1093 l 401 1039 l 276 1039 l 396 1185 z "},"K":{"ha":822,"x_min":83,"x_max":818,"o":"m 83 953 l 263 953 l 263 465 l 611 953 l 810 953 l 528 565 l 818 0 l 618 0 l 411 425 l 263 243 l 263 0 l 83 0 l 83 953 z "},"Ķ":{"ha":822,"x_min":83,"x_max":818,"o":"m 83 953 l 263 953 l 263 465 l 611 953 l 810 953 l 528 565 l 818 0 l 618 0 l 411 425 l 263 243 l 263 0 l 83 0 l 83 953 m 393 -247 l 325 -247 l 325 -93 l 503 -93 l 503 -232 l 439 -365 l 349 -365 l 393 -247 z "},"L":{"ha":696,"x_min":83,"x_max":664,"o":"m 83 953 l 261 953 l 261 167 l 664 167 l 664 0 l 83 0 l 83 953 z "},"Ǉ":{"ha":1260,"x_min":83,"x_max":1176,"o":"m 83 953 l 261 953 l 261 167 l 594 167 l 594 0 l 83 0 l 83 953 m 908 -17 q 709 46 779 -17 q 639 226 639 108 l 639 300 l 815 300 l 815 240 q 839 163 815 190 q 908 136 863 136 q 976 163 953 136 q 999 240 999 190 l 999 953 l 1176 953 l 1176 226 q 1107 46 1176 108 q 908 -17 1038 -17 z "},"Ĺ":{"ha":696,"x_min":68,"x_max":664,"o":"m 83 953 l 261 953 l 261 167 l 664 167 l 664 0 l 83 0 l 83 953 m 160 1185 l 340 1185 l 342 1181 l 219 1043 l 68 1043 l 160 1185 z "},"Ľ":{"ha":696,"x_min":83,"x_max":664,"o":"m 83 953 l 261 953 l 261 167 l 664 167 l 664 0 l 83 0 l 83 953 m 457 1004 l 593 1004 l 501 758 l 401 758 l 457 1004 z "},"Ļ":{"ha":696,"x_min":83,"x_max":664,"o":"m 83 953 l 261 953 l 261 167 l 664 167 l 664 0 l 83 0 l 83 953 m 329 -247 l 261 -247 l 261 -93 l 439 -93 l 439 -232 l 375 -365 l 285 -365 l 329 -247 z "},"Ŀ":{"ha":696,"x_min":83,"x_max":664,"o":"m 83 953 l 261 953 l 261 167 l 664 167 l 664 0 l 83 0 l 83 953 m 432 588 l 610 588 l 610 414 l 432 414 l 432 588 z "},"ǈ":{"ha":1013,"x_min":83,"x_max":938,"o":"m 83 953 l 261 953 l 261 167 l 664 167 l 664 0 l 83 0 l 83 953 m 768 -253 q 703 -248 739 -253 q 644 -236 668 -243 l 644 -112 l 706 -112 q 771 -46 771 -112 l 771 731 l 938 731 l 938 -57 q 899 -197 938 -142 q 768 -253 860 -253 m 769 1004 l 938 1004 l 938 844 l 769 844 l 769 1004 z "},"Ł":{"ha":696,"x_min":0,"x_max":664,"o":"m 83 288 l 0 214 l 0 346 l 83 419 l 83 953 l 261 953 l 261 578 l 457 753 l 457 618 l 261 444 l 261 167 l 664 167 l 664 0 l 83 0 l 83 288 z "},"M":{"ha":949,"x_min":74,"x_max":875,"o":"m 74 953 l 324 953 l 442 428 q 479 213 454 368 l 485 213 q 517 428 504 375 l 633 953 l 875 953 l 875 0 l 711 0 l 711 607 q 718 760 711 647 l 713 760 l 679 610 l 546 0 l 392 0 l 257 613 l 224 760 l 218 760 q 225 607 225 643 l 225 0 l 74 0 l 74 953 z "},"N":{"ha":822,"x_min":83,"x_max":739,"o":"m 83 953 l 240 953 l 535 428 q 578 339 549 406 l 582 343 l 581 422 l 581 953 l 739 953 l 739 0 l 581 0 l 286 525 q 243 614 275 543 l 238 610 l 240 531 l 240 0 l 83 0 l 83 953 z "},"Ǌ":{"ha":1456,"x_min":83,"x_max":1372,"o":"m 83 953 l 240 953 l 535 428 q 578 339 549 406 l 582 343 l 581 422 l 581 953 l 739 953 l 739 0 l 581 0 l 286 525 q 243 614 275 543 l 238 610 l 240 531 l 240 0 l 83 0 l 83 953 m 1104 -17 q 905 46 975 -17 q 835 226 835 108 l 835 300 l 1011 300 l 1011 240 q 1035 163 1011 190 q 1104 136 1058 136 q 1172 163 1149 136 q 1194 240 1194 190 l 1194 953 l 1372 953 l 1372 226 q 1303 46 1372 108 q 1104 -17 1233 -17 z "},"Ń":{"ha":822,"x_min":83,"x_max":739,"o":"m 83 953 l 240 953 l 535 428 q 578 339 549 406 l 582 343 l 581 422 l 581 953 l 739 953 l 739 0 l 581 0 l 286 525 q 243 614 275 543 l 238 610 l 240 531 l 240 0 l 83 0 l 83 953 m 400 1185 l 581 1185 l 582 1181 l 460 1043 l 308 1043 l 400 1185 z "},"Ň":{"ha":822,"x_min":83,"x_max":739,"o":"m 83 953 l 240 953 l 535 428 q 578 339 549 406 l 582 343 l 581 422 l 581 953 l 739 953 l 739 0 l 581 0 l 286 525 q 243 614 275 543 l 238 610 l 240 531 l 240 0 l 83 0 l 83 953 m 224 1185 l 349 1185 l 411 1131 l 472 1185 l 597 1185 l 479 1039 l 343 1039 l 224 1185 z "},"Ņ":{"ha":822,"x_min":83,"x_max":739,"o":"m 83 953 l 240 953 l 535 428 q 578 339 549 406 l 582 343 l 581 422 l 581 953 l 739 953 l 739 0 l 581 0 l 286 525 q 243 614 275 543 l 238 610 l 240 531 l 240 0 l 83 0 l 83 953 m 393 -247 l 325 -247 l 325 -93 l 503 -93 l 503 -232 l 439 -365 l 349 -365 l 393 -247 z "},"Ŋ":{"ha":822,"x_min":83,"x_max":739,"o":"m 569 -253 q 506 -248 540 -253 q 449 -236 472 -243 l 449 -112 l 511 -112 q 576 -46 576 -112 l 576 0 l 286 525 q 243 614 275 543 l 238 610 l 240 531 l 240 0 l 83 0 l 83 953 l 240 953 l 535 428 q 578 339 549 406 l 582 343 l 581 422 l 581 953 l 739 953 l 739 -57 q 700 -197 739 -142 q 569 -253 661 -253 z "},"Ɲ":{"ha":822,"x_min":-47,"x_max":739,"o":"m 71 -253 q 8 -247 42 -253 q -47 -232 -26 -240 l -47 -118 l 21 -118 q 67 -102 51 -118 q 83 -56 83 -86 l 83 953 l 240 953 l 535 428 q 578 339 544 414 l 583 340 q 581 422 581 368 l 581 953 l 739 953 l 739 0 l 581 0 l 286 525 q 256 589 272 550 l 243 614 l 238 610 l 240 531 l 240 -81 q 199 -204 240 -156 q 71 -253 158 -253 z "},"ǋ":{"ha":1139,"x_min":83,"x_max":1064,"o":"m 83 953 l 240 953 l 535 428 q 578 339 549 406 l 582 343 l 581 422 l 581 953 l 739 953 l 739 0 l 581 0 l 286 525 q 243 614 275 543 l 238 610 l 240 531 l 240 0 l 83 0 l 83 953 m 894 -253 q 830 -248 865 -253 q 771 -236 794 -243 l 771 -112 l 832 -112 q 897 -46 897 -112 l 897 731 l 1064 731 l 1064 -57 q 1025 -197 1064 -142 q 894 -253 986 -253 m 896 1004 l 1064 1004 l 1064 844 l 896 844 l 896 1004 z "},"Ñ":{"ha":822,"x_min":83,"x_max":739,"o":"m 83 953 l 240 953 l 535 428 q 578 339 549 406 l 582 343 l 581 422 l 581 953 l 739 953 l 739 0 l 581 0 l 286 525 q 243 614 275 543 l 238 610 l 240 531 l 240 0 l 83 0 l 83 953 m 200 1038 q 231 1144 200 1097 q 324 1190 263 1190 q 360 1185 343 1190 q 410 1167 378 1179 q 454 1150 436 1156 q 490 1144 472 1144 q 540 1190 533 1144 l 622 1190 q 591 1084 622 1131 q 499 1038 560 1038 q 462 1043 479 1038 q 413 1061 444 1049 q 368 1078 386 1072 q 332 1083 350 1083 q 282 1038 289 1083 l 200 1038 z "},"O":{"ha":886,"x_min":47,"x_max":839,"o":"m 443 -17 q 151 106 254 -17 q 47 476 47 229 q 151 847 47 724 q 443 969 254 969 q 735 847 632 969 q 839 476 839 724 q 735 106 839 229 q 443 -17 632 -17 m 443 136 q 601 216 547 136 q 656 442 656 296 l 656 511 q 601 737 656 657 q 443 817 547 817 q 285 737 339 817 q 231 511 231 657 l 231 442 q 285 216 231 296 q 443 136 339 136 z "},"Ó":{"ha":886,"x_min":47,"x_max":839,"o":"m 443 -17 q 151 106 254 -17 q 47 476 47 229 q 151 847 47 724 q 443 969 254 969 q 735 847 632 969 q 839 476 839 724 q 735 106 839 229 q 443 -17 632 -17 m 443 136 q 601 216 547 136 q 656 442 656 296 l 656 511 q 601 737 656 657 q 443 817 547 817 q 285 737 339 817 q 231 511 231 657 l 231 442 q 285 216 231 296 q 443 136 339 136 m 432 1185 l 613 1185 l 614 1181 l 492 1043 l 340 1043 l 432 1185 z "},"Ŏ":{"ha":886,"x_min":47,"x_max":839,"o":"m 443 -17 q 151 106 254 -17 q 47 476 47 229 q 151 847 47 724 q 443 969 254 969 q 735 847 632 969 q 839 476 839 724 q 735 106 839 229 q 443 -17 632 -17 m 443 136 q 601 216 547 136 q 656 442 656 296 l 656 511 q 601 737 656 657 q 443 817 547 817 q 285 737 339 817 q 231 511 231 657 l 231 442 q 285 216 231 296 q 443 136 339 136 m 442 1022 q 345 1044 388 1022 q 280 1101 303 1067 q 257 1171 257 1135 l 360 1171 q 387 1140 364 1154 q 442 1125 410 1125 q 499 1140 475 1125 q 525 1171 522 1154 l 628 1171 q 605 1101 628 1135 q 540 1044 582 1067 q 442 1022 497 1022 z "},"Ǒ":{"ha":886,"x_min":47,"x_max":839,"o":"m 443 -17 q 151 106 254 -17 q 47 476 47 229 q 151 847 47 724 q 443 969 254 969 q 735 847 632 969 q 839 476 839 724 q 735 106 839 229 q 443 -17 632 -17 m 443 136 q 601 216 547 136 q 656 442 656 296 l 656 511 q 601 737 656 657 q 443 817 547 817 q 285 737 339 817 q 231 511 231 657 l 231 442 q 285 216 231 296 q 443 136 339 136 m 256 1185 l 381 1185 l 443 1131 l 504 1185 l 629 1185 l 511 1039 l 375 1039 l 256 1185 z "},"Ô":{"ha":886,"x_min":47,"x_max":839,"o":"m 443 -17 q 151 106 254 -17 q 47 476 47 229 q 151 847 47 724 q 443 969 254 969 q 735 847 632 969 q 839 476 839 724 q 735 106 839 229 q 443 -17 632 -17 m 443 136 q 601 216 547 136 q 656 442 656 296 l 656 511 q 601 737 656 657 q 443 817 547 817 q 285 737 339 817 q 231 511 231 657 l 231 442 q 285 216 231 296 q 443 136 339 136 m 375 1185 l 511 1185 l 629 1039 l 504 1039 l 443 1093 l 381 1039 l 256 1039 l 375 1185 z "},"Ố":{"ha":886,"x_min":47,"x_max":839,"o":"m 443 -17 q 151 106 254 -17 q 47 476 47 229 q 151 847 47 724 q 443 969 254 969 q 735 847 632 969 q 839 476 839 724 q 735 106 839 229 q 443 -17 632 -17 m 443 136 q 601 216 547 136 q 656 442 656 296 l 656 511 q 601 737 656 657 q 443 817 547 817 q 285 737 339 817 q 231 511 231 657 l 231 442 q 285 216 231 296 q 443 136 339 136 m 375 1185 l 511 1185 l 629 1039 l 504 1039 l 443 1093 l 381 1039 l 256 1039 l 375 1185 m 432 1379 l 613 1379 l 614 1375 l 492 1238 l 340 1238 l 432 1379 z "},"Ộ":{"ha":886,"x_min":47,"x_max":839,"o":"m 443 -17 q 151 106 254 -17 q 47 476 47 229 q 151 847 47 724 q 443 969 254 969 q 735 847 632 969 q 839 476 839 724 q 735 106 839 229 q 443 -17 632 -17 m 443 136 q 601 216 547 136 q 656 442 656 296 l 656 511 q 601 737 656 657 q 443 817 547 817 q 285 737 339 817 q 231 511 231 657 l 231 442 q 285 216 231 296 q 443 136 339 136 m 375 1185 l 511 1185 l 629 1039 l 504 1039 l 443 1093 l 381 1039 l 256 1039 l 375 1185 m 354 -93 l 531 -93 l 531 -253 l 354 -253 l 354 -93 z "},"Ồ":{"ha":886,"x_min":47,"x_max":839,"o":"m 443 -17 q 151 106 254 -17 q 47 476 47 229 q 151 847 47 724 q 443 969 254 969 q 735 847 632 969 q 839 476 839 724 q 735 106 839 229 q 443 -17 632 -17 m 443 136 q 601 216 547 136 q 656 442 656 296 l 656 511 q 601 737 656 657 q 443 817 547 817 q 285 737 339 817 q 231 511 231 657 l 231 442 q 285 216 231 296 q 443 136 339 136 m 375 1185 l 511 1185 l 629 1039 l 504 1039 l 443 1093 l 381 1039 l 256 1039 l 375 1185 m 251 1375 l 253 1379 l 419 1379 l 539 1238 l 401 1238 l 251 1375 z "},"Ổ":{"ha":886,"x_min":47,"x_max":839,"o":"m 443 -17 q 151 106 254 -17 q 47 476 47 229 q 151 847 47 724 q 443 969 254 969 q 735 847 632 969 q 839 476 839 724 q 735 106 839 229 q 443 -17 632 -17 m 443 136 q 601 216 547 136 q 656 442 656 296 l 656 511 q 601 737 656 657 q 443 817 547 817 q 285 737 339 817 q 231 511 231 657 l 231 442 q 285 216 231 296 q 443 136 339 136 m 375 1185 l 511 1185 l 629 1039 l 504 1039 l 443 1093 l 381 1039 l 256 1039 l 375 1185 m 397 1301 l 417 1301 q 450 1308 440 1301 q 460 1328 460 1314 q 448 1349 460 1343 q 413 1354 436 1354 l 346 1354 l 346 1413 q 442 1424 390 1424 q 537 1405 496 1424 q 578 1339 578 1386 q 552 1282 578 1301 q 486 1260 526 1263 l 486 1231 l 397 1231 l 397 1301 z "},"Ỗ":{"ha":886,"x_min":47,"x_max":839,"o":"m 443 -17 q 151 106 254 -17 q 47 476 47 229 q 151 847 47 724 q 443 969 254 969 q 735 847 632 969 q 839 476 839 724 q 735 106 839 229 q 443 -17 632 -17 m 443 136 q 601 216 547 136 q 656 442 656 296 l 656 511 q 601 737 656 657 q 443 817 547 817 q 285 737 339 817 q 231 511 231 657 l 231 442 q 285 216 231 296 q 443 136 339 136 m 375 1185 l 511 1185 l 629 1039 l 504 1039 l 443 1093 l 381 1039 l 256 1039 l 375 1185 m 232 1232 q 263 1338 232 1292 q 356 1385 294 1385 q 392 1379 375 1385 q 442 1361 410 1374 q 486 1344 468 1350 q 522 1339 504 1339 q 572 1385 565 1339 l 654 1385 q 623 1278 654 1325 q 531 1232 592 1232 q 494 1238 511 1232 q 444 1256 476 1243 q 400 1272 418 1267 q 364 1278 382 1278 q 314 1232 321 1278 l 232 1232 z "},"Ȍ":{"ha":886,"x_min":47,"x_max":839,"o":"m 443 -17 q 151 106 254 -17 q 47 476 47 229 q 151 847 47 724 q 443 969 254 969 q 735 847 632 969 q 839 476 839 724 q 735 106 839 229 q 443 -17 632 -17 m 443 136 q 601 216 547 136 q 656 442 656 296 l 656 511 q 601 737 656 657 q 443 817 547 817 q 285 737 339 817 q 231 511 231 657 l 231 442 q 285 216 231 296 q 443 136 339 136 m 183 1181 l 185 1185 l 324 1185 l 410 1043 l 300 1043 l 183 1181 m 378 1181 l 379 1185 l 518 1185 l 604 1043 l 494 1043 l 378 1181 z "},"Ö":{"ha":886,"x_min":47,"x_max":839,"o":"m 443 -17 q 151 106 254 -17 q 47 476 47 229 q 151 847 47 724 q 443 969 254 969 q 735 847 632 969 q 839 476 839 724 q 735 106 839 229 q 443 -17 632 -17 m 443 136 q 601 216 547 136 q 656 442 656 296 l 656 511 q 601 737 656 657 q 443 817 547 817 q 285 737 339 817 q 231 511 231 657 l 231 442 q 285 216 231 296 q 443 136 339 136 m 251 1226 l 390 1226 l 390 1075 l 251 1075 l 251 1226 m 494 1226 l 633 1226 l 633 1075 l 494 1075 l 494 1226 z "},"Ȫ":{"ha":886,"x_min":47,"x_max":839,"o":"m 443 -17 q 151 106 254 -17 q 47 476 47 229 q 151 847 47 724 q 443 969 254 969 q 735 847 632 969 q 839 476 839 724 q 735 106 839 229 q 443 -17 632 -17 m 443 136 q 601 216 547 136 q 656 442 656 296 l 656 511 q 601 737 656 657 q 443 817 547 817 q 285 737 339 817 q 231 511 231 657 l 231 442 q 285 216 231 296 q 443 136 339 136 m 251 1226 l 390 1226 l 390 1075 l 251 1075 l 251 1226 m 494 1226 l 633 1226 l 633 1075 l 494 1075 l 494 1226 m 265 1449 l 619 1449 l 619 1328 l 265 1328 l 265 1449 z "},"Ȱ":{"ha":886,"x_min":47,"x_max":839,"o":"m 443 -17 q 151 106 254 -17 q 47 476 47 229 q 151 847 47 724 q 443 969 254 969 q 735 847 632 969 q 839 476 839 724 q 735 106 839 229 q 443 -17 632 -17 m 443 136 q 601 216 547 136 q 656 442 656 296 l 656 511 q 601 737 656 657 q 443 817 547 817 q 285 737 339 817 q 231 511 231 657 l 231 442 q 285 216 231 296 q 443 136 339 136 m 354 1226 l 532 1226 l 532 1067 l 354 1067 l 354 1226 m 265 1449 l 619 1449 l 619 1328 l 265 1328 l 265 1449 z "},"Ọ":{"ha":886,"x_min":47,"x_max":839,"o":"m 443 -17 q 151 106 254 -17 q 47 476 47 229 q 151 847 47 724 q 443 969 254 969 q 735 847 632 969 q 839 476 839 724 q 735 106 839 229 q 443 -17 632 -17 m 443 136 q 601 216 547 136 q 656 442 656 296 l 656 511 q 601 737 656 657 q 443 817 547 817 q 285 737 339 817 q 231 511 231 657 l 231 442 q 285 216 231 296 q 443 136 339 136 m 354 -93 l 531 -93 l 531 -253 l 354 -253 l 354 -93 z "},"Ò":{"ha":886,"x_min":47,"x_max":839,"o":"m 443 -17 q 151 106 254 -17 q 47 476 47 229 q 151 847 47 724 q 443 969 254 969 q 735 847 632 969 q 839 476 839 724 q 735 106 839 229 q 443 -17 632 -17 m 443 136 q 601 216 547 136 q 656 442 656 296 l 656 511 q 601 737 656 657 q 443 817 547 817 q 285 737 339 817 q 231 511 231 657 l 231 442 q 285 216 231 296 q 443 136 339 136 m 251 1181 l 253 1185 l 419 1185 l 539 1043 l 401 1043 l 251 1181 z "},"Ỏ":{"ha":886,"x_min":47,"x_max":839,"o":"m 443 -17 q 151 106 254 -17 q 47 476 47 229 q 151 847 47 724 q 443 969 254 969 q 735 847 632 969 q 839 476 839 724 q 735 106 839 229 q 443 -17 632 -17 m 443 136 q 601 216 547 136 q 656 442 656 296 l 656 511 q 601 737 656 657 q 443 817 547 817 q 285 737 339 817 q 231 511 231 657 l 231 442 q 285 216 231 296 q 443 136 339 136 m 397 1107 l 417 1107 q 450 1113 440 1107 q 460 1133 460 1119 q 448 1154 460 1149 q 413 1160 436 1160 l 346 1160 l 346 1218 q 442 1229 390 1229 q 537 1210 496 1229 q 578 1144 578 1192 q 552 1088 578 1107 q 486 1065 526 1068 l 486 1036 l 397 1036 l 397 1107 z "},"Ơ":{"ha":886,"x_min":47,"x_max":858,"o":"m 858 1026 q 822 916 858 960 q 724 860 786 872 q 839 476 839 733 q 735 106 839 229 q 443 -17 632 -17 q 151 106 254 -17 q 47 476 47 229 q 151 847 47 724 q 443 969 254 969 q 571 953 513 969 l 650 953 q 703 970 688 953 q 719 1026 719 988 l 719 1139 l 858 1139 l 858 1026 m 656 511 q 601 737 656 657 q 443 817 547 817 q 285 737 339 817 q 231 511 231 657 l 231 442 q 285 216 231 296 q 443 136 339 136 q 601 216 547 136 q 656 442 656 296 l 656 511 z "},"Ớ":{"ha":886,"x_min":47,"x_max":858,"o":"m 858 1026 q 822 916 858 960 q 724 860 786 872 q 839 476 839 733 q 735 106 839 229 q 443 -17 632 -17 q 151 106 254 -17 q 47 476 47 229 q 151 847 47 724 q 443 969 254 969 q 571 953 513 969 l 650 953 q 703 970 688 953 q 719 1026 719 988 l 719 1139 l 858 1139 l 858 1026 m 656 511 q 601 737 656 657 q 443 817 547 817 q 285 737 339 817 q 231 511 231 657 l 231 442 q 285 216 231 296 q 443 136 339 136 q 601 216 547 136 q 656 442 656 296 l 656 511 m 432 1185 l 613 1185 l 614 1181 l 492 1043 l 340 1043 l 432 1185 z "},"Ợ":{"ha":886,"x_min":47,"x_max":858,"o":"m 858 1026 q 822 916 858 960 q 724 860 786 872 q 839 476 839 733 q 735 106 839 229 q 443 -17 632 -17 q 151 106 254 -17 q 47 476 47 229 q 151 847 47 724 q 443 969 254 969 q 571 953 513 969 l 650 953 q 703 970 688 953 q 719 1026 719 988 l 719 1139 l 858 1139 l 858 1026 m 656 511 q 601 737 656 657 q 443 817 547 817 q 285 737 339 817 q 231 511 231 657 l 231 442 q 285 216 231 296 q 443 136 339 136 q 601 216 547 136 q 656 442 656 296 l 656 511 m 354 -93 l 531 -93 l 531 -253 l 354 -253 l 354 -93 z "},"Ờ":{"ha":886,"x_min":47,"x_max":858,"o":"m 858 1026 q 822 916 858 960 q 724 860 786 872 q 839 476 839 733 q 735 106 839 229 q 443 -17 632 -17 q 151 106 254 -17 q 47 476 47 229 q 151 847 47 724 q 443 969 254 969 q 571 953 513 969 l 650 953 q 703 970 688 953 q 719 1026 719 988 l 719 1139 l 858 1139 l 858 1026 m 656 511 q 601 737 656 657 q 443 817 547 817 q 285 737 339 817 q 231 511 231 657 l 231 442 q 285 216 231 296 q 443 136 339 136 q 601 216 547 136 q 656 442 656 296 l 656 511 m 251 1181 l 253 1185 l 419 1185 l 539 1043 l 401 1043 l 251 1181 z "},"Ở":{"ha":886,"x_min":47,"x_max":858,"o":"m 858 1026 q 822 916 858 960 q 724 860 786 872 q 839 476 839 733 q 735 106 839 229 q 443 -17 632 -17 q 151 106 254 -17 q 47 476 47 229 q 151 847 47 724 q 443 969 254 969 q 571 953 513 969 l 650 953 q 703 970 688 953 q 719 1026 719 988 l 719 1139 l 858 1139 l 858 1026 m 656 511 q 601 737 656 657 q 443 817 547 817 q 285 737 339 817 q 231 511 231 657 l 231 442 q 285 216 231 296 q 443 136 339 136 q 601 216 547 136 q 656 442 656 296 l 656 511 m 397 1107 l 417 1107 q 450 1113 440 1107 q 460 1133 460 1119 q 448 1154 460 1149 q 413 1160 436 1160 l 346 1160 l 346 1218 q 442 1229 390 1229 q 537 1210 496 1229 q 578 1144 578 1192 q 552 1088 578 1107 q 486 1065 526 1068 l 486 1036 l 397 1036 l 397 1107 z "},"Ỡ":{"ha":886,"x_min":47,"x_max":858,"o":"m 858 1026 q 822 916 858 960 q 724 860 786 872 q 839 476 839 733 q 735 106 839 229 q 443 -17 632 -17 q 151 106 254 -17 q 47 476 47 229 q 151 847 47 724 q 443 969 254 969 q 571 953 513 969 l 650 953 q 703 970 688 953 q 719 1026 719 988 l 719 1139 l 858 1139 l 858 1026 m 656 511 q 601 737 656 657 q 443 817 547 817 q 285 737 339 817 q 231 511 231 657 l 231 442 q 285 216 231 296 q 443 136 339 136 q 601 216 547 136 q 656 442 656 296 l 656 511 m 232 1038 q 263 1144 232 1097 q 356 1190 294 1190 q 392 1185 375 1190 q 442 1167 410 1179 q 486 1150 468 1156 q 522 1144 504 1144 q 572 1190 565 1144 l 654 1190 q 623 1084 654 1131 q 531 1038 592 1038 q 494 1043 511 1038 q 444 1061 476 1049 q 400 1078 418 1072 q 364 1083 382 1083 q 314 1038 321 1083 l 232 1038 z "},"Ő":{"ha":886,"x_min":47,"x_max":839,"o":"m 443 -17 q 151 106 254 -17 q 47 476 47 229 q 151 847 47 724 q 443 969 254 969 q 735 847 632 969 q 839 476 839 724 q 735 106 839 229 q 443 -17 632 -17 m 443 136 q 601 216 547 136 q 656 442 656 296 l 656 511 q 601 737 656 657 q 443 817 547 817 q 285 737 339 817 q 231 511 231 657 l 231 442 q 285 216 231 296 q 443 136 339 136 m 372 1185 l 511 1185 l 513 1181 l 396 1043 l 286 1043 l 372 1185 m 567 1185 l 706 1185 l 707 1181 l 590 1043 l 481 1043 l 567 1185 z "},"Ȏ":{"ha":886,"x_min":47,"x_max":839,"o":"m 443 -17 q 151 106 254 -17 q 47 476 47 229 q 151 847 47 724 q 443 969 254 969 q 735 847 632 969 q 839 476 839 724 q 735 106 839 229 q 443 -17 632 -17 m 443 136 q 601 216 547 136 q 656 442 656 296 l 656 511 q 601 737 656 657 q 443 817 547 817 q 285 737 339 817 q 231 511 231 657 l 231 442 q 285 216 231 296 q 443 136 339 136 m 257 1092 q 280 1162 257 1128 q 345 1218 303 1196 q 442 1240 388 1240 q 540 1218 497 1240 q 605 1162 582 1196 q 628 1092 628 1128 l 525 1092 q 499 1123 522 1108 q 442 1138 475 1138 q 387 1123 410 1138 q 360 1092 364 1108 l 257 1092 z "},"Ō":{"ha":886,"x_min":47,"x_max":839,"o":"m 443 -17 q 151 106 254 -17 q 47 476 47 229 q 151 847 47 724 q 443 969 254 969 q 735 847 632 969 q 839 476 839 724 q 735 106 839 229 q 443 -17 632 -17 m 443 136 q 601 216 547 136 q 656 442 656 296 l 656 511 q 601 737 656 657 q 443 817 547 817 q 285 737 339 817 q 231 511 231 657 l 231 442 q 285 216 231 296 q 443 136 339 136 m 265 1175 l 619 1175 l 619 1054 l 265 1054 l 265 1175 z "},"Ǫ":{"ha":886,"x_min":47,"x_max":839,"o":"m 485 -15 q 440 -65 457 -37 q 424 -115 424 -92 q 443 -153 424 -139 q 503 -168 463 -168 l 533 -168 l 533 -246 q 442 -261 483 -261 q 339 -228 375 -261 q 303 -147 303 -196 q 322 -77 303 -112 q 378 -12 342 -42 q 133 130 219 8 q 47 476 47 251 q 151 847 47 724 q 443 969 254 969 q 735 847 632 969 q 839 476 839 724 q 747 122 839 244 q 485 -15 654 -1 m 231 442 q 285 216 231 296 q 443 136 339 136 q 601 216 547 136 q 656 442 656 296 l 656 511 q 601 737 656 657 q 443 817 547 817 q 285 737 339 817 q 231 511 231 657 l 231 442 z "},"Ø":{"ha":886,"x_min":47,"x_max":839,"o":"m 735 847 q 839 476 839 721 q 735 106 839 229 q 443 -17 632 -17 q 228 39 317 -17 l 172 -51 l 56 -51 l 153 104 q 47 476 47 229 q 151 847 47 724 q 443 969 254 969 q 658 914 572 969 l 715 1004 l 832 1004 l 735 847 m 231 442 q 257 271 231 338 l 571 772 q 443 817 519 817 q 285 737 339 817 q 231 511 231 657 l 231 442 m 656 511 q 629 681 656 614 l 317 179 q 443 136 368 136 q 601 216 547 136 q 656 442 656 296 l 656 511 z "},"Ǿ":{"ha":886,"x_min":47,"x_max":839,"o":"m 735 847 q 839 476 839 721 q 735 106 839 229 q 443 -17 632 -17 q 228 39 317 -17 l 172 -51 l 56 -51 l 153 104 q 47 476 47 229 q 151 847 47 724 q 443 969 254 969 q 658 914 572 969 l 715 1004 l 832 1004 l 735 847 m 231 442 q 257 271 231 338 l 571 772 q 443 817 519 817 q 285 737 339 817 q 231 511 231 657 l 231 442 m 656 511 q 629 681 656 614 l 317 179 q 443 136 368 136 q 601 216 547 136 q 656 442 656 296 l 656 511 m 432 1185 l 613 1185 l 614 1181 l 492 1043 l 340 1043 l 432 1185 z "},"Õ":{"ha":886,"x_min":47,"x_max":839,"o":"m 443 -17 q 151 106 254 -17 q 47 476 47 229 q 151 847 47 724 q 443 969 254 969 q 735 847 632 969 q 839 476 839 724 q 735 106 839 229 q 443 -17 632 -17 m 443 136 q 601 216 547 136 q 656 442 656 296 l 656 511 q 601 737 656 657 q 443 817 547 817 q 285 737 339 817 q 231 511 231 657 l 231 442 q 285 216 231 296 q 443 136 339 136 m 232 1038 q 263 1144 232 1097 q 356 1190 294 1190 q 392 1185 375 1190 q 442 1167 410 1179 q 486 1150 468 1156 q 522 1144 504 1144 q 572 1190 565 1144 l 654 1190 q 623 1084 654 1131 q 531 1038 592 1038 q 494 1043 511 1038 q 444 1061 476 1049 q 400 1078 418 1072 q 364 1083 382 1083 q 314 1038 321 1083 l 232 1038 z "},"Ȭ":{"ha":886,"x_min":47,"x_max":839,"o":"m 443 -17 q 151 106 254 -17 q 47 476 47 229 q 151 847 47 724 q 443 969 254 969 q 735 847 632 969 q 839 476 839 724 q 735 106 839 229 q 443 -17 632 -17 m 443 136 q 601 216 547 136 q 656 442 656 296 l 656 511 q 601 737 656 657 q 443 817 547 817 q 285 737 339 817 q 231 511 231 657 l 231 442 q 285 216 231 296 q 443 136 339 136 m 232 1038 q 263 1144 232 1097 q 356 1190 294 1190 q 392 1185 375 1190 q 442 1167 410 1179 q 486 1150 468 1156 q 522 1144 504 1144 q 572 1190 565 1144 l 654 1190 q 623 1084 654 1131 q 531 1038 592 1038 q 494 1043 511 1038 q 444 1061 476 1049 q 400 1078 418 1072 q 364 1083 382 1083 q 314 1038 321 1083 l 232 1038 m 265 1397 l 619 1397 l 619 1276 l 265 1276 l 265 1397 z "},"Œ":{"ha":1139,"x_min":42,"x_max":1100,"o":"m 358 -17 q 125 107 208 -17 q 42 476 42 231 q 125 846 42 722 q 358 969 208 969 q 567 867 489 969 l 567 953 l 1090 953 l 1090 794 l 744 794 l 744 567 l 1031 567 l 1031 408 l 744 408 l 744 158 l 1100 158 l 1100 0 l 567 0 l 567 85 q 358 -17 490 -17 m 394 136 q 524 208 482 136 q 565 442 565 281 l 565 511 q 524 744 565 672 q 394 817 482 817 q 267 744 308 817 q 225 511 225 672 l 225 442 q 267 208 225 281 q 394 136 308 136 z "},"P":{"ha":760,"x_min":83,"x_max":722,"o":"m 83 953 l 424 953 q 644 874 567 953 q 722 667 722 794 q 685 510 722 578 q 580 406 647 443 q 424 369 513 369 l 261 369 l 261 0 l 83 0 l 83 953 m 406 526 q 504 563 469 526 q 539 667 539 600 q 503 760 539 725 q 406 794 468 794 l 261 794 l 261 526 l 406 526 z "},"Þ":{"ha":760,"x_min":83,"x_max":722,"o":"m 83 953 l 261 953 l 261 783 l 424 783 q 644 704 567 783 q 722 497 722 625 q 685 341 722 408 q 580 237 647 274 q 424 200 513 200 l 261 200 l 261 0 l 83 0 l 83 953 m 406 357 q 504 394 469 357 q 539 497 539 431 q 503 590 539 556 q 406 625 468 625 l 261 625 l 261 357 l 406 357 z "},"Q":{"ha":886,"x_min":47,"x_max":839,"o":"m 460 -17 l 443 -17 q 151 106 254 -17 q 47 476 47 229 q 151 847 47 724 q 443 969 254 969 q 735 847 632 969 q 839 476 839 724 q 785 188 839 301 q 632 24 732 75 l 815 -172 l 597 -172 l 460 -17 m 443 136 q 601 216 547 136 q 656 442 656 296 l 656 511 q 601 737 656 657 q 443 817 547 817 q 285 737 339 817 q 231 511 231 657 l 231 442 q 285 216 231 296 q 443 136 339 136 z "},"R":{"ha":822,"x_min":83,"x_max":797,"o":"m 83 953 l 482 953 q 698 878 622 953 q 774 681 774 803 q 731 531 774 594 q 614 436 689 467 l 797 0 l 604 0 l 446 397 l 261 397 l 261 0 l 83 0 l 83 953 m 457 554 q 551 587 519 554 q 582 681 582 619 q 553 765 582 735 q 464 794 524 794 l 261 794 l 261 554 l 457 554 z "},"Ŕ":{"ha":822,"x_min":83,"x_max":797,"o":"m 83 953 l 482 953 q 698 878 622 953 q 774 681 774 803 q 731 531 774 594 q 614 436 689 467 l 797 0 l 604 0 l 446 397 l 261 397 l 261 0 l 83 0 l 83 953 m 457 554 q 551 587 519 554 q 582 681 582 619 q 553 765 582 735 q 464 794 524 794 l 261 794 l 261 554 l 457 554 m 379 1185 l 560 1185 l 561 1181 l 439 1043 l 288 1043 l 379 1185 z "},"Ř":{"ha":822,"x_min":83,"x_max":797,"o":"m 83 953 l 482 953 q 698 878 622 953 q 774 681 774 803 q 731 531 774 594 q 614 436 689 467 l 797 0 l 604 0 l 446 397 l 261 397 l 261 0 l 83 0 l 83 953 m 457 554 q 551 587 519 554 q 582 681 582 619 q 553 765 582 735 q 464 794 524 794 l 261 794 l 261 554 l 457 554 m 203 1185 l 328 1185 l 390 1131 l 451 1185 l 576 1185 l 458 1039 l 322 1039 l 203 1185 z "},"Ŗ":{"ha":822,"x_min":83,"x_max":797,"o":"m 83 953 l 482 953 q 698 878 622 953 q 774 681 774 803 q 731 531 774 594 q 614 436 689 467 l 797 0 l 604 0 l 446 397 l 261 397 l 261 0 l 83 0 l 83 953 m 457 554 q 551 587 519 554 q 582 681 582 619 q 553 765 582 735 q 464 794 524 794 l 261 794 l 261 554 l 457 554 m 393 -247 l 325 -247 l 325 -93 l 503 -93 l 503 -232 l 439 -365 l 349 -365 l 393 -247 z "},"Ȑ":{"ha":822,"x_min":83,"x_max":797,"o":"m 83 953 l 482 953 q 698 878 622 953 q 774 681 774 803 q 731 531 774 594 q 614 436 689 467 l 797 0 l 604 0 l 446 397 l 261 397 l 261 0 l 83 0 l 83 953 m 457 554 q 551 587 519 554 q 582 681 582 619 q 553 765 582 735 q 464 794 524 794 l 261 794 l 261 554 l 457 554 m 131 1181 l 132 1185 l 271 1185 l 357 1043 l 247 1043 l 131 1181 m 325 1181 l 326 1185 l 465 1185 l 551 1043 l 442 1043 l 325 1181 z "},"Ȓ":{"ha":822,"x_min":83,"x_max":797,"o":"m 83 953 l 482 953 q 698 878 622 953 q 774 681 774 803 q 731 531 774 594 q 614 436 689 467 l 797 0 l 604 0 l 446 397 l 261 397 l 261 0 l 83 0 l 83 953 m 457 554 q 551 587 519 554 q 582 681 582 619 q 553 765 582 735 q 464 794 524 794 l 261 794 l 261 554 l 457 554 m 204 1092 q 227 1162 204 1128 q 292 1218 250 1196 q 389 1240 335 1240 q 487 1218 444 1240 q 552 1162 529 1196 q 575 1092 575 1128 l 472 1092 q 446 1123 469 1108 q 389 1138 422 1138 q 334 1123 357 1138 q 307 1092 311 1108 l 204 1092 z "},"S":{"ha":760,"x_min":42,"x_max":707,"o":"m 371 -17 q 206 17 281 -17 q 86 118 131 51 q 42 279 42 185 l 43 310 l 228 310 l 226 288 q 267 177 226 218 q 379 136 307 136 q 488 169 453 136 q 524 249 524 201 q 499 326 524 296 q 437 372 474 356 q 333 411 400 389 q 192 467 246 439 q 99 551 138 494 q 61 703 61 608 q 104 849 61 789 q 219 940 147 910 q 379 969 292 969 q 602 899 515 969 q 689 689 689 829 l 689 672 l 507 672 l 507 685 q 472 781 507 746 q 378 817 438 817 q 280 788 315 817 q 244 715 244 760 q 268 651 244 676 q 327 611 292 626 q 425 576 363 596 q 571 520 515 547 q 667 436 626 493 q 707 286 707 379 q 617 56 707 129 q 371 -17 528 -17 z "},"Ś":{"ha":760,"x_min":42,"x_max":707,"o":"m 371 -17 q 206 17 281 -17 q 86 118 131 51 q 42 279 42 185 l 43 310 l 228 310 l 226 288 q 267 177 226 218 q 379 136 307 136 q 488 169 453 136 q 524 249 524 201 q 499 326 524 296 q 437 372 474 356 q 333 411 400 389 q 192 467 246 439 q 99 551 138 494 q 61 703 61 608 q 104 849 61 789 q 219 940 147 910 q 379 969 292 969 q 602 899 515 969 q 689 689 689 829 l 689 672 l 507 672 l 507 685 q 472 781 507 746 q 378 817 438 817 q 280 788 315 817 q 244 715 244 760 q 268 651 244 676 q 327 611 292 626 q 425 576 363 596 q 571 520 515 547 q 667 436 626 493 q 707 286 707 379 q 617 56 707 129 q 371 -17 528 -17 m 368 1185 l 549 1185 l 550 1181 l 428 1043 l 276 1043 l 368 1185 z "},"Š":{"ha":760,"x_min":42,"x_max":707,"o":"m 371 -17 q 206 17 281 -17 q 86 118 131 51 q 42 279 42 185 l 43 310 l 228 310 l 226 288 q 267 177 226 218 q 379 136 307 136 q 488 169 453 136 q 524 249 524 201 q 499 326 524 296 q 437 372 474 356 q 333 411 400 389 q 192 467 246 439 q 99 551 138 494 q 61 703 61 608 q 104 849 61 789 q 219 940 147 910 q 379 969 292 969 q 602 899 515 969 q 689 689 689 829 l 689 672 l 507 672 l 507 685 q 472 781 507 746 q 378 817 438 817 q 280 788 315 817 q 244 715 244 760 q 268 651 244 676 q 327 611 292 626 q 425 576 363 596 q 571 520 515 547 q 667 436 626 493 q 707 286 707 379 q 617 56 707 129 q 371 -17 528 -17 m 192 1185 l 317 1185 l 379 1131 l 440 1185 l 565 1185 l 447 1039 l 311 1039 l 192 1185 z "},"Ş":{"ha":760,"x_min":42,"x_max":707,"o":"m 707 286 q 631 69 707 143 q 421 -15 556 -4 l 417 -46 q 496 -72 465 -49 q 526 -140 526 -96 q 480 -228 526 -203 q 375 -253 433 -253 q 258 -242 311 -253 l 258 -174 l 357 -174 q 394 -166 382 -174 q 407 -140 407 -158 q 397 -115 407 -124 q 360 -107 386 -107 l 314 -107 l 325 -14 q 122 74 201 -1 q 42 279 42 150 l 43 310 l 228 310 l 226 288 q 267 177 226 218 q 379 136 307 136 q 488 169 453 136 q 524 249 524 201 q 499 326 524 296 q 437 372 474 356 q 333 411 400 389 q 192 467 246 439 q 99 551 138 494 q 61 703 61 608 q 104 849 61 789 q 219 940 147 910 q 379 969 292 969 q 602 899 515 969 q 689 689 689 829 l 689 672 l 507 672 l 507 685 q 472 781 507 746 q 378 817 438 817 q 280 788 315 817 q 244 715 244 760 q 268 651 244 676 q 327 611 292 626 q 425 576 363 596 q 571 520 515 547 q 667 436 626 493 q 707 286 707 379 z "},"Ŝ":{"ha":760,"x_min":42,"x_max":707,"o":"m 371 -17 q 206 17 281 -17 q 86 118 131 51 q 42 279 42 185 l 43 310 l 228 310 l 226 288 q 267 177 226 218 q 379 136 307 136 q 488 169 453 136 q 524 249 524 201 q 499 326 524 296 q 437 372 474 356 q 333 411 400 389 q 192 467 246 439 q 99 551 138 494 q 61 703 61 608 q 104 849 61 789 q 219 940 147 910 q 379 969 292 969 q 602 899 515 969 q 689 689 689 829 l 689 672 l 507 672 l 507 685 q 472 781 507 746 q 378 817 438 817 q 280 788 315 817 q 244 715 244 760 q 268 651 244 676 q 327 611 292 626 q 425 576 363 596 q 571 520 515 547 q 667 436 626 493 q 707 286 707 379 q 617 56 707 129 q 371 -17 528 -17 m 311 1185 l 447 1185 l 565 1039 l 440 1039 l 379 1093 l 317 1039 l 192 1039 l 311 1185 z "},"Ș":{"ha":760,"x_min":42,"x_max":707,"o":"m 371 -17 q 206 17 281 -17 q 86 118 131 51 q 42 279 42 185 l 43 310 l 228 310 l 226 288 q 267 177 226 218 q 379 136 307 136 q 488 169 453 136 q 524 249 524 201 q 499 326 524 296 q 437 372 474 356 q 333 411 400 389 q 192 467 246 439 q 99 551 138 494 q 61 703 61 608 q 104 849 61 789 q 219 940 147 910 q 379 969 292 969 q 602 899 515 969 q 689 689 689 829 l 689 672 l 507 672 l 507 685 q 472 781 507 746 q 378 817 438 817 q 280 788 315 817 q 244 715 244 760 q 268 651 244 676 q 327 611 292 626 q 425 576 363 596 q 571 520 515 547 q 667 436 626 493 q 707 286 707 379 q 617 56 707 129 q 371 -17 528 -17 m 361 -247 l 293 -247 l 293 -93 l 471 -93 l 471 -232 l 407 -365 l 317 -365 l 361 -247 z "},"ẞ":{"ha":849,"x_min":69,"x_max":833,"o":"m 69 589 q 164 871 69 772 q 435 969 258 969 q 692 896 599 969 q 786 699 786 822 q 750 567 786 625 q 660 488 714 508 l 660 482 q 788 403 742 461 q 833 260 833 346 q 797 124 833 183 q 692 33 760 65 q 538 0 625 0 l 340 0 l 340 129 l 519 129 q 622 165 586 129 q 657 267 657 200 q 608 369 657 331 q 464 407 560 407 l 340 407 l 340 536 l 460 536 q 571 575 533 536 q 608 686 608 614 q 563 787 608 751 q 433 822 518 822 q 292 762 342 822 q 243 589 243 701 l 243 0 l 69 0 l 69 589 z "},"Ə":{"ha":833,"x_min":69,"x_max":786,"o":"m 424 -17 q 156 103 243 -17 q 69 476 69 224 l 69 531 l 604 531 q 558 753 601 686 q 417 819 514 819 q 285 766 331 819 q 239 614 239 713 l 69 614 q 113 801 69 721 q 234 926 156 882 q 417 969 313 969 q 696 849 606 969 q 786 476 786 728 q 697 103 786 224 q 424 -17 608 -17 m 424 133 q 558 199 513 133 q 601 388 604 265 l 247 388 q 424 133 247 133 z "},"T":{"ha":696,"x_min":24,"x_max":674,"o":"m 260 794 l 24 794 l 24 953 l 674 953 l 674 794 l 438 794 l 438 0 l 260 0 l 260 794 z "},"Ŧ":{"ha":696,"x_min":24,"x_max":674,"o":"m 260 425 l 96 425 l 96 546 l 260 546 l 260 794 l 24 794 l 24 953 l 674 953 l 674 794 l 438 794 l 438 546 l 601 546 l 601 425 l 438 425 l 438 0 l 260 0 l 260 425 z "},"Ť":{"ha":696,"x_min":24,"x_max":674,"o":"m 260 794 l 24 794 l 24 953 l 674 953 l 674 794 l 438 794 l 438 0 l 260 0 l 260 794 m 160 1185 l 285 1185 l 347 1131 l 408 1185 l 533 1185 l 415 1039 l 279 1039 l 160 1185 z "},"Ţ":{"ha":696,"x_min":24,"x_max":674,"o":"m 393 0 l 388 -46 q 467 -72 436 -49 q 497 -140 497 -96 q 451 -228 497 -203 q 346 -253 404 -253 q 229 -242 282 -253 l 229 -174 l 328 -174 q 365 -166 353 -174 q 378 -140 378 -158 q 367 -115 378 -124 q 331 -107 357 -107 l 285 -107 l 299 0 l 260 0 l 260 794 l 24 794 l 24 953 l 674 953 l 674 794 l 438 794 l 438 0 l 393 0 z "},"Ț":{"ha":696,"x_min":24,"x_max":674,"o":"m 260 794 l 24 794 l 24 953 l 674 953 l 674 794 l 438 794 l 438 0 l 260 0 l 260 794 m 332 -247 l 264 -247 l 264 -93 l 442 -93 l 442 -232 l 378 -365 l 288 -365 l 332 -247 z "},"U":{"ha":822,"x_min":85,"x_max":739,"o":"m 411 -17 q 170 65 256 -17 q 85 299 85 146 l 85 953 l 263 953 l 263 304 q 301 179 263 222 q 411 136 340 136 q 522 179 482 136 q 561 304 561 222 l 561 953 l 739 953 l 739 299 q 653 65 739 146 q 411 -17 567 -17 z "},"Ú":{"ha":822,"x_min":85,"x_max":739,"o":"m 411 -17 q 170 65 256 -17 q 85 299 85 146 l 85 953 l 263 953 l 263 304 q 301 179 263 222 q 411 136 340 136 q 522 179 482 136 q 561 304 561 222 l 561 953 l 739 953 l 739 299 q 653 65 739 146 q 411 -17 567 -17 m 400 1185 l 581 1185 l 582 1181 l 460 1043 l 308 1043 l 400 1185 z "},"Ŭ":{"ha":822,"x_min":85,"x_max":739,"o":"m 411 -17 q 170 65 256 -17 q 85 299 85 146 l 85 953 l 263 953 l 263 304 q 301 179 263 222 q 411 136 340 136 q 522 179 482 136 q 561 304 561 222 l 561 953 l 739 953 l 739 299 q 653 65 739 146 q 411 -17 567 -17 m 410 1022 q 313 1044 356 1022 q 248 1101 271 1067 q 225 1171 225 1135 l 328 1171 q 355 1140 332 1154 q 410 1125 378 1125 q 467 1140 443 1125 q 493 1171 490 1154 l 596 1171 q 573 1101 596 1135 q 508 1044 550 1067 q 410 1022 465 1022 z "},"Ǔ":{"ha":822,"x_min":85,"x_max":739,"o":"m 411 -17 q 170 65 256 -17 q 85 299 85 146 l 85 953 l 263 953 l 263 304 q 301 179 263 222 q 411 136 340 136 q 522 179 482 136 q 561 304 561 222 l 561 953 l 739 953 l 739 299 q 653 65 739 146 q 411 -17 567 -17 m 224 1185 l 349 1185 l 411 1131 l 472 1185 l 597 1185 l 479 1039 l 343 1039 l 224 1185 z "},"Û":{"ha":822,"x_min":85,"x_max":739,"o":"m 411 -17 q 170 65 256 -17 q 85 299 85 146 l 85 953 l 263 953 l 263 304 q 301 179 263 222 q 411 136 340 136 q 522 179 482 136 q 561 304 561 222 l 561 953 l 739 953 l 739 299 q 653 65 739 146 q 411 -17 567 -17 m 343 1185 l 479 1185 l 597 1039 l 472 1039 l 411 1093 l 349 1039 l 224 1039 l 343 1185 z "},"Ȕ":{"ha":822,"x_min":85,"x_max":739,"o":"m 411 -17 q 170 65 256 -17 q 85 299 85 146 l 85 953 l 263 953 l 263 304 q 301 179 263 222 q 411 136 340 136 q 522 179 482 136 q 561 304 561 222 l 561 953 l 739 953 l 739 299 q 653 65 739 146 q 411 -17 567 -17 m 151 1181 l 153 1185 l 292 1185 l 378 1043 l 268 1043 l 151 1181 m 346 1181 l 347 1185 l 486 1185 l 572 1043 l 463 1043 l 346 1181 z "},"Ü":{"ha":822,"x_min":85,"x_max":739,"o":"m 411 -17 q 170 65 256 -17 q 85 299 85 146 l 85 953 l 263 953 l 263 304 q 301 179 263 222 q 411 136 340 136 q 522 179 482 136 q 561 304 561 222 l 561 953 l 739 953 l 739 299 q 653 65 739 146 q 411 -17 567 -17 m 219 1226 l 358 1226 l 358 1075 l 219 1075 l 219 1226 m 463 1226 l 601 1226 l 601 1075 l 463 1075 l 463 1226 z "},"Ǘ":{"ha":822,"x_min":85,"x_max":739,"o":"m 411 -17 q 170 65 256 -17 q 85 299 85 146 l 85 953 l 263 953 l 263 304 q 301 179 263 222 q 411 136 340 136 q 522 179 482 136 q 561 304 561 222 l 561 953 l 739 953 l 739 299 q 653 65 739 146 q 411 -17 567 -17 m 219 1226 l 358 1226 l 358 1075 l 219 1075 l 219 1226 m 463 1226 l 601 1226 l 601 1075 l 463 1075 l 463 1226 m 400 1458 l 581 1458 l 582 1454 l 460 1317 l 308 1317 l 400 1458 z "},"Ǚ":{"ha":822,"x_min":85,"x_max":739,"o":"m 411 -17 q 170 65 256 -17 q 85 299 85 146 l 85 953 l 263 953 l 263 304 q 301 179 263 222 q 411 136 340 136 q 522 179 482 136 q 561 304 561 222 l 561 953 l 739 953 l 739 299 q 653 65 739 146 q 411 -17 567 -17 m 219 1226 l 358 1226 l 358 1075 l 219 1075 l 219 1226 m 463 1226 l 601 1226 l 601 1075 l 463 1075 l 463 1226 m 224 1458 l 349 1458 l 411 1404 l 472 1458 l 597 1458 l 479 1313 l 343 1313 l 224 1458 z "},"Ǜ":{"ha":822,"x_min":85,"x_max":739,"o":"m 411 -17 q 170 65 256 -17 q 85 299 85 146 l 85 953 l 263 953 l 263 304 q 301 179 263 222 q 411 136 340 136 q 522 179 482 136 q 561 304 561 222 l 561 953 l 739 953 l 739 299 q 653 65 739 146 q 411 -17 567 -17 m 219 1226 l 358 1226 l 358 1075 l 219 1075 l 219 1226 m 463 1226 l 601 1226 l 601 1075 l 463 1075 l 463 1226 m 219 1454 l 221 1458 l 388 1458 l 507 1317 l 369 1317 l 219 1454 z "},"Ǖ":{"ha":822,"x_min":85,"x_max":739,"o":"m 411 -17 q 170 65 256 -17 q 85 299 85 146 l 85 953 l 263 953 l 263 304 q 301 179 263 222 q 411 136 340 136 q 522 179 482 136 q 561 304 561 222 l 561 953 l 739 953 l 739 299 q 653 65 739 146 q 411 -17 567 -17 m 219 1226 l 358 1226 l 358 1075 l 219 1075 l 219 1226 m 463 1226 l 601 1226 l 601 1075 l 463 1075 l 463 1226 m 233 1449 l 588 1449 l 588 1328 l 233 1328 l 233 1449 z "},"Ụ":{"ha":822,"x_min":85,"x_max":739,"o":"m 411 -17 q 170 65 256 -17 q 85 299 85 146 l 85 953 l 263 953 l 263 304 q 301 179 263 222 q 411 136 340 136 q 522 179 482 136 q 561 304 561 222 l 561 953 l 739 953 l 739 299 q 653 65 739 146 q 411 -17 567 -17 m 329 -93 l 492 -93 l 492 -253 l 329 -253 l 329 -93 z "},"Ù":{"ha":822,"x_min":85,"x_max":739,"o":"m 411 -17 q 170 65 256 -17 q 85 299 85 146 l 85 953 l 263 953 l 263 304 q 301 179 263 222 q 411 136 340 136 q 522 179 482 136 q 561 304 561 222 l 561 953 l 739 953 l 739 299 q 653 65 739 146 q 411 -17 567 -17 m 219 1181 l 221 1185 l 388 1185 l 507 1043 l 369 1043 l 219 1181 z "},"Ủ":{"ha":822,"x_min":85,"x_max":739,"o":"m 411 -17 q 170 65 256 -17 q 85 299 85 146 l 85 953 l 263 953 l 263 304 q 301 179 263 222 q 411 136 340 136 q 522 179 482 136 q 561 304 561 222 l 561 953 l 739 953 l 739 299 q 653 65 739 146 q 411 -17 567 -17 m 365 1107 l 385 1107 q 418 1113 408 1107 q 428 1133 428 1119 q 416 1154 428 1149 q 381 1160 404 1160 l 314 1160 l 314 1218 q 410 1229 358 1229 q 505 1210 464 1229 q 546 1144 546 1192 q 520 1088 546 1107 q 454 1065 494 1068 l 454 1036 l 365 1036 l 365 1107 z "},"Ư":{"ha":822,"x_min":85,"x_max":878,"o":"m 878 1139 l 878 1026 q 841 915 878 958 q 739 860 804 871 l 739 299 q 653 65 739 146 q 411 -17 567 -17 q 170 65 256 -17 q 85 299 85 146 l 85 953 l 263 953 l 263 304 q 301 179 263 222 q 411 136 340 136 q 522 179 482 136 q 561 304 561 222 l 561 953 l 669 953 q 723 970 707 953 q 739 1026 739 988 l 739 1139 l 878 1139 z "},"Ứ":{"ha":822,"x_min":85,"x_max":878,"o":"m 878 1139 l 878 1026 q 841 915 878 958 q 739 860 804 871 l 739 299 q 653 65 739 146 q 411 -17 567 -17 q 170 65 256 -17 q 85 299 85 146 l 85 953 l 263 953 l 263 304 q 301 179 263 222 q 411 136 340 136 q 522 179 482 136 q 561 304 561 222 l 561 953 l 669 953 q 723 970 707 953 q 739 1026 739 988 l 739 1139 l 878 1139 m 400 1185 l 581 1185 l 582 1181 l 460 1043 l 308 1043 l 400 1185 z "},"Ự":{"ha":822,"x_min":85,"x_max":878,"o":"m 878 1139 l 878 1026 q 841 915 878 958 q 739 860 804 871 l 739 299 q 653 65 739 146 q 411 -17 567 -17 q 170 65 256 -17 q 85 299 85 146 l 85 953 l 263 953 l 263 304 q 301 179 263 222 q 411 136 340 136 q 522 179 482 136 q 561 304 561 222 l 561 953 l 669 953 q 723 970 707 953 q 739 1026 739 988 l 739 1139 l 878 1139 m 329 -93 l 492 -93 l 492 -253 l 329 -253 l 329 -93 z "},"Ừ":{"ha":822,"x_min":85,"x_max":878,"o":"m 878 1139 l 878 1026 q 841 915 878 958 q 739 860 804 871 l 739 299 q 653 65 739 146 q 411 -17 567 -17 q 170 65 256 -17 q 85 299 85 146 l 85 953 l 263 953 l 263 304 q 301 179 263 222 q 411 136 340 136 q 522 179 482 136 q 561 304 561 222 l 561 953 l 669 953 q 723 970 707 953 q 739 1026 739 988 l 739 1139 l 878 1139 m 219 1181 l 221 1185 l 388 1185 l 507 1043 l 369 1043 l 219 1181 z "},"Ử":{"ha":822,"x_min":85,"x_max":878,"o":"m 878 1139 l 878 1026 q 841 915 878 958 q 739 860 804 871 l 739 299 q 653 65 739 146 q 411 -17 567 -17 q 170 65 256 -17 q 85 299 85 146 l 85 953 l 263 953 l 263 304 q 301 179 263 222 q 411 136 340 136 q 522 179 482 136 q 561 304 561 222 l 561 953 l 669 953 q 723 970 707 953 q 739 1026 739 988 l 739 1139 l 878 1139 m 365 1107 l 385 1107 q 418 1113 408 1107 q 428 1133 428 1119 q 416 1154 428 1149 q 381 1160 404 1160 l 314 1160 l 314 1218 q 410 1229 358 1229 q 505 1210 464 1229 q 546 1144 546 1192 q 520 1088 546 1107 q 454 1065 494 1068 l 454 1036 l 365 1036 l 365 1107 z "},"Ữ":{"ha":822,"x_min":85,"x_max":878,"o":"m 878 1139 l 878 1026 q 841 915 878 958 q 739 860 804 871 l 739 299 q 653 65 739 146 q 411 -17 567 -17 q 170 65 256 -17 q 85 299 85 146 l 85 953 l 263 953 l 263 304 q 301 179 263 222 q 411 136 340 136 q 522 179 482 136 q 561 304 561 222 l 561 953 l 669 953 q 723 970 707 953 q 739 1026 739 988 l 739 1139 l 878 1139 m 200 1038 q 231 1144 200 1097 q 324 1190 263 1190 q 360 1185 343 1190 q 410 1167 378 1179 q 454 1150 436 1156 q 490 1144 472 1144 q 540 1190 533 1144 l 622 1190 q 591 1084 622 1131 q 499 1038 560 1038 q 462 1043 479 1038 q 413 1061 444 1049 q 368 1078 386 1072 q 332 1083 350 1083 q 282 1038 289 1083 l 200 1038 z "},"Ű":{"ha":822,"x_min":85,"x_max":739,"o":"m 411 -17 q 170 65 256 -17 q 85 299 85 146 l 85 953 l 263 953 l 263 304 q 301 179 263 222 q 411 136 340 136 q 522 179 482 136 q 561 304 561 222 l 561 953 l 739 953 l 739 299 q 653 65 739 146 q 411 -17 567 -17 m 340 1185 l 479 1185 l 481 1181 l 364 1043 l 254 1043 l 340 1185 m 535 1185 l 674 1185 l 675 1181 l 558 1043 l 449 1043 l 535 1185 z "},"Ȗ":{"ha":822,"x_min":85,"x_max":739,"o":"m 411 -17 q 170 65 256 -17 q 85 299 85 146 l 85 953 l 263 953 l 263 304 q 301 179 263 222 q 411 136 340 136 q 522 179 482 136 q 561 304 561 222 l 561 953 l 739 953 l 739 299 q 653 65 739 146 q 411 -17 567 -17 m 225 1092 q 248 1162 225 1128 q 313 1218 271 1196 q 410 1240 356 1240 q 508 1218 465 1240 q 573 1162 550 1196 q 596 1092 596 1128 l 493 1092 q 467 1123 490 1108 q 410 1138 443 1138 q 355 1123 378 1138 q 328 1092 332 1108 l 225 1092 z "},"Ū":{"ha":822,"x_min":85,"x_max":739,"o":"m 411 -17 q 170 65 256 -17 q 85 299 85 146 l 85 953 l 263 953 l 263 304 q 301 179 263 222 q 411 136 340 136 q 522 179 482 136 q 561 304 561 222 l 561 953 l 739 953 l 739 299 q 653 65 739 146 q 411 -17 567 -17 m 233 1175 l 588 1175 l 588 1054 l 233 1054 l 233 1175 z "},"Ų":{"ha":822,"x_min":85,"x_max":739,"o":"m 739 953 l 739 299 q 694 115 739 188 q 563 8 649 42 l 563 7 q 503 -49 525 -18 q 481 -108 481 -81 q 500 -147 481 -132 q 560 -161 519 -161 l 590 -161 l 590 -239 q 499 -254 540 -254 q 396 -222 432 -254 q 360 -140 360 -189 q 376 -77 360 -110 q 422 -17 392 -44 l 411 -17 q 170 65 256 -17 q 85 299 85 146 l 85 953 l 263 953 l 263 304 q 301 179 263 222 q 411 136 340 136 q 522 179 482 136 q 561 304 561 222 l 561 953 l 739 953 z "},"Ů":{"ha":822,"x_min":85,"x_max":739,"o":"m 411 -17 q 170 65 256 -17 q 85 299 85 146 l 85 953 l 263 953 l 263 304 q 301 179 263 222 q 411 136 340 136 q 522 179 482 136 q 561 304 561 222 l 561 953 l 739 953 l 739 299 q 653 65 739 146 q 411 -17 567 -17 m 411 1001 q 317 1040 357 1001 q 278 1135 278 1079 q 317 1229 278 1190 q 411 1268 356 1268 q 506 1228 467 1268 q 544 1135 544 1189 q 506 1040 544 1079 q 411 1001 467 1001 m 411 1076 q 452 1093 435 1076 q 469 1135 469 1110 q 452 1176 469 1160 q 411 1193 435 1193 q 369 1176 386 1193 q 353 1135 353 1160 q 369 1093 353 1110 q 411 1076 386 1076 z "},"Ũ":{"ha":822,"x_min":85,"x_max":739,"o":"m 411 -17 q 170 65 256 -17 q 85 299 85 146 l 85 953 l 263 953 l 263 304 q 301 179 263 222 q 411 136 340 136 q 522 179 482 136 q 561 304 561 222 l 561 953 l 739 953 l 739 299 q 653 65 739 146 q 411 -17 567 -17 m 200 1038 q 231 1144 200 1097 q 324 1190 263 1190 q 360 1185 343 1190 q 410 1167 378 1179 q 454 1150 436 1156 q 490 1144 472 1144 q 540 1190 533 1144 l 622 1190 q 591 1084 622 1131 q 499 1038 560 1038 q 462 1043 479 1038 q 413 1061 444 1049 q 368 1078 386 1072 q 332 1083 350 1083 q 282 1038 289 1083 l 200 1038 z "},"V":{"ha":760,"x_min":0,"x_max":760,"o":"m 0 953 l 183 953 l 383 271 l 389 271 l 586 953 l 760 953 l 469 0 l 290 0 l 0 953 z "},"W":{"ha":1075,"x_min":0,"x_max":1074,"o":"m 0 953 l 176 953 l 290 367 q 308 233 299 328 l 314 233 q 332 367 324 328 l 447 953 l 649 953 l 763 367 q 781 233 769 331 l 786 233 q 804 367 794 322 l 921 953 l 1074 953 l 867 0 l 688 0 l 558 607 q 539 742 547 653 l 533 742 q 514 607 522 646 l 386 0 l 207 0 l 0 953 z "},"Ẃ":{"ha":1075,"x_min":0,"x_max":1074,"o":"m 0 953 l 176 953 l 290 367 q 308 233 299 328 l 314 233 q 332 367 324 328 l 447 953 l 649 953 l 763 367 q 781 233 769 331 l 786 233 q 804 367 794 322 l 921 953 l 1074 953 l 867 0 l 688 0 l 558 607 q 539 742 547 653 l 533 742 q 514 607 522 646 l 386 0 l 207 0 l 0 953 m 526 1185 l 707 1185 l 708 1181 l 586 1043 l 435 1043 l 526 1185 z "},"Ŵ":{"ha":1075,"x_min":0,"x_max":1074,"o":"m 0 953 l 176 953 l 290 367 q 308 233 299 328 l 314 233 q 332 367 324 328 l 447 953 l 649 953 l 763 367 q 781 233 769 331 l 786 233 q 804 367 794 322 l 921 953 l 1074 953 l 867 0 l 688 0 l 558 607 q 539 742 547 653 l 533 742 q 514 607 522 646 l 386 0 l 207 0 l 0 953 m 469 1185 l 606 1185 l 724 1039 l 599 1039 l 538 1093 l 475 1039 l 350 1039 l 469 1185 z "},"Ẅ":{"ha":1075,"x_min":0,"x_max":1074,"o":"m 0 953 l 176 953 l 290 367 q 308 233 299 328 l 314 233 q 332 367 324 328 l 447 953 l 649 953 l 763 367 q 781 233 769 331 l 786 233 q 804 367 794 322 l 921 953 l 1074 953 l 867 0 l 688 0 l 558 607 q 539 742 547 653 l 533 742 q 514 607 522 646 l 386 0 l 207 0 l 0 953 m 346 1226 l 485 1226 l 485 1075 l 346 1075 l 346 1226 m 589 1226 l 728 1226 l 728 1075 l 589 1075 l 589 1226 z "},"Ẁ":{"ha":1075,"x_min":0,"x_max":1074,"o":"m 0 953 l 176 953 l 290 367 q 308 233 299 328 l 314 233 q 332 367 324 328 l 447 953 l 649 953 l 763 367 q 781 233 769 331 l 786 233 q 804 367 794 322 l 921 953 l 1074 953 l 867 0 l 688 0 l 558 607 q 539 742 547 653 l 533 742 q 514 607 522 646 l 386 0 l 207 0 l 0 953 m 346 1181 l 347 1185 l 514 1185 l 633 1043 l 496 1043 l 346 1181 z "},"X":{"ha":760,"x_min":0,"x_max":758,"o":"m 269 500 l 25 953 l 224 953 l 383 642 l 389 642 l 549 953 l 733 953 l 488 503 l 758 0 l 561 0 l 375 360 l 369 360 l 185 0 l 0 0 l 269 500 z "},"Y":{"ha":760,"x_min":0,"x_max":760,"o":"m 292 360 l 0 953 l 188 953 l 382 535 l 388 535 l 581 953 l 760 953 l 469 360 l 469 0 l 292 0 l 292 360 z "},"Ý":{"ha":760,"x_min":0,"x_max":760,"o":"m 292 360 l 0 953 l 188 953 l 382 535 l 388 535 l 581 953 l 760 953 l 469 360 l 469 0 l 292 0 l 292 360 m 368 1185 l 549 1185 l 550 1181 l 428 1043 l 276 1043 l 368 1185 z "},"Ŷ":{"ha":760,"x_min":0,"x_max":760,"o":"m 292 360 l 0 953 l 188 953 l 382 535 l 388 535 l 581 953 l 760 953 l 469 360 l 469 0 l 292 0 l 292 360 m 311 1185 l 447 1185 l 565 1039 l 440 1039 l 379 1093 l 317 1039 l 192 1039 l 311 1185 z "},"Ÿ":{"ha":760,"x_min":0,"x_max":760,"o":"m 292 360 l 0 953 l 188 953 l 382 535 l 388 535 l 581 953 l 760 953 l 469 360 l 469 0 l 292 0 l 292 360 m 188 1226 l 326 1226 l 326 1075 l 188 1075 l 188 1226 m 431 1226 l 569 1226 l 569 1075 l 431 1075 l 431 1226 z "},"Ỵ":{"ha":760,"x_min":0,"x_max":760,"o":"m 292 360 l 0 953 l 188 953 l 382 535 l 388 535 l 581 953 l 760 953 l 469 360 l 469 0 l 292 0 l 292 360 m 292 -93 l 468 -93 l 468 -253 l 292 -253 l 292 -93 z "},"Ỳ":{"ha":760,"x_min":0,"x_max":760,"o":"m 292 360 l 0 953 l 188 953 l 382 535 l 388 535 l 581 953 l 760 953 l 469 360 l 469 0 l 292 0 l 292 360 m 188 1181 l 189 1185 l 356 1185 l 475 1043 l 338 1043 l 188 1181 z "},"Ỷ":{"ha":760,"x_min":0,"x_max":760,"o":"m 292 360 l 0 953 l 188 953 l 382 535 l 388 535 l 581 953 l 760 953 l 469 360 l 469 0 l 292 0 l 292 360 m 333 1107 l 353 1107 q 386 1113 376 1107 q 396 1133 396 1119 q 384 1154 396 1149 q 349 1160 372 1160 l 282 1160 l 282 1218 q 378 1229 326 1229 q 473 1210 432 1229 q 514 1144 514 1192 q 488 1088 514 1107 q 422 1065 463 1068 l 422 1036 l 333 1036 l 333 1107 z "},"Ȳ":{"ha":760,"x_min":0,"x_max":760,"o":"m 292 360 l 0 953 l 188 953 l 382 535 l 388 535 l 581 953 l 760 953 l 469 360 l 469 0 l 292 0 l 292 360 m 201 1175 l 556 1175 l 556 1054 l 201 1054 l 201 1175 z "},"Ỹ":{"ha":760,"x_min":0,"x_max":760,"o":"m 292 360 l 0 953 l 188 953 l 382 535 l 388 535 l 581 953 l 760 953 l 469 360 l 469 0 l 292 0 l 292 360 m 168 1038 q 199 1144 168 1097 q 292 1190 231 1190 q 328 1185 311 1190 q 378 1167 346 1179 q 422 1150 404 1156 q 458 1144 440 1144 q 508 1190 501 1144 l 590 1190 q 559 1084 590 1131 q 467 1038 528 1038 q 430 1043 447 1038 q 381 1061 413 1049 q 336 1078 354 1072 q 300 1083 318 1083 q 250 1038 257 1083 l 168 1038 z "},"Z":{"ha":696,"x_min":22,"x_max":667,"o":"m 22 68 l 414 794 l 51 794 l 51 953 l 657 953 l 657 883 l 265 158 l 667 158 l 667 0 l 22 0 l 22 68 z "},"Ź":{"ha":696,"x_min":22,"x_max":667,"o":"m 22 68 l 414 794 l 51 794 l 51 953 l 657 953 l 657 883 l 265 158 l 667 158 l 667 0 l 22 0 l 22 68 m 336 1185 l 517 1185 l 518 1181 l 396 1043 l 244 1043 l 336 1185 z "},"Ž":{"ha":696,"x_min":22,"x_max":667,"o":"m 22 68 l 414 794 l 51 794 l 51 953 l 657 953 l 657 883 l 265 158 l 667 158 l 667 0 l 22 0 l 22 68 m 160 1185 l 285 1185 l 347 1131 l 408 1185 l 533 1185 l 415 1039 l 279 1039 l 160 1185 z "},"Ż":{"ha":696,"x_min":22,"x_max":667,"o":"m 22 68 l 414 794 l 51 794 l 51 953 l 657 953 l 657 883 l 265 158 l 667 158 l 667 0 l 22 0 l 22 68 m 258 1226 l 436 1226 l 436 1067 l 258 1067 l 258 1226 z "},"a":{"ha":633,"x_min":19,"x_max":622,"o":"m 203 -17 q 77 30 135 -17 q 19 189 19 76 q 114 386 19 328 q 382 444 208 444 l 382 521 q 366 588 382 564 q 306 611 350 611 q 239 588 260 611 q 218 535 218 565 l 218 514 l 56 514 q 54 544 54 522 q 122 692 54 636 q 301 747 189 747 q 488 692 426 747 q 550 532 550 636 l 550 172 q 561 135 550 147 q 589 124 572 124 l 622 124 l 622 6 q 524 -17 581 -17 q 441 9 475 -17 q 394 79 407 35 l 388 79 q 312 7 353 31 q 203 -17 271 -17 m 272 122 q 355 167 328 122 q 382 282 382 211 l 382 324 q 244 297 297 324 q 190 204 190 269 q 210 144 190 165 q 272 122 231 122 z "},"á":{"ha":633,"x_min":19,"x_max":622,"o":"m 203 -17 q 77 30 135 -17 q 19 189 19 76 q 114 386 19 328 q 382 444 208 444 l 382 521 q 366 588 382 564 q 306 611 350 611 q 239 588 260 611 q 218 535 218 565 l 218 514 l 56 514 q 54 544 54 522 q 122 692 54 636 q 301 747 189 747 q 488 692 426 747 q 550 532 550 636 l 550 172 q 561 135 550 147 q 589 124 572 124 l 622 124 l 622 6 q 524 -17 581 -17 q 441 9 475 -17 q 394 79 407 35 l 388 79 q 312 7 353 31 q 203 -17 271 -17 m 272 122 q 355 167 328 122 q 382 282 382 211 l 382 324 q 244 297 297 324 q 190 204 190 269 q 210 144 190 165 q 272 122 231 122 m 325 1004 l 492 1004 l 493 1000 l 343 821 l 206 821 l 325 1004 z "},"ă":{"ha":633,"x_min":19,"x_max":622,"o":"m 203 -17 q 77 30 135 -17 q 19 189 19 76 q 114 386 19 328 q 382 444 208 444 l 382 521 q 366 588 382 564 q 306 611 350 611 q 239 588 260 611 q 218 535 218 565 l 218 514 l 56 514 q 54 544 54 522 q 122 692 54 636 q 301 747 189 747 q 488 692 426 747 q 550 532 550 636 l 550 172 q 561 135 550 147 q 589 124 572 124 l 622 124 l 622 6 q 524 -17 581 -17 q 441 9 475 -17 q 394 79 407 35 l 388 79 q 312 7 353 31 q 203 -17 271 -17 m 272 122 q 355 167 328 122 q 382 282 382 211 l 382 324 q 244 297 297 324 q 190 204 190 269 q 210 144 190 165 q 272 122 231 122 m 300 800 q 203 822 246 800 q 138 878 161 844 q 115 949 115 913 l 218 949 q 245 917 222 932 q 300 903 268 903 q 357 917 333 903 q 383 949 381 932 l 486 949 q 463 878 486 913 q 398 822 440 844 q 300 800 356 800 z "},"ắ":{"ha":633,"x_min":19,"x_max":622,"o":"m 203 -17 q 77 30 135 -17 q 19 189 19 76 q 114 386 19 328 q 382 444 208 444 l 382 521 q 366 588 382 564 q 306 611 350 611 q 239 588 260 611 q 218 535 218 565 l 218 514 l 56 514 q 54 544 54 522 q 122 692 54 636 q 301 747 189 747 q 488 692 426 747 q 550 532 550 636 l 550 172 q 561 135 550 147 q 589 124 572 124 l 622 124 l 622 6 q 524 -17 581 -17 q 441 9 475 -17 q 394 79 407 35 l 388 79 q 312 7 353 31 q 203 -17 271 -17 m 272 122 q 355 167 328 122 q 382 282 382 211 l 382 324 q 244 297 297 324 q 190 204 190 269 q 210 144 190 165 q 272 122 231 122 m 300 800 q 203 822 246 800 q 138 878 161 844 q 115 949 115 913 l 218 949 q 245 917 222 932 q 300 903 268 903 q 357 917 333 903 q 383 949 381 932 l 486 949 q 463 878 486 913 q 398 822 440 844 q 300 800 356 800 m 325 1176 l 492 1176 l 493 1172 l 343 993 l 206 993 l 325 1176 z "},"ặ":{"ha":633,"x_min":19,"x_max":622,"o":"m 203 -17 q 77 30 135 -17 q 19 189 19 76 q 114 386 19 328 q 382 444 208 444 l 382 521 q 366 588 382 564 q 306 611 350 611 q 239 588 260 611 q 218 535 218 565 l 218 514 l 56 514 q 54 544 54 522 q 122 692 54 636 q 301 747 189 747 q 488 692 426 747 q 550 532 550 636 l 550 172 q 561 135 550 147 q 589 124 572 124 l 622 124 l 622 6 q 524 -17 581 -17 q 441 9 475 -17 q 394 79 407 35 l 388 79 q 312 7 353 31 q 203 -17 271 -17 m 272 122 q 355 167 328 122 q 382 282 382 211 l 382 324 q 244 297 297 324 q 190 204 190 269 q 210 144 190 165 q 272 122 231 122 m 235 -93 l 397 -93 l 397 -253 l 235 -253 l 235 -93 m 300 800 q 203 822 246 800 q 138 878 161 844 q 115 949 115 913 l 218 949 q 245 917 222 932 q 300 903 268 903 q 357 917 333 903 q 383 949 381 932 l 486 949 q 463 878 486 913 q 398 822 440 844 q 300 800 356 800 z "},"ằ":{"ha":633,"x_min":19,"x_max":622,"o":"m 203 -17 q 77 30 135 -17 q 19 189 19 76 q 114 386 19 328 q 382 444 208 444 l 382 521 q 366 588 382 564 q 306 611 350 611 q 239 588 260 611 q 218 535 218 565 l 218 514 l 56 514 q 54 544 54 522 q 122 692 54 636 q 301 747 189 747 q 488 692 426 747 q 550 532 550 636 l 550 172 q 561 135 550 147 q 589 124 572 124 l 622 124 l 622 6 q 524 -17 581 -17 q 441 9 475 -17 q 394 79 407 35 l 388 79 q 312 7 353 31 q 203 -17 271 -17 m 272 122 q 355 167 328 122 q 382 282 382 211 l 382 324 q 244 297 297 324 q 190 204 190 269 q 210 144 190 165 q 272 122 231 122 m 300 800 q 203 822 246 800 q 138 878 161 844 q 115 949 115 913 l 218 949 q 245 917 222 932 q 300 903 268 903 q 357 917 333 903 q 383 949 381 932 l 486 949 q 463 878 486 913 q 398 822 440 844 q 300 800 356 800 m 110 1172 l 111 1176 l 278 1176 l 397 993 l 260 993 l 110 1172 z "},"ẳ":{"ha":633,"x_min":19,"x_max":622,"o":"m 203 -17 q 77 30 135 -17 q 19 189 19 76 q 114 386 19 328 q 382 444 208 444 l 382 521 q 366 588 382 564 q 306 611 350 611 q 239 588 260 611 q 218 535 218 565 l 218 514 l 56 514 q 54 544 54 522 q 122 692 54 636 q 301 747 189 747 q 488 692 426 747 q 550 532 550 636 l 550 172 q 561 135 550 147 q 589 124 572 124 l 622 124 l 622 6 q 524 -17 581 -17 q 441 9 475 -17 q 394 79 407 35 l 388 79 q 312 7 353 31 q 203 -17 271 -17 m 272 122 q 355 167 328 122 q 382 282 382 211 l 382 324 q 244 297 297 324 q 190 204 190 269 q 210 144 190 165 q 272 122 231 122 m 300 800 q 203 822 246 800 q 138 878 161 844 q 115 949 115 913 l 218 949 q 245 917 222 932 q 300 903 268 903 q 357 917 333 903 q 383 949 381 932 l 486 949 q 463 878 486 913 q 398 822 440 844 q 300 800 356 800 m 256 1057 l 275 1057 q 308 1063 299 1057 q 318 1083 318 1069 q 306 1104 318 1099 q 271 1110 294 1110 l 204 1110 l 204 1168 q 300 1179 249 1179 q 395 1160 354 1179 q 436 1094 436 1142 q 410 1038 436 1057 q 344 1015 385 1018 l 344 986 l 256 986 l 256 1057 z "},"ẵ":{"ha":633,"x_min":19,"x_max":622,"o":"m 203 -17 q 77 30 135 -17 q 19 189 19 76 q 114 386 19 328 q 382 444 208 444 l 382 521 q 366 588 382 564 q 306 611 350 611 q 239 588 260 611 q 218 535 218 565 l 218 514 l 56 514 q 54 544 54 522 q 122 692 54 636 q 301 747 189 747 q 488 692 426 747 q 550 532 550 636 l 550 172 q 561 135 550 147 q 589 124 572 124 l 622 124 l 622 6 q 524 -17 581 -17 q 441 9 475 -17 q 394 79 407 35 l 388 79 q 312 7 353 31 q 203 -17 271 -17 m 272 122 q 355 167 328 122 q 382 282 382 211 l 382 324 q 244 297 297 324 q 190 204 190 269 q 210 144 190 165 q 272 122 231 122 m 300 800 q 203 822 246 800 q 138 878 161 844 q 115 949 115 913 l 218 949 q 245 917 222 932 q 300 903 268 903 q 357 917 333 903 q 383 949 381 932 l 486 949 q 463 878 486 913 q 398 822 440 844 q 300 800 356 800 m 68 1007 q 103 1125 68 1074 q 204 1176 138 1176 q 246 1170 226 1176 q 300 1150 265 1164 q 349 1131 329 1138 q 389 1125 368 1125 q 426 1137 413 1125 q 443 1176 439 1149 l 535 1176 q 500 1058 535 1110 q 397 1007 465 1007 q 356 1013 375 1007 q 303 1033 338 1019 q 254 1052 274 1046 q 214 1058 235 1058 q 160 1007 167 1058 l 68 1007 z "},"ǎ":{"ha":633,"x_min":19,"x_max":622,"o":"m 203 -17 q 77 30 135 -17 q 19 189 19 76 q 114 386 19 328 q 382 444 208 444 l 382 521 q 366 588 382 564 q 306 611 350 611 q 239 588 260 611 q 218 535 218 565 l 218 514 l 56 514 q 54 544 54 522 q 122 692 54 636 q 301 747 189 747 q 488 692 426 747 q 550 532 550 636 l 550 172 q 561 135 550 147 q 589 124 572 124 l 622 124 l 622 6 q 524 -17 581 -17 q 441 9 475 -17 q 394 79 407 35 l 388 79 q 312 7 353 31 q 203 -17 271 -17 m 272 122 q 355 167 328 122 q 382 282 382 211 l 382 324 q 244 297 297 324 q 190 204 190 269 q 210 144 190 165 q 272 122 231 122 m 114 1004 l 239 1004 l 301 908 l 363 1004 l 488 1004 l 369 817 l 233 817 l 114 1004 z "},"â":{"ha":633,"x_min":19,"x_max":622,"o":"m 203 -17 q 77 30 135 -17 q 19 189 19 76 q 114 386 19 328 q 382 444 208 444 l 382 521 q 366 588 382 564 q 306 611 350 611 q 239 588 260 611 q 218 535 218 565 l 218 514 l 56 514 q 54 544 54 522 q 122 692 54 636 q 301 747 189 747 q 488 692 426 747 q 550 532 550 636 l 550 172 q 561 135 550 147 q 589 124 572 124 l 622 124 l 622 6 q 524 -17 581 -17 q 441 9 475 -17 q 394 79 407 35 l 388 79 q 312 7 353 31 q 203 -17 271 -17 m 272 122 q 355 167 328 122 q 382 282 382 211 l 382 324 q 244 297 297 324 q 190 204 190 269 q 210 144 190 165 q 272 122 231 122 m 233 1004 l 369 1004 l 488 817 l 363 817 l 301 913 l 239 817 l 114 817 l 233 1004 z "},"ấ":{"ha":633,"x_min":19,"x_max":622,"o":"m 203 -17 q 77 30 135 -17 q 19 189 19 76 q 114 386 19 328 q 382 444 208 444 l 382 521 q 366 588 382 564 q 306 611 350 611 q 239 588 260 611 q 218 535 218 565 l 218 514 l 56 514 q 54 544 54 522 q 122 692 54 636 q 301 747 189 747 q 488 692 426 747 q 550 532 550 636 l 550 172 q 561 135 550 147 q 589 124 572 124 l 622 124 l 622 6 q 524 -17 581 -17 q 441 9 475 -17 q 394 79 407 35 l 388 79 q 312 7 353 31 q 203 -17 271 -17 m 272 122 q 355 167 328 122 q 382 282 382 211 l 382 324 q 244 297 297 324 q 190 204 190 269 q 210 144 190 165 q 272 122 231 122 m 233 1004 l 369 1004 l 488 817 l 363 817 l 301 913 l 239 817 l 114 817 l 233 1004 m 325 1236 l 492 1236 l 493 1232 l 343 1053 l 206 1053 l 325 1236 z "},"ậ":{"ha":633,"x_min":19,"x_max":622,"o":"m 203 -17 q 77 30 135 -17 q 19 189 19 76 q 114 386 19 328 q 382 444 208 444 l 382 521 q 366 588 382 564 q 306 611 350 611 q 239 588 260 611 q 218 535 218 565 l 218 514 l 56 514 q 54 544 54 522 q 122 692 54 636 q 301 747 189 747 q 488 692 426 747 q 550 532 550 636 l 550 172 q 561 135 550 147 q 589 124 572 124 l 622 124 l 622 6 q 524 -17 581 -17 q 441 9 475 -17 q 394 79 407 35 l 388 79 q 312 7 353 31 q 203 -17 271 -17 m 272 122 q 355 167 328 122 q 382 282 382 211 l 382 324 q 244 297 297 324 q 190 204 190 269 q 210 144 190 165 q 272 122 231 122 m 235 -93 l 397 -93 l 397 -253 l 235 -253 l 235 -93 m 233 1004 l 369 1004 l 488 817 l 363 817 l 301 913 l 239 817 l 114 817 l 233 1004 z "},"ầ":{"ha":633,"x_min":19,"x_max":622,"o":"m 203 -17 q 77 30 135 -17 q 19 189 19 76 q 114 386 19 328 q 382 444 208 444 l 382 521 q 366 588 382 564 q 306 611 350 611 q 239 588 260 611 q 218 535 218 565 l 218 514 l 56 514 q 54 544 54 522 q 122 692 54 636 q 301 747 189 747 q 488 692 426 747 q 550 532 550 636 l 550 172 q 561 135 550 147 q 589 124 572 124 l 622 124 l 622 6 q 524 -17 581 -17 q 441 9 475 -17 q 394 79 407 35 l 388 79 q 312 7 353 31 q 203 -17 271 -17 m 272 122 q 355 167 328 122 q 382 282 382 211 l 382 324 q 244 297 297 324 q 190 204 190 269 q 210 144 190 165 q 272 122 231 122 m 233 1004 l 369 1004 l 488 817 l 363 817 l 301 913 l 239 817 l 114 817 l 233 1004 m 110 1232 l 111 1236 l 278 1236 l 397 1053 l 260 1053 l 110 1232 z "},"ẩ":{"ha":633,"x_min":19,"x_max":622,"o":"m 203 -17 q 77 30 135 -17 q 19 189 19 76 q 114 386 19 328 q 382 444 208 444 l 382 521 q 366 588 382 564 q 306 611 350 611 q 239 588 260 611 q 218 535 218 565 l 218 514 l 56 514 q 54 544 54 522 q 122 692 54 636 q 301 747 189 747 q 488 692 426 747 q 550 532 550 636 l 550 172 q 561 135 550 147 q 589 124 572 124 l 622 124 l 622 6 q 524 -17 581 -17 q 441 9 475 -17 q 394 79 407 35 l 388 79 q 312 7 353 31 q 203 -17 271 -17 m 272 122 q 355 167 328 122 q 382 282 382 211 l 382 324 q 244 297 297 324 q 190 204 190 269 q 210 144 190 165 q 272 122 231 122 m 233 1004 l 369 1004 l 488 817 l 363 817 l 301 913 l 239 817 l 114 817 l 233 1004 m 256 1117 l 275 1117 q 308 1123 299 1117 q 318 1143 318 1129 q 306 1164 318 1158 q 271 1169 294 1169 l 204 1169 l 204 1228 q 300 1239 249 1239 q 395 1220 354 1239 q 436 1154 436 1201 q 410 1097 436 1117 q 344 1075 385 1078 l 344 1046 l 256 1046 l 256 1117 z "},"ẫ":{"ha":633,"x_min":19,"x_max":622,"o":"m 203 -17 q 77 30 135 -17 q 19 189 19 76 q 114 386 19 328 q 382 444 208 444 l 382 521 q 366 588 382 564 q 306 611 350 611 q 239 588 260 611 q 218 535 218 565 l 218 514 l 56 514 q 54 544 54 522 q 122 692 54 636 q 301 747 189 747 q 488 692 426 747 q 550 532 550 636 l 550 172 q 561 135 550 147 q 589 124 572 124 l 622 124 l 622 6 q 524 -17 581 -17 q 441 9 475 -17 q 394 79 407 35 l 388 79 q 312 7 353 31 q 203 -17 271 -17 m 272 122 q 355 167 328 122 q 382 282 382 211 l 382 324 q 244 297 297 324 q 190 204 190 269 q 210 144 190 165 q 272 122 231 122 m 233 1004 l 369 1004 l 488 817 l 363 817 l 301 913 l 239 817 l 114 817 l 233 1004 m 68 1067 q 103 1185 68 1133 q 204 1236 138 1236 q 246 1230 226 1236 q 300 1210 265 1224 q 349 1191 329 1197 q 389 1185 368 1185 q 426 1197 413 1185 q 443 1236 439 1208 l 535 1236 q 500 1118 535 1169 q 397 1067 465 1067 q 356 1073 375 1067 q 303 1093 338 1079 q 254 1112 274 1106 q 214 1118 235 1118 q 160 1067 167 1118 l 68 1067 z "},"ȁ":{"ha":633,"x_min":19,"x_max":622,"o":"m 203 -17 q 77 30 135 -17 q 19 189 19 76 q 114 386 19 328 q 382 444 208 444 l 382 521 q 366 588 382 564 q 306 611 350 611 q 239 588 260 611 q 218 535 218 565 l 218 514 l 56 514 q 54 544 54 522 q 122 692 54 636 q 301 747 189 747 q 488 692 426 747 q 550 532 550 636 l 550 172 q 561 135 550 147 q 589 124 572 124 l 622 124 l 622 6 q 524 -17 581 -17 q 441 9 475 -17 q 394 79 407 35 l 388 79 q 312 7 353 31 q 203 -17 271 -17 m 272 122 q 355 167 328 122 q 382 282 382 211 l 382 324 q 244 297 297 324 q 190 204 190 269 q 210 144 190 165 q 272 122 231 122 m 44 1000 l 46 1004 l 188 1004 l 274 821 l 161 821 l 44 1000 m 242 1000 l 243 1004 l 379 1004 l 465 821 l 358 821 l 242 1000 z "},"ä":{"ha":633,"x_min":19,"x_max":622,"o":"m 203 -17 q 77 30 135 -17 q 19 189 19 76 q 114 386 19 328 q 382 444 208 444 l 382 521 q 366 588 382 564 q 306 611 350 611 q 239 588 260 611 q 218 535 218 565 l 218 514 l 56 514 q 54 544 54 522 q 122 692 54 636 q 301 747 189 747 q 488 692 426 747 q 550 532 550 636 l 550 172 q 561 135 550 147 q 589 124 572 124 l 622 124 l 622 6 q 524 -17 581 -17 q 441 9 475 -17 q 394 79 407 35 l 388 79 q 312 7 353 31 q 203 -17 271 -17 m 272 122 q 355 167 328 122 q 382 282 382 211 l 382 324 q 244 297 297 324 q 190 204 190 269 q 210 144 190 165 q 272 122 231 122 m 110 1004 l 249 1004 l 249 853 l 110 853 l 110 1004 m 353 1004 l 492 1004 l 492 853 l 353 853 l 353 1004 z "},"ạ":{"ha":633,"x_min":19,"x_max":622,"o":"m 203 -17 q 77 30 135 -17 q 19 189 19 76 q 114 386 19 328 q 382 444 208 444 l 382 521 q 366 588 382 564 q 306 611 350 611 q 239 588 260 611 q 218 535 218 565 l 218 514 l 56 514 q 54 544 54 522 q 122 692 54 636 q 301 747 189 747 q 488 692 426 747 q 550 532 550 636 l 550 172 q 561 135 550 147 q 589 124 572 124 l 622 124 l 622 6 q 524 -17 581 -17 q 441 9 475 -17 q 394 79 407 35 l 388 79 q 312 7 353 31 q 203 -17 271 -17 m 272 122 q 355 167 328 122 q 382 282 382 211 l 382 324 q 244 297 297 324 q 190 204 190 269 q 210 144 190 165 q 272 122 231 122 m 235 -93 l 397 -93 l 397 -253 l 235 -253 l 235 -93 z "},"à":{"ha":633,"x_min":19,"x_max":622,"o":"m 203 -17 q 77 30 135 -17 q 19 189 19 76 q 114 386 19 328 q 382 444 208 444 l 382 521 q 366 588 382 564 q 306 611 350 611 q 239 588 260 611 q 218 535 218 565 l 218 514 l 56 514 q 54 544 54 522 q 122 692 54 636 q 301 747 189 747 q 488 692 426 747 q 550 532 550 636 l 550 172 q 561 135 550 147 q 589 124 572 124 l 622 124 l 622 6 q 524 -17 581 -17 q 441 9 475 -17 q 394 79 407 35 l 388 79 q 312 7 353 31 q 203 -17 271 -17 m 272 122 q 355 167 328 122 q 382 282 382 211 l 382 324 q 244 297 297 324 q 190 204 190 269 q 210 144 190 165 q 272 122 231 122 m 110 1000 l 111 1004 l 278 1004 l 397 821 l 260 821 l 110 1000 z "},"ả":{"ha":633,"x_min":19,"x_max":622,"o":"m 203 -17 q 77 30 135 -17 q 19 189 19 76 q 114 386 19 328 q 382 444 208 444 l 382 521 q 366 588 382 564 q 306 611 350 611 q 239 588 260 611 q 218 535 218 565 l 218 514 l 56 514 q 54 544 54 522 q 122 692 54 636 q 301 747 189 747 q 488 692 426 747 q 550 532 550 636 l 550 172 q 561 135 550 147 q 589 124 572 124 l 622 124 l 622 6 q 524 -17 581 -17 q 441 9 475 -17 q 394 79 407 35 l 388 79 q 312 7 353 31 q 203 -17 271 -17 m 272 122 q 355 167 328 122 q 382 282 382 211 l 382 324 q 244 297 297 324 q 190 204 190 269 q 210 144 190 165 q 272 122 231 122 m 256 885 l 275 885 q 308 891 299 885 q 318 911 318 897 q 306 932 318 926 q 271 938 294 938 l 204 938 l 204 996 q 300 1007 249 1007 q 395 988 354 1007 q 436 922 436 969 q 410 865 436 885 q 344 843 385 846 l 344 814 l 256 814 l 256 885 z "},"ȃ":{"ha":633,"x_min":19,"x_max":622,"o":"m 203 -17 q 77 30 135 -17 q 19 189 19 76 q 114 386 19 328 q 382 444 208 444 l 382 521 q 366 588 382 564 q 306 611 350 611 q 239 588 260 611 q 218 535 218 565 l 218 514 l 56 514 q 54 544 54 522 q 122 692 54 636 q 301 747 189 747 q 488 692 426 747 q 550 532 550 636 l 550 172 q 561 135 550 147 q 589 124 572 124 l 622 124 l 622 6 q 524 -17 581 -17 q 441 9 475 -17 q 394 79 407 35 l 388 79 q 312 7 353 31 q 203 -17 271 -17 m 272 122 q 355 167 328 122 q 382 282 382 211 l 382 324 q 244 297 297 324 q 190 204 190 269 q 210 144 190 165 q 272 122 231 122 m 115 828 q 138 898 115 864 q 203 954 161 932 q 300 976 246 976 q 398 954 356 976 q 463 898 440 932 q 486 828 486 864 l 383 828 q 357 859 381 844 q 300 874 333 874 q 245 859 268 874 q 218 828 222 844 l 115 828 z "},"ā":{"ha":633,"x_min":19,"x_max":622,"o":"m 203 -17 q 77 30 135 -17 q 19 189 19 76 q 114 386 19 328 q 382 444 208 444 l 382 521 q 366 588 382 564 q 306 611 350 611 q 239 588 260 611 q 218 535 218 565 l 218 514 l 56 514 q 54 544 54 522 q 122 692 54 636 q 301 747 189 747 q 488 692 426 747 q 550 532 550 636 l 550 172 q 561 135 550 147 q 589 124 572 124 l 622 124 l 622 6 q 524 -17 581 -17 q 441 9 475 -17 q 394 79 407 35 l 388 79 q 312 7 353 31 q 203 -17 271 -17 m 272 122 q 355 167 328 122 q 382 282 382 211 l 382 324 q 244 297 297 324 q 190 204 190 269 q 210 144 190 165 q 272 122 231 122 m 124 953 l 478 953 l 478 832 l 124 832 l 124 953 z "},"ą":{"ha":633,"x_min":19,"x_max":674,"o":"m 674 -162 l 674 -239 q 582 -258 624 -258 q 485 -228 525 -258 q 444 -133 444 -199 q 490 -12 444 -76 q 430 19 454 -6 q 394 79 406 43 l 388 79 q 312 7 353 31 q 203 -17 271 -17 q 77 30 135 -17 q 19 189 19 76 q 114 386 19 328 q 382 444 208 444 l 382 521 q 366 588 382 564 q 306 611 350 611 q 239 588 260 611 q 218 535 218 565 l 218 514 l 56 514 q 54 544 54 522 q 122 692 54 636 q 301 747 189 747 q 488 692 426 747 q 550 532 550 636 l 550 172 q 561 135 550 147 q 589 124 572 124 l 622 124 l 622 6 q 592 -37 604 -10 q 579 -92 579 -64 q 595 -142 579 -122 q 643 -162 611 -162 l 674 -162 m 382 324 q 244 297 297 324 q 190 204 190 269 q 210 144 190 165 q 272 122 231 122 q 355 167 328 122 q 382 282 382 211 l 382 324 z "},"å":{"ha":633,"x_min":19,"x_max":622,"o":"m 203 -17 q 77 30 135 -17 q 19 189 19 76 q 114 386 19 328 q 382 444 208 444 l 382 521 q 366 588 382 564 q 306 611 350 611 q 239 588 260 611 q 218 535 218 565 l 218 514 l 56 514 q 54 544 54 522 q 122 692 54 636 q 301 747 189 747 q 488 692 426 747 q 550 532 550 636 l 550 172 q 561 135 550 147 q 589 124 572 124 l 622 124 l 622 6 q 524 -17 581 -17 q 441 9 475 -17 q 394 79 407 35 l 388 79 q 312 7 353 31 q 203 -17 271 -17 m 272 122 q 355 167 328 122 q 382 282 382 211 l 382 324 q 244 297 297 324 q 190 204 190 269 q 210 144 190 165 q 272 122 231 122 m 301 779 q 208 818 247 779 q 168 913 168 857 q 207 1007 168 968 q 301 1046 246 1046 q 396 1006 357 1046 q 435 913 435 967 q 396 818 435 857 q 301 779 357 779 m 301 849 q 347 867 328 849 q 365 913 365 886 q 347 958 365 939 q 301 976 328 976 q 256 958 274 976 q 238 913 238 940 q 256 867 238 886 q 301 849 274 849 z "},"ǻ":{"ha":633,"x_min":19,"x_max":622,"o":"m 203 -17 q 77 30 135 -17 q 19 189 19 76 q 114 386 19 328 q 382 444 208 444 l 382 521 q 366 588 382 564 q 306 611 350 611 q 239 588 260 611 q 218 535 218 565 l 218 514 l 56 514 q 54 544 54 522 q 122 692 54 636 q 301 747 189 747 q 488 692 426 747 q 550 532 550 636 l 550 172 q 561 135 550 147 q 589 124 572 124 l 622 124 l 622 6 q 524 -17 581 -17 q 441 9 475 -17 q 394 79 407 35 l 388 79 q 312 7 353 31 q 203 -17 271 -17 m 272 122 q 355 167 328 122 q 382 282 382 211 l 382 324 q 244 297 297 324 q 190 204 190 269 q 210 144 190 165 q 272 122 231 122 m 301 779 q 208 818 247 779 q 168 913 168 857 q 207 1007 168 968 q 301 1046 246 1046 q 396 1006 357 1046 q 435 913 435 967 q 396 818 435 857 q 301 779 357 779 m 301 849 q 347 867 328 849 q 365 913 365 886 q 347 958 365 939 q 301 976 328 976 q 256 958 274 976 q 238 913 238 940 q 256 867 238 886 q 301 849 274 849 m 325 1278 l 492 1278 l 493 1274 l 343 1094 l 206 1094 l 325 1278 z "},"ã":{"ha":633,"x_min":19,"x_max":622,"o":"m 203 -17 q 77 30 135 -17 q 19 189 19 76 q 114 386 19 328 q 382 444 208 444 l 382 521 q 366 588 382 564 q 306 611 350 611 q 239 588 260 611 q 218 535 218 565 l 218 514 l 56 514 q 54 544 54 522 q 122 692 54 636 q 301 747 189 747 q 488 692 426 747 q 550 532 550 636 l 550 172 q 561 135 550 147 q 589 124 572 124 l 622 124 l 622 6 q 524 -17 581 -17 q 441 9 475 -17 q 394 79 407 35 l 388 79 q 312 7 353 31 q 203 -17 271 -17 m 272 122 q 355 167 328 122 q 382 282 382 211 l 382 324 q 244 297 297 324 q 190 204 190 269 q 210 144 190 165 q 272 122 231 122 m 68 835 q 103 953 68 901 q 204 1004 138 1004 q 246 998 226 1004 q 300 978 265 992 q 349 959 329 965 q 389 953 368 953 q 426 965 413 953 q 443 1004 439 976 l 535 1004 q 500 886 535 938 q 397 835 465 835 q 356 841 375 835 q 303 861 338 847 q 254 880 274 874 q 214 886 235 886 q 160 835 167 886 l 68 835 z "},"æ":{"ha":1013,"x_min":51,"x_max":958,"o":"m 263 -17 q 117 30 183 -17 q 51 189 51 76 q 146 386 51 328 q 414 444 240 444 l 414 521 q 398 588 414 564 q 338 611 382 611 q 271 588 292 611 q 250 535 250 565 l 250 514 l 88 514 q 86 544 86 522 q 153 692 86 636 q 333 747 221 747 q 521 678 456 747 q 694 747 586 747 q 893 654 828 747 q 958 365 958 561 l 958 324 l 588 324 q 615 170 589 221 q 700 119 640 119 q 768 156 743 119 q 793 258 793 193 l 958 258 q 888 53 958 122 q 700 -17 817 -17 q 482 82 551 -17 q 387 9 439 35 q 263 -17 335 -17 m 783 444 q 694 611 783 611 q 618 569 643 611 q 589 444 593 526 l 783 444 m 304 122 q 387 167 360 122 q 414 282 414 211 l 414 324 q 276 297 329 324 q 222 204 222 269 q 242 144 222 165 q 304 122 263 122 z "},"ǽ":{"ha":1013,"x_min":51,"x_max":958,"o":"m 263 -17 q 117 30 183 -17 q 51 189 51 76 q 146 386 51 328 q 414 444 240 444 l 414 521 q 398 588 414 564 q 338 611 382 611 q 271 588 292 611 q 250 535 250 565 l 250 514 l 88 514 q 86 544 86 522 q 153 692 86 636 q 333 747 221 747 q 521 678 456 747 q 694 747 586 747 q 893 654 828 747 q 958 365 958 561 l 958 324 l 588 324 q 615 170 589 221 q 700 119 640 119 q 768 156 743 119 q 793 258 793 193 l 958 258 q 888 53 958 122 q 700 -17 817 -17 q 482 82 551 -17 q 387 9 439 35 q 263 -17 335 -17 m 783 444 q 694 611 783 611 q 618 569 643 611 q 589 444 593 526 l 783 444 m 304 122 q 387 167 360 122 q 414 282 414 211 l 414 324 q 276 297 329 324 q 222 204 222 269 q 242 144 222 165 q 304 122 263 122 m 531 1004 l 697 1004 l 699 1000 l 549 821 l 411 821 l 531 1004 z "},"b":{"ha":696,"x_min":76,"x_max":639,"o":"m 404 -17 q 308 10 351 -17 q 239 90 265 38 l 232 90 l 215 0 l 76 0 l 76 1004 l 243 1004 l 243 656 l 250 656 q 313 723 269 699 q 413 747 357 747 q 577 652 515 747 q 639 367 639 557 q 577 78 639 174 q 404 -17 515 -17 m 354 135 q 439 185 413 135 q 465 339 465 236 l 465 392 q 439 545 465 494 q 354 596 413 596 q 269 544 296 596 q 243 389 243 492 l 243 339 q 269 185 243 236 q 354 135 296 135 z "},"c":{"ha":633,"x_min":57,"x_max":583,"o":"m 333 -17 q 124 76 190 -17 q 57 365 57 168 q 124 654 57 561 q 328 747 192 747 q 516 676 449 747 q 583 456 583 604 l 413 456 q 328 607 413 607 q 253 553 276 607 q 231 392 231 500 l 231 339 q 255 177 231 231 q 333 124 279 124 q 398 161 378 124 q 418 275 418 199 l 583 275 q 518 55 583 126 q 333 -17 453 -17 z "},"ć":{"ha":633,"x_min":57,"x_max":583,"o":"m 333 -17 q 124 76 190 -17 q 57 365 57 168 q 124 654 57 561 q 328 747 192 747 q 516 676 449 747 q 583 456 583 604 l 413 456 q 328 607 413 607 q 253 553 276 607 q 231 392 231 500 l 231 339 q 255 177 231 231 q 333 124 279 124 q 398 161 378 124 q 418 275 418 199 l 583 275 q 518 55 583 126 q 333 -17 453 -17 m 353 1004 l 519 1004 l 521 1000 l 371 821 l 233 821 l 353 1004 z "},"č":{"ha":633,"x_min":57,"x_max":583,"o":"m 333 -17 q 124 76 190 -17 q 57 365 57 168 q 124 654 57 561 q 328 747 192 747 q 516 676 449 747 q 583 456 583 604 l 413 456 q 328 607 413 607 q 253 553 276 607 q 231 392 231 500 l 231 339 q 255 177 231 231 q 333 124 279 124 q 398 161 378 124 q 418 275 418 199 l 583 275 q 518 55 583 126 q 333 -17 453 -17 m 142 1004 l 267 1004 l 329 908 l 390 1004 l 515 1004 l 397 817 l 261 817 l 142 1004 z "},"ç":{"ha":633,"x_min":57,"x_max":583,"o":"m 333 124 q 398 161 378 124 q 418 275 418 199 l 583 275 q 526 65 583 136 q 364 -15 468 -7 l 361 -46 q 440 -72 410 -49 q 471 -140 471 -96 q 424 -228 471 -203 q 319 -253 378 -253 q 203 -242 256 -253 l 203 -174 l 301 -174 q 339 -166 326 -174 q 351 -140 351 -158 q 341 -115 351 -124 q 304 -107 331 -107 l 258 -107 l 271 -11 q 109 99 161 7 q 57 365 57 190 q 124 654 57 561 q 328 747 192 747 q 516 676 449 747 q 583 456 583 604 l 413 456 q 328 607 413 607 q 253 553 276 607 q 231 392 231 500 l 231 339 q 255 177 231 231 q 333 124 279 124 z "},"ĉ":{"ha":633,"x_min":57,"x_max":583,"o":"m 333 -17 q 124 76 190 -17 q 57 365 57 168 q 124 654 57 561 q 328 747 192 747 q 516 676 449 747 q 583 456 583 604 l 413 456 q 328 607 413 607 q 253 553 276 607 q 231 392 231 500 l 231 339 q 255 177 231 231 q 333 124 279 124 q 398 161 378 124 q 418 275 418 199 l 583 275 q 518 55 583 126 q 333 -17 453 -17 m 261 1004 l 397 1004 l 515 817 l 390 817 l 329 913 l 267 817 l 142 817 l 261 1004 z "},"ċ":{"ha":633,"x_min":57,"x_max":583,"o":"m 333 -17 q 124 76 190 -17 q 57 365 57 168 q 124 654 57 561 q 328 747 192 747 q 516 676 449 747 q 583 456 583 604 l 413 456 q 328 607 413 607 q 253 553 276 607 q 231 392 231 500 l 231 339 q 255 177 231 231 q 333 124 279 124 q 398 161 378 124 q 418 275 418 199 l 583 275 q 518 55 583 126 q 333 -17 453 -17 m 244 1004 l 413 1004 l 413 844 l 244 844 l 244 1004 z "},"d":{"ha":696,"x_min":57,"x_max":619,"o":"m 292 -17 q 119 78 181 -17 q 57 367 57 174 q 119 652 57 557 q 283 747 181 747 q 383 723 339 747 q 446 656 426 699 l 453 656 l 453 1004 l 619 1004 l 619 0 l 481 0 l 464 90 l 457 90 q 388 10 431 38 q 292 -17 344 -17 m 342 135 q 426 185 400 135 q 453 339 453 236 l 453 389 q 426 544 453 492 q 342 596 400 596 q 257 545 283 596 q 231 392 231 494 l 231 339 q 257 185 231 236 q 342 135 283 135 z "},"ð":{"ha":696,"x_min":57,"x_max":640,"o":"m 349 -17 q 129 76 201 -17 q 57 365 57 169 q 124 649 57 551 q 310 747 192 747 q 378 736 344 747 l 382 742 q 329 826 363 779 l 150 811 l 150 913 l 254 922 q 181 999 236 943 l 183 1004 l 358 1004 q 428 938 392 976 l 608 954 l 608 853 l 504 843 q 640 365 640 644 q 568 76 640 169 q 349 -17 496 -17 m 349 124 q 439 177 411 124 q 467 339 467 231 l 467 392 q 439 553 467 500 q 349 607 411 607 q 258 553 286 607 q 231 392 231 500 l 231 339 q 258 177 231 231 q 349 124 286 124 z "},"ď":{"ha":696,"x_min":57,"x_max":853,"o":"m 292 -17 q 119 78 181 -17 q 57 367 57 174 q 119 652 57 557 q 283 747 181 747 q 383 723 339 747 q 446 656 426 699 l 453 656 l 453 1004 l 619 1004 l 619 0 l 481 0 l 464 90 l 457 90 q 388 10 431 38 q 292 -17 344 -17 m 342 135 q 426 185 400 135 q 453 339 453 236 l 453 389 q 426 544 453 492 q 342 596 400 596 q 257 545 283 596 q 231 392 231 494 l 231 339 q 257 185 231 236 q 342 135 283 135 m 717 1004 l 853 1004 l 761 758 l 661 758 l 717 1004 z "},"đ":{"ha":696,"x_min":57,"x_max":694,"o":"m 694 810 l 619 810 l 619 0 l 481 0 l 464 90 l 457 90 q 388 10 431 38 q 292 -17 344 -17 q 119 78 181 -17 q 57 367 57 174 q 119 652 57 557 q 283 747 181 747 q 383 723 339 747 q 446 656 426 699 l 453 656 l 453 810 l 269 810 l 269 931 l 453 931 l 453 1004 l 619 1004 l 619 931 l 694 931 l 694 810 m 453 389 q 426 544 453 492 q 342 596 400 596 q 257 545 283 596 q 231 392 231 494 l 231 339 q 257 185 231 236 q 342 135 283 135 q 426 185 400 135 q 453 339 453 236 l 453 389 z "},"ǆ":{"ha":1265,"x_min":57,"x_max":1240,"o":"m 292 -17 q 119 78 181 -17 q 57 367 57 174 q 119 652 57 557 q 283 747 181 747 q 383 723 339 747 q 446 656 426 699 l 453 656 l 453 1004 l 619 1004 l 619 0 l 481 0 l 464 90 l 457 90 q 388 10 431 38 q 292 -17 344 -17 m 342 135 q 426 185 400 135 q 453 339 453 236 l 453 389 q 426 544 453 492 q 342 596 400 596 q 257 545 283 596 q 231 392 231 494 l 231 339 q 257 185 231 236 q 342 135 283 135 m 721 71 l 1004 590 l 738 590 l 738 731 l 1231 731 l 1231 661 l 946 140 l 1240 140 l 1240 0 l 721 0 l 721 71 m 793 1004 l 918 1004 l 981 908 l 1042 1004 l 1167 1004 l 1049 817 l 913 817 l 793 1004 z "},"e":{"ha":633,"x_min":43,"x_max":588,"o":"m 329 -17 q 115 77 186 -17 q 43 365 43 171 q 324 747 43 747 q 522 654 457 747 q 588 365 588 561 l 588 324 l 217 324 q 244 170 218 221 q 329 119 269 119 q 397 156 372 119 q 422 258 422 193 l 588 258 q 517 53 588 122 q 329 -17 446 -17 m 413 444 q 324 611 413 611 q 247 569 272 611 q 218 444 222 526 l 413 444 z "},"é":{"ha":633,"x_min":43,"x_max":588,"o":"m 329 -17 q 115 77 186 -17 q 43 365 43 171 q 324 747 43 747 q 522 654 457 747 q 588 365 588 561 l 588 324 l 217 324 q 244 170 218 221 q 329 119 269 119 q 397 156 372 119 q 422 258 422 193 l 588 258 q 517 53 588 122 q 329 -17 446 -17 m 413 444 q 324 611 413 611 q 247 569 272 611 q 218 444 222 526 l 413 444 m 340 1004 l 507 1004 l 508 1000 l 358 821 l 221 821 l 340 1004 z "},"ĕ":{"ha":633,"x_min":43,"x_max":588,"o":"m 329 -17 q 115 77 186 -17 q 43 365 43 171 q 324 747 43 747 q 522 654 457 747 q 588 365 588 561 l 588 324 l 217 324 q 244 170 218 221 q 329 119 269 119 q 397 156 372 119 q 422 258 422 193 l 588 258 q 517 53 588 122 q 329 -17 446 -17 m 413 444 q 324 611 413 611 q 247 569 272 611 q 218 444 222 526 l 413 444 m 315 800 q 219 822 261 800 q 153 878 176 844 q 131 949 131 913 l 233 949 q 260 917 238 932 q 315 903 283 903 q 372 917 349 903 q 399 949 396 932 l 501 949 q 478 878 501 913 q 413 822 456 844 q 315 800 371 800 z "},"ě":{"ha":633,"x_min":43,"x_max":588,"o":"m 329 -17 q 115 77 186 -17 q 43 365 43 171 q 324 747 43 747 q 522 654 457 747 q 588 365 588 561 l 588 324 l 217 324 q 244 170 218 221 q 329 119 269 119 q 397 156 372 119 q 422 258 422 193 l 588 258 q 517 53 588 122 q 329 -17 446 -17 m 413 444 q 324 611 413 611 q 247 569 272 611 q 218 444 222 526 l 413 444 m 129 1004 l 254 1004 l 317 908 l 378 1004 l 503 1004 l 385 817 l 249 817 l 129 1004 z "},"ê":{"ha":633,"x_min":43,"x_max":588,"o":"m 329 -17 q 115 77 186 -17 q 43 365 43 171 q 324 747 43 747 q 522 654 457 747 q 588 365 588 561 l 588 324 l 217 324 q 244 170 218 221 q 329 119 269 119 q 397 156 372 119 q 422 258 422 193 l 588 258 q 517 53 588 122 q 329 -17 446 -17 m 413 444 q 324 611 413 611 q 247 569 272 611 q 218 444 222 526 l 413 444 m 249 1004 l 385 1004 l 503 817 l 378 817 l 317 913 l 254 817 l 129 817 l 249 1004 z "},"ế":{"ha":633,"x_min":43,"x_max":588,"o":"m 329 -17 q 115 77 186 -17 q 43 365 43 171 q 324 747 43 747 q 522 654 457 747 q 588 365 588 561 l 588 324 l 217 324 q 244 170 218 221 q 329 119 269 119 q 397 156 372 119 q 422 258 422 193 l 588 258 q 517 53 588 122 q 329 -17 446 -17 m 413 444 q 324 611 413 611 q 247 569 272 611 q 218 444 222 526 l 413 444 m 249 1004 l 385 1004 l 503 817 l 378 817 l 317 913 l 254 817 l 129 817 l 249 1004 m 340 1236 l 507 1236 l 508 1232 l 358 1053 l 221 1053 l 340 1236 z "},"ệ":{"ha":633,"x_min":43,"x_max":588,"o":"m 329 -17 q 115 77 186 -17 q 43 365 43 171 q 324 747 43 747 q 522 654 457 747 q 588 365 588 561 l 588 324 l 217 324 q 244 170 218 221 q 329 119 269 119 q 397 156 372 119 q 422 258 422 193 l 588 258 q 517 53 588 122 q 329 -17 446 -17 m 413 444 q 324 611 413 611 q 247 569 272 611 q 218 444 222 526 l 413 444 m 235 -93 l 397 -93 l 397 -253 l 235 -253 l 235 -93 m 249 1004 l 385 1004 l 503 817 l 378 817 l 317 913 l 254 817 l 129 817 l 249 1004 z "},"ề":{"ha":633,"x_min":43,"x_max":588,"o":"m 329 -17 q 115 77 186 -17 q 43 365 43 171 q 324 747 43 747 q 522 654 457 747 q 588 365 588 561 l 588 324 l 217 324 q 244 170 218 221 q 329 119 269 119 q 397 156 372 119 q 422 258 422 193 l 588 258 q 517 53 588 122 q 329 -17 446 -17 m 413 444 q 324 611 413 611 q 247 569 272 611 q 218 444 222 526 l 413 444 m 249 1004 l 385 1004 l 503 817 l 378 817 l 317 913 l 254 817 l 129 817 l 249 1004 m 125 1232 l 126 1236 l 293 1236 l 413 1053 l 275 1053 l 125 1232 z "},"ể":{"ha":633,"x_min":43,"x_max":588,"o":"m 329 -17 q 115 77 186 -17 q 43 365 43 171 q 324 747 43 747 q 522 654 457 747 q 588 365 588 561 l 588 324 l 217 324 q 244 170 218 221 q 329 119 269 119 q 397 156 372 119 q 422 258 422 193 l 588 258 q 517 53 588 122 q 329 -17 446 -17 m 413 444 q 324 611 413 611 q 247 569 272 611 q 218 444 222 526 l 413 444 m 249 1004 l 385 1004 l 503 817 l 378 817 l 317 913 l 254 817 l 129 817 l 249 1004 m 271 1117 l 290 1117 q 324 1123 314 1117 q 333 1143 333 1129 q 322 1164 333 1158 q 286 1169 310 1169 l 219 1169 l 219 1228 q 315 1239 264 1239 q 410 1220 369 1239 q 451 1154 451 1201 q 426 1097 451 1117 q 360 1075 400 1078 l 360 1046 l 271 1046 l 271 1117 z "},"ễ":{"ha":633,"x_min":43,"x_max":588,"o":"m 329 -17 q 115 77 186 -17 q 43 365 43 171 q 324 747 43 747 q 522 654 457 747 q 588 365 588 561 l 588 324 l 217 324 q 244 170 218 221 q 329 119 269 119 q 397 156 372 119 q 422 258 422 193 l 588 258 q 517 53 588 122 q 329 -17 446 -17 m 413 444 q 324 611 413 611 q 247 569 272 611 q 218 444 222 526 l 413 444 m 249 1004 l 385 1004 l 503 817 l 378 817 l 317 913 l 254 817 l 129 817 l 249 1004 m 83 1067 q 118 1185 83 1133 q 219 1236 153 1236 q 261 1230 242 1236 q 315 1210 281 1224 q 364 1191 344 1197 q 404 1185 383 1185 q 441 1197 428 1185 q 458 1236 454 1208 l 550 1236 q 515 1118 550 1169 q 413 1067 481 1067 q 372 1073 390 1067 q 318 1093 353 1079 q 269 1112 289 1106 q 229 1118 250 1118 q 175 1067 182 1118 l 83 1067 z "},"ȅ":{"ha":633,"x_min":43,"x_max":588,"o":"m 329 -17 q 115 77 186 -17 q 43 365 43 171 q 324 747 43 747 q 522 654 457 747 q 588 365 588 561 l 588 324 l 217 324 q 244 170 218 221 q 329 119 269 119 q 397 156 372 119 q 422 258 422 193 l 588 258 q 517 53 588 122 q 329 -17 446 -17 m 413 444 q 324 611 413 611 q 247 569 272 611 q 218 444 222 526 l 413 444 m 60 1000 l 61 1004 l 203 1004 l 289 821 l 176 821 l 60 1000 m 257 1000 l 258 1004 l 394 1004 l 481 821 l 374 821 l 257 1000 z "},"ë":{"ha":633,"x_min":43,"x_max":588,"o":"m 329 -17 q 115 77 186 -17 q 43 365 43 171 q 324 747 43 747 q 522 654 457 747 q 588 365 588 561 l 588 324 l 217 324 q 244 170 218 221 q 329 119 269 119 q 397 156 372 119 q 422 258 422 193 l 588 258 q 517 53 588 122 q 329 -17 446 -17 m 413 444 q 324 611 413 611 q 247 569 272 611 q 218 444 222 526 l 413 444 m 125 1004 l 264 1004 l 264 853 l 125 853 l 125 1004 m 368 1004 l 507 1004 l 507 853 l 368 853 l 368 1004 z "},"ė":{"ha":633,"x_min":43,"x_max":588,"o":"m 329 -17 q 115 77 186 -17 q 43 365 43 171 q 324 747 43 747 q 522 654 457 747 q 588 365 588 561 l 588 324 l 217 324 q 244 170 218 221 q 329 119 269 119 q 397 156 372 119 q 422 258 422 193 l 588 258 q 517 53 588 122 q 329 -17 446 -17 m 413 444 q 324 611 413 611 q 247 569 272 611 q 218 444 222 526 l 413 444 m 232 1004 l 400 1004 l 400 844 l 232 844 l 232 1004 z "},"ẹ":{"ha":633,"x_min":43,"x_max":588,"o":"m 329 -17 q 115 77 186 -17 q 43 365 43 171 q 324 747 43 747 q 522 654 457 747 q 588 365 588 561 l 588 324 l 217 324 q 244 170 218 221 q 329 119 269 119 q 397 156 372 119 q 422 258 422 193 l 588 258 q 517 53 588 122 q 329 -17 446 -17 m 413 444 q 324 611 413 611 q 247 569 272 611 q 218 444 222 526 l 413 444 m 235 -93 l 397 -93 l 397 -253 l 235 -253 l 235 -93 z "},"è":{"ha":633,"x_min":43,"x_max":588,"o":"m 329 -17 q 115 77 186 -17 q 43 365 43 171 q 324 747 43 747 q 522 654 457 747 q 588 365 588 561 l 588 324 l 217 324 q 244 170 218 221 q 329 119 269 119 q 397 156 372 119 q 422 258 422 193 l 588 258 q 517 53 588 122 q 329 -17 446 -17 m 413 444 q 324 611 413 611 q 247 569 272 611 q 218 444 222 526 l 413 444 m 125 1000 l 126 1004 l 293 1004 l 413 821 l 275 821 l 125 1000 z "},"ẻ":{"ha":633,"x_min":43,"x_max":588,"o":"m 329 -17 q 115 77 186 -17 q 43 365 43 171 q 324 747 43 747 q 522 654 457 747 q 588 365 588 561 l 588 324 l 217 324 q 244 170 218 221 q 329 119 269 119 q 397 156 372 119 q 422 258 422 193 l 588 258 q 517 53 588 122 q 329 -17 446 -17 m 413 444 q 324 611 413 611 q 247 569 272 611 q 218 444 222 526 l 413 444 m 271 885 l 290 885 q 324 891 314 885 q 333 911 333 897 q 322 932 333 926 q 286 938 310 938 l 219 938 l 219 996 q 315 1007 264 1007 q 410 988 369 1007 q 451 922 451 969 q 426 865 451 885 q 360 843 400 846 l 360 814 l 271 814 l 271 885 z "},"ȇ":{"ha":633,"x_min":43,"x_max":588,"o":"m 329 -17 q 115 77 186 -17 q 43 365 43 171 q 324 747 43 747 q 522 654 457 747 q 588 365 588 561 l 588 324 l 217 324 q 244 170 218 221 q 329 119 269 119 q 397 156 372 119 q 422 258 422 193 l 588 258 q 517 53 588 122 q 329 -17 446 -17 m 413 444 q 324 611 413 611 q 247 569 272 611 q 218 444 222 526 l 413 444 m 131 828 q 153 898 131 864 q 219 954 176 932 q 315 976 261 976 q 413 954 371 976 q 478 898 456 932 q 501 828 501 864 l 399 828 q 372 859 396 844 q 315 874 349 874 q 260 859 283 874 q 233 828 238 844 l 131 828 z "},"ē":{"ha":633,"x_min":43,"x_max":588,"o":"m 329 -17 q 115 77 186 -17 q 43 365 43 171 q 324 747 43 747 q 522 654 457 747 q 588 365 588 561 l 588 324 l 217 324 q 244 170 218 221 q 329 119 269 119 q 397 156 372 119 q 422 258 422 193 l 588 258 q 517 53 588 122 q 329 -17 446 -17 m 413 444 q 324 611 413 611 q 247 569 272 611 q 218 444 222 526 l 413 444 m 139 953 l 493 953 l 493 832 l 139 832 l 139 953 z "},"ę":{"ha":633,"x_min":43,"x_max":588,"o":"m 588 324 l 217 324 q 244 170 218 221 q 329 119 269 119 q 397 156 372 119 q 422 258 422 193 l 588 258 q 551 99 588 163 q 450 7 515 36 q 419 -35 432 -8 q 407 -90 407 -62 q 423 -141 407 -121 q 471 -161 439 -161 l 501 -161 l 501 -237 q 410 -257 451 -257 q 313 -227 353 -257 q 272 -132 272 -197 q 315 -17 272 -74 q 111 81 179 -12 q 43 365 43 175 q 324 747 43 747 q 522 654 457 747 q 588 365 588 561 l 588 324 m 413 444 q 324 611 413 611 q 247 569 272 611 q 218 444 222 526 l 413 444 z "},"ẽ":{"ha":633,"x_min":43,"x_max":588,"o":"m 329 -17 q 115 77 186 -17 q 43 365 43 171 q 324 747 43 747 q 522 654 457 747 q 588 365 588 561 l 588 324 l 217 324 q 244 170 218 221 q 329 119 269 119 q 397 156 372 119 q 422 258 422 193 l 588 258 q 517 53 588 122 q 329 -17 446 -17 m 413 444 q 324 611 413 611 q 247 569 272 611 q 218 444 222 526 l 413 444 m 83 835 q 118 953 83 901 q 219 1004 153 1004 q 261 998 242 1004 q 315 978 281 992 q 364 959 344 965 q 404 953 383 953 q 441 965 428 953 q 458 1004 454 976 l 550 1004 q 515 886 550 938 q 413 835 481 835 q 372 841 390 835 q 318 861 353 847 q 269 880 289 874 q 229 886 250 886 q 175 835 182 886 l 83 835 z "},"ə":{"ha":633,"x_min":46,"x_max":590,"o":"m 304 747 q 519 653 447 747 q 590 365 590 560 q 310 -17 590 -17 q 111 76 176 -17 q 46 365 46 169 l 46 407 l 417 407 q 390 560 415 510 q 304 611 364 611 q 236 574 261 611 q 211 472 211 538 l 46 472 q 117 678 46 608 q 304 747 188 747 m 221 286 q 310 119 221 119 q 386 162 361 119 q 415 286 411 204 l 221 286 z "},"f":{"ha":379,"x_min":13,"x_max":379,"o":"m 86 590 l 13 590 l 13 731 l 86 731 l 86 819 q 126 959 86 903 q 258 1015 167 1015 q 322 1010 286 1015 q 379 999 357 1006 l 379 875 l 311 875 q 268 860 283 875 q 253 815 253 844 l 253 731 l 379 731 l 379 590 l 253 590 l 253 0 l 86 0 l 86 590 z "},"g":{"ha":696,"x_min":22,"x_max":688,"o":"m 183 -253 q 69 -206 115 -253 q 22 -85 22 -158 q 115 64 22 13 q 57 174 57 100 q 87 252 57 219 q 164 301 117 285 q 75 499 75 367 q 145 681 75 614 q 344 747 215 747 q 467 726 414 747 q 521 790 504 753 q 538 853 538 826 l 675 853 q 557 667 675 703 q 615 499 615 601 q 545 317 615 383 q 344 250 475 250 l 275 250 q 239 238 253 250 q 225 206 225 225 q 238 175 225 188 q 268 163 250 163 l 521 163 q 640 110 592 163 q 688 -28 688 58 q 656 -146 688 -94 q 571 -225 625 -197 q 451 -253 517 -253 l 183 -253 m 344 374 q 422 406 396 374 q 449 499 449 439 q 422 591 449 558 q 344 624 396 624 q 268 591 294 624 q 242 499 242 558 q 268 406 242 439 q 344 374 294 374 m 444 -126 q 498 -108 476 -126 q 519 -58 519 -89 q 500 -10 519 -28 q 451 8 481 8 l 257 8 q 210 -11 229 8 q 190 -58 190 -31 q 209 -108 190 -89 q 257 -126 228 -126 l 444 -126 z "},"ğ":{"ha":696,"x_min":22,"x_max":688,"o":"m 183 -253 q 69 -206 115 -253 q 22 -85 22 -158 q 115 64 22 13 q 57 174 57 100 q 87 252 57 219 q 164 301 117 285 q 75 499 75 367 q 145 681 75 614 q 344 747 215 747 q 467 726 414 747 q 521 790 504 753 q 538 853 538 826 l 675 853 q 557 667 675 703 q 615 499 615 601 q 545 317 615 383 q 344 250 475 250 l 275 250 q 239 238 253 250 q 225 206 225 225 q 238 175 225 188 q 268 163 250 163 l 521 163 q 640 110 592 163 q 688 -28 688 58 q 656 -146 688 -94 q 571 -225 625 -197 q 451 -253 517 -253 l 183 -253 m 344 374 q 422 406 396 374 q 449 499 449 439 q 422 591 449 558 q 344 624 396 624 q 268 591 294 624 q 242 499 242 558 q 268 406 242 439 q 344 374 294 374 m 444 -126 q 498 -108 476 -126 q 519 -58 519 -89 q 500 -10 519 -28 q 451 8 481 8 l 257 8 q 210 -11 229 8 q 190 -58 190 -31 q 209 -108 190 -89 q 257 -126 228 -126 l 444 -126 m 346 800 q 249 822 292 800 q 184 878 207 844 q 161 949 161 913 l 264 949 q 291 917 268 932 q 346 903 314 903 q 403 917 379 903 q 429 949 426 932 l 532 949 q 509 878 532 913 q 444 822 486 844 q 346 800 401 800 z "},"ǧ":{"ha":696,"x_min":22,"x_max":688,"o":"m 183 -253 q 69 -206 115 -253 q 22 -85 22 -158 q 115 64 22 13 q 57 174 57 100 q 87 252 57 219 q 164 301 117 285 q 75 499 75 367 q 145 681 75 614 q 344 747 215 747 q 467 726 414 747 q 521 790 504 753 q 538 853 538 826 l 675 853 q 557 667 675 703 q 615 499 615 601 q 545 317 615 383 q 344 250 475 250 l 275 250 q 239 238 253 250 q 225 206 225 225 q 238 175 225 188 q 268 163 250 163 l 521 163 q 640 110 592 163 q 688 -28 688 58 q 656 -146 688 -94 q 571 -225 625 -197 q 451 -253 517 -253 l 183 -253 m 344 374 q 422 406 396 374 q 449 499 449 439 q 422 591 449 558 q 344 624 396 624 q 268 591 294 624 q 242 499 242 558 q 268 406 242 439 q 344 374 294 374 m 444 -126 q 498 -108 476 -126 q 519 -58 519 -89 q 500 -10 519 -28 q 451 8 481 8 l 257 8 q 210 -11 229 8 q 190 -58 190 -31 q 209 -108 190 -89 q 257 -126 228 -126 l 444 -126 m 160 1004 l 285 1004 l 347 908 l 408 1004 l 533 1004 l 415 817 l 279 817 l 160 1004 z "},"ĝ":{"ha":696,"x_min":22,"x_max":688,"o":"m 286 1004 l 410 1004 l 515 817 l 403 817 l 349 913 l 292 817 l 179 817 l 286 1004 m 183 -253 q 69 -206 115 -253 q 22 -85 22 -158 q 115 64 22 13 q 57 174 57 100 q 87 252 57 219 q 164 301 117 285 q 75 499 75 367 q 145 681 75 614 q 344 747 215 747 q 467 726 414 747 q 521 790 504 753 q 538 853 538 826 l 675 853 q 557 667 675 703 q 615 499 615 601 q 545 317 615 383 q 344 250 475 250 l 275 250 q 239 238 253 250 q 225 206 225 225 q 238 175 225 188 q 268 163 250 163 l 521 163 q 640 110 592 163 q 688 -28 688 58 q 656 -146 688 -94 q 571 -225 625 -197 q 451 -253 517 -253 l 183 -253 m 344 374 q 422 406 396 374 q 449 499 449 439 q 422 591 449 558 q 344 624 396 624 q 268 591 294 624 q 242 499 242 558 q 268 406 242 439 q 344 374 294 374 m 444 -126 q 498 -108 476 -126 q 519 -58 519 -89 q 500 -10 519 -28 q 451 8 481 8 l 257 8 q 210 -11 229 8 q 190 -58 190 -31 q 209 -108 190 -89 q 257 -126 228 -126 l 444 -126 z "},"ģ":{"ha":696,"x_min":22,"x_max":688,"o":"m 183 -253 q 69 -206 115 -253 q 22 -85 22 -158 q 115 64 22 13 q 57 174 57 100 q 87 252 57 219 q 164 301 117 285 q 75 499 75 367 q 145 681 75 614 q 344 747 215 747 q 467 726 414 747 q 521 790 504 753 q 538 853 538 826 l 675 853 q 557 667 675 703 q 615 499 615 601 q 545 317 615 383 q 344 250 475 250 l 275 250 q 239 238 253 250 q 225 206 225 225 q 238 175 225 188 q 268 163 250 163 l 521 163 q 640 110 592 163 q 688 -28 688 58 q 656 -146 688 -94 q 571 -225 625 -197 q 451 -253 517 -253 l 183 -253 m 344 374 q 422 406 396 374 q 449 499 449 439 q 422 591 449 558 q 344 624 396 624 q 268 591 294 624 q 242 499 242 558 q 268 406 242 439 q 344 374 294 374 m 444 -126 q 498 -108 476 -126 q 519 -58 519 -89 q 500 -10 519 -28 q 451 8 481 8 l 257 8 q 210 -11 229 8 q 190 -58 190 -31 q 209 -108 190 -89 q 257 -126 228 -126 l 444 -126 m 260 983 l 324 1117 l 433 1117 l 382 999 l 428 999 l 428 844 l 260 844 l 260 983 z "},"ġ":{"ha":696,"x_min":22,"x_max":688,"o":"m 183 -253 q 69 -206 115 -253 q 22 -85 22 -158 q 115 64 22 13 q 57 174 57 100 q 87 252 57 219 q 164 301 117 285 q 75 499 75 367 q 145 681 75 614 q 344 747 215 747 q 467 726 414 747 q 521 790 504 753 q 538 853 538 826 l 675 853 q 557 667 675 703 q 615 499 615 601 q 545 317 615 383 q 344 250 475 250 l 275 250 q 239 238 253 250 q 225 206 225 225 q 238 175 225 188 q 268 163 250 163 l 521 163 q 640 110 592 163 q 688 -28 688 58 q 656 -146 688 -94 q 571 -225 625 -197 q 451 -253 517 -253 l 183 -253 m 344 374 q 422 406 396 374 q 449 499 449 439 q 422 591 449 558 q 344 624 396 624 q 268 591 294 624 q 242 499 242 558 q 268 406 242 439 q 344 374 294 374 m 444 -126 q 498 -108 476 -126 q 519 -58 519 -89 q 500 -10 519 -28 q 451 8 481 8 l 257 8 q 210 -11 229 8 q 190 -58 190 -31 q 209 -108 190 -89 q 257 -126 228 -126 l 444 -126 m 263 1004 l 431 1004 l 431 844 l 263 844 l 263 1004 z "},"h":{"ha":696,"x_min":76,"x_max":619,"o":"m 76 1004 l 243 1004 l 243 653 l 249 653 q 321 720 276 693 q 425 747 365 747 q 567 691 515 747 q 619 513 619 635 l 619 0 l 453 0 l 453 467 q 428 565 453 535 q 357 596 404 596 q 276 553 308 596 q 243 450 243 511 l 243 0 l 76 0 l 76 1004 z "},"ħ":{"ha":696,"x_min":0,"x_max":619,"o":"m 425 747 q 567 691 515 747 q 619 513 619 635 l 619 0 l 453 0 l 453 467 q 428 565 453 535 q 357 596 404 596 q 276 553 308 596 q 243 450 243 511 l 243 0 l 76 0 l 76 824 l 0 824 l 0 918 l 76 918 l 76 1004 l 243 1004 l 243 918 l 425 918 l 425 824 l 243 824 l 243 653 l 249 653 q 321 720 276 693 q 425 747 365 747 z "},"ĥ":{"ha":696,"x_min":-32,"x_max":619,"o":"m 76 1004 l 243 1004 l 243 653 l 249 653 q 321 720 276 693 q 425 747 365 747 q 567 691 515 747 q 619 513 619 635 l 619 0 l 453 0 l 453 467 q 428 565 453 535 q 357 596 404 596 q 276 553 308 596 q 243 450 243 511 l 243 0 l 76 0 l 76 1004 m 88 1185 l 224 1185 l 342 1039 l 217 1039 l 156 1093 l 93 1039 l -32 1039 l 88 1185 z "},"i":{"ha":317,"x_min":74,"x_max":242,"o":"m 75 731 l 242 731 l 242 0 l 75 0 l 75 731 m 74 1004 l 242 1004 l 242 844 l 74 844 l 74 1004 z "},"ı":{"ha":317,"x_min":75,"x_max":242,"o":"m 75 731 l 242 731 l 242 0 l 75 0 l 75 731 z "},"í":{"ha":317,"x_min":63,"x_max":350,"o":"m 75 731 l 242 731 l 242 0 l 75 0 l 75 731 m 182 1004 l 349 1004 l 350 1000 l 200 821 l 63 821 l 182 1004 z "},"ĭ":{"ha":317,"x_min":-28,"x_max":343,"o":"m 75 731 l 242 731 l 242 0 l 75 0 l 75 731 m 157 800 q 60 822 103 800 q -5 878 18 844 q -28 949 -28 913 l 75 949 q 102 917 79 932 q 157 903 125 903 q 214 917 190 903 q 240 949 238 932 l 343 949 q 320 878 343 913 q 255 822 297 844 q 157 800 213 800 z "},"ǐ":{"ha":317,"x_min":-29,"x_max":344,"o":"m 75 731 l 242 731 l 242 0 l 75 0 l 75 731 m -29 1004 l 96 1004 l 158 908 l 219 1004 l 344 1004 l 226 817 l 90 817 l -29 1004 z "},"î":{"ha":317,"x_min":-29,"x_max":344,"o":"m 75 731 l 242 731 l 242 0 l 75 0 l 75 731 m 90 1004 l 226 1004 l 344 817 l 219 817 l 158 913 l 96 817 l -29 817 l 90 1004 z "},"ȉ":{"ha":317,"x_min":-99,"x_max":322,"o":"m 75 731 l 242 731 l 242 0 l 75 0 l 75 731 m -99 1000 l -97 1004 l 44 1004 l 131 821 l 18 821 l -99 1000 m 99 1000 l 100 1004 l 236 1004 l 322 821 l 215 821 l 99 1000 z "},"ï":{"ha":317,"x_min":-33,"x_max":349,"o":"m 75 731 l 242 731 l 242 0 l 75 0 l 75 731 m -33 1004 l 106 1004 l 106 853 l -33 853 l -33 1004 m 210 1004 l 349 1004 l 349 853 l 210 853 l 210 1004 z "},"ị":{"ha":317,"x_min":74,"x_max":242,"o":"m 75 731 l 242 731 l 242 0 l 75 0 l 75 731 m 74 1004 l 242 1004 l 242 844 l 74 844 l 74 1004 m 76 -93 l 239 -93 l 239 -253 l 76 -253 l 76 -93 z "},"ì":{"ha":317,"x_min":-33,"x_max":254,"o":"m 75 731 l 242 731 l 242 0 l 75 0 l 75 731 m -33 1000 l -32 1004 l 135 1004 l 254 821 l 117 821 l -33 1000 z "},"ỉ":{"ha":317,"x_min":61,"x_max":293,"o":"m 75 731 l 242 731 l 242 0 l 75 0 l 75 731 m 113 885 l 132 885 q 165 891 156 885 q 175 911 175 897 q 163 932 175 926 q 128 938 151 938 l 61 938 l 61 996 q 157 1007 106 1007 q 252 988 211 1007 q 293 922 293 969 q 267 865 293 885 q 201 843 242 846 l 201 814 l 113 814 l 113 885 z "},"ȋ":{"ha":317,"x_min":-28,"x_max":343,"o":"m 75 731 l 242 731 l 242 0 l 75 0 l 75 731 m -28 828 q -5 898 -28 864 q 60 954 18 932 q 157 976 103 976 q 255 954 213 976 q 320 898 297 932 q 343 828 343 864 l 240 828 q 214 859 238 844 q 157 874 190 874 q 102 859 125 874 q 75 828 79 844 l -28 828 z "},"ĳ":{"ha":633,"x_min":74,"x_max":558,"o":"m 75 731 l 242 731 l 242 0 l 75 0 l 75 731 m 74 1004 l 242 1004 l 242 844 l 74 844 l 74 1004 m 389 -253 q 324 -248 360 -253 q 265 -236 289 -243 l 265 -112 l 326 -112 q 392 -46 392 -112 l 392 731 l 558 731 l 558 -57 q 519 -197 558 -142 q 389 -253 481 -253 m 390 1004 l 558 1004 l 558 844 l 390 844 l 390 1004 z "},"ī":{"ha":317,"x_min":-19,"x_max":335,"o":"m 75 731 l 242 731 l 242 0 l 75 0 l 75 731 m -19 953 l 335 953 l 335 832 l -19 832 l -19 953 z "},"į":{"ha":317,"x_min":44,"x_max":274,"o":"m 242 844 l 74 844 l 74 1004 l 242 1004 l 242 844 m 274 -168 l 274 -244 q 182 -264 224 -264 q 85 -234 125 -264 q 44 -139 44 -204 q 62 -67 44 -104 q 106 0 79 -29 l 75 0 l 75 731 l 242 731 l 242 0 l 222 0 q 192 -42 204 -15 q 179 -97 179 -69 q 195 -148 179 -128 q 243 -168 211 -168 l 274 -168 z "},"ĩ":{"ha":317,"x_min":-75,"x_max":392,"o":"m 75 731 l 242 731 l 242 0 l 75 0 l 75 731 m -75 835 q -40 953 -75 901 q 61 1004 -6 1004 q 103 998 83 1004 q 157 978 122 992 q 206 959 186 965 q 246 953 225 953 q 283 965 269 953 q 300 1004 296 976 l 392 1004 q 357 886 392 938 q 254 835 322 835 q 213 841 232 835 q 160 861 194 847 q 111 880 131 874 q 71 886 92 886 q 17 835 24 886 l -75 835 z "},"j":{"ha":317,"x_min":-51,"x_max":242,"o":"m 72 -253 q 8 -248 43 -253 q -51 -236 -28 -243 l -51 -112 l 10 -112 q 75 -46 75 -112 l 75 731 l 242 731 l 242 -57 q 203 -197 242 -142 q 72 -253 164 -253 m 74 1004 l 242 1004 l 242 844 l 74 844 l 74 1004 z "},"ȷ":{"ha":317,"x_min":-51,"x_max":242,"o":"m 72 -253 q 8 -248 43 -253 q -51 -236 -28 -243 l -51 -112 l 10 -112 q 75 -46 75 -112 l 75 731 l 242 731 l 242 -57 q 203 -197 242 -142 q 72 -253 164 -253 z "},"ĵ":{"ha":317,"x_min":-51,"x_max":344,"o":"m 72 -253 q 8 -248 43 -253 q -51 -236 -28 -243 l -51 -112 l 10 -112 q 75 -46 75 -112 l 75 731 l 242 731 l 242 -57 q 203 -197 242 -142 q 72 -253 164 -253 m 90 1004 l 226 1004 l 344 817 l 219 817 l 158 913 l 96 817 l -29 817 l 90 1004 z "},"k":{"ha":633,"x_min":75,"x_max":635,"o":"m 75 1004 l 242 1004 l 242 440 l 446 731 l 624 731 l 407 433 l 635 0 l 450 0 l 303 303 l 242 228 l 242 0 l 75 0 l 75 1004 z "},"ķ":{"ha":633,"x_min":75,"x_max":635,"o":"m 75 1004 l 242 1004 l 242 440 l 446 731 l 624 731 l 407 433 l 635 0 l 450 0 l 303 303 l 242 228 l 242 0 l 75 0 l 75 1004 m 289 -247 l 244 -247 l 244 -93 l 393 -93 l 393 -232 l 329 -365 l 239 -365 l 289 -247 z "},"ĸ":{"ha":635,"x_min":75,"x_max":635,"o":"m 75 731 l 242 731 l 242 440 l 446 731 l 624 731 l 407 433 l 635 0 l 450 0 l 303 303 l 242 228 l 242 0 l 75 0 l 75 731 z "},"l":{"ha":317,"x_min":75,"x_max":242,"o":"m 75 1004 l 242 1004 l 242 0 l 75 0 l 75 1004 z "},"ĺ":{"ha":317,"x_min":56,"x_max":329,"o":"m 75 1004 l 242 1004 l 242 0 l 75 0 l 75 1004 m 147 1204 l 328 1204 l 329 1200 l 207 1063 l 56 1063 l 147 1204 z "},"ľ":{"ha":317,"x_min":75,"x_max":475,"o":"m 75 1004 l 242 1004 l 242 0 l 75 0 l 75 1004 m 339 1004 l 475 1004 l 383 758 l 283 758 l 339 1004 z "},"ļ":{"ha":317,"x_min":75,"x_max":242,"o":"m 75 1004 l 242 1004 l 242 0 l 75 0 l 75 1004 m 131 -247 l 86 -247 l 86 -93 l 235 -93 l 235 -232 l 171 -365 l 81 -365 l 131 -247 z "},"ŀ":{"ha":317,"x_min":75,"x_max":469,"o":"m 75 1004 l 242 1004 l 242 0 l 75 0 l 75 1004 m 292 590 l 469 590 l 469 417 l 292 417 l 292 590 z "},"ǉ":{"ha":633,"x_min":75,"x_max":558,"o":"m 75 1004 l 242 1004 l 242 0 l 75 0 l 75 1004 m 389 -253 q 324 -248 360 -253 q 265 -236 289 -243 l 265 -112 l 326 -112 q 392 -46 392 -112 l 392 731 l 558 731 l 558 -57 q 519 -197 558 -142 q 389 -253 481 -253 m 390 1004 l 558 1004 l 558 844 l 390 844 l 390 1004 z "},"ł":{"ha":317,"x_min":-19,"x_max":351,"o":"m 351 567 l 242 469 l 242 0 l 75 0 l 75 321 l -19 238 l -19 371 l 75 456 l 75 1004 l 242 1004 l 242 604 l 351 701 l 351 567 z "},"m":{"ha":1013,"x_min":76,"x_max":940,"o":"m 76 731 l 215 731 l 232 640 l 240 640 q 313 717 269 688 q 414 747 357 747 q 571 640 531 747 q 650 717 601 688 q 760 747 699 747 q 940 513 940 747 l 940 0 l 774 0 l 774 467 q 754 566 774 536 q 692 596 735 596 q 620 558 650 596 q 590 461 590 519 l 590 0 l 426 0 l 426 467 q 406 566 426 536 q 343 596 386 596 q 272 555 300 596 q 243 450 243 514 l 243 0 l 76 0 l 76 731 z "},"n":{"ha":696,"x_min":76,"x_max":619,"o":"m 76 731 l 215 731 l 232 640 l 240 640 q 318 717 272 688 q 425 747 364 747 q 567 691 515 747 q 619 513 619 635 l 619 0 l 453 0 l 453 467 q 428 565 453 535 q 357 596 404 596 q 276 553 308 596 q 243 450 243 511 l 243 0 l 76 0 l 76 731 z "},"ń":{"ha":696,"x_min":76,"x_max":619,"o":"m 76 731 l 215 731 l 232 640 l 240 640 q 318 717 272 688 q 425 747 364 747 q 567 691 515 747 q 619 513 619 635 l 619 0 l 453 0 l 453 467 q 428 565 453 535 q 357 596 404 596 q 276 553 308 596 q 243 450 243 511 l 243 0 l 76 0 l 76 731 m 371 1004 l 538 1004 l 539 1000 l 389 821 l 251 821 l 371 1004 z "},"ŉ":{"ha":696,"x_min":-82,"x_max":619,"o":"m 76 731 l 215 731 l 232 640 l 240 640 q 318 717 272 688 q 425 747 364 747 q 567 691 515 747 q 619 513 619 635 l 619 0 l 453 0 l 453 467 q 428 565 453 535 q 357 596 404 596 q 276 553 308 596 q 243 450 243 511 l 243 0 l 76 0 l 76 731 m -6 793 l -82 793 l -82 953 l 110 953 l 110 810 l 18 638 l -82 638 l -6 793 z "},"ň":{"ha":696,"x_min":76,"x_max":619,"o":"m 76 731 l 215 731 l 232 640 l 240 640 q 318 717 272 688 q 425 747 364 747 q 567 691 515 747 q 619 513 619 635 l 619 0 l 453 0 l 453 467 q 428 565 453 535 q 357 596 404 596 q 276 553 308 596 q 243 450 243 511 l 243 0 l 76 0 l 76 731 m 160 1004 l 285 1004 l 347 908 l 408 1004 l 533 1004 l 415 817 l 279 817 l 160 1004 z "},"ņ":{"ha":696,"x_min":76,"x_max":619,"o":"m 76 731 l 215 731 l 232 640 l 240 640 q 318 717 272 688 q 425 747 364 747 q 567 691 515 747 q 619 513 619 635 l 619 0 l 453 0 l 453 467 q 428 565 453 535 q 357 596 404 596 q 276 553 308 596 q 243 450 243 511 l 243 0 l 76 0 l 76 731 m 319 -247 l 275 -247 l 275 -93 l 424 -93 l 424 -232 l 360 -365 l 269 -365 l 319 -247 z "},"ŋ":{"ha":696,"x_min":76,"x_max":619,"o":"m 450 -253 q 385 -248 421 -253 q 326 -236 350 -243 l 326 -112 l 388 -112 q 453 -46 453 -112 l 453 467 q 428 565 453 535 q 357 596 404 596 q 276 553 308 596 q 243 450 243 511 l 243 0 l 76 0 l 76 731 l 215 731 l 232 640 l 240 640 q 318 717 272 688 q 425 747 364 747 q 567 691 515 747 q 619 513 619 635 l 619 -57 q 581 -197 619 -142 q 450 -253 542 -253 z "},"ɲ":{"ha":696,"x_min":-50,"x_max":619,"o":"m 74 -253 q 9 -248 44 -253 q -50 -236 -26 -243 l -50 -112 l 11 -112 q 76 -46 76 -112 l 76 731 l 215 731 l 232 640 l 240 640 q 318 717 272 688 q 425 747 364 747 q 567 691 515 747 q 619 513 619 635 l 619 0 l 453 0 l 453 467 q 428 565 453 535 q 357 596 404 596 q 276 553 308 596 q 243 450 243 511 l 243 -57 q 204 -197 243 -142 q 74 -253 165 -253 z "},"ǌ":{"ha":1013,"x_min":76,"x_max":938,"o":"m 76 731 l 215 731 l 232 640 l 240 640 q 318 717 272 688 q 425 747 364 747 q 567 691 515 747 q 619 513 619 635 l 619 0 l 453 0 l 453 467 q 428 565 453 535 q 357 596 404 596 q 276 553 308 596 q 243 450 243 511 l 243 0 l 76 0 l 76 731 m 768 -253 q 703 -248 739 -253 q 644 -236 668 -243 l 644 -112 l 706 -112 q 771 -46 771 -112 l 771 731 l 938 731 l 938 -57 q 899 -197 938 -142 q 768 -253 860 -253 m 769 1004 l 938 1004 l 938 844 l 769 844 l 769 1004 z "},"ñ":{"ha":696,"x_min":76,"x_max":619,"o":"m 76 731 l 215 731 l 232 640 l 240 640 q 318 717 272 688 q 425 747 364 747 q 567 691 515 747 q 619 513 619 635 l 619 0 l 453 0 l 453 467 q 428 565 453 535 q 357 596 404 596 q 276 553 308 596 q 243 450 243 511 l 243 0 l 76 0 l 76 731 m 114 835 q 149 953 114 901 q 250 1004 183 1004 q 292 998 272 1004 q 346 978 311 992 q 394 959 375 965 q 435 953 414 953 q 472 965 458 953 q 489 1004 485 976 l 581 1004 q 546 886 581 938 q 443 835 511 835 q 402 841 421 835 q 349 861 383 847 q 300 880 319 874 q 260 886 281 886 q 206 835 213 886 l 114 835 z "},"o":{"ha":696,"x_min":57,"x_max":640,"o":"m 349 -17 q 129 76 201 -17 q 57 365 57 169 q 129 654 57 561 q 349 747 201 747 q 568 654 496 747 q 640 365 640 561 q 568 76 640 169 q 349 -17 496 -17 m 349 124 q 439 177 411 124 q 467 339 467 231 l 467 392 q 439 553 467 500 q 349 607 411 607 q 258 553 286 607 q 231 392 231 500 l 231 339 q 258 177 231 231 q 349 124 286 124 z "},"ó":{"ha":696,"x_min":57,"x_max":640,"o":"m 349 -17 q 129 76 201 -17 q 57 365 57 169 q 129 654 57 561 q 349 747 201 747 q 568 654 496 747 q 640 365 640 561 q 568 76 640 169 q 349 -17 496 -17 m 349 124 q 439 177 411 124 q 467 339 467 231 l 467 392 q 439 553 467 500 q 349 607 411 607 q 258 553 286 607 q 231 392 231 500 l 231 339 q 258 177 231 231 q 349 124 286 124 m 371 1004 l 538 1004 l 539 1000 l 389 821 l 251 821 l 371 1004 z "},"ŏ":{"ha":696,"x_min":57,"x_max":640,"o":"m 349 -17 q 129 76 201 -17 q 57 365 57 169 q 129 654 57 561 q 349 747 201 747 q 568 654 496 747 q 640 365 640 561 q 568 76 640 169 q 349 -17 496 -17 m 349 124 q 439 177 411 124 q 467 339 467 231 l 467 392 q 439 553 467 500 q 349 607 411 607 q 258 553 286 607 q 231 392 231 500 l 231 339 q 258 177 231 231 q 349 124 286 124 m 346 800 q 249 822 292 800 q 184 878 207 844 q 161 949 161 913 l 264 949 q 291 917 268 932 q 346 903 314 903 q 403 917 379 903 q 429 949 426 932 l 532 949 q 509 878 532 913 q 444 822 486 844 q 346 800 401 800 z "},"ǒ":{"ha":696,"x_min":57,"x_max":640,"o":"m 349 -17 q 129 76 201 -17 q 57 365 57 169 q 129 654 57 561 q 349 747 201 747 q 568 654 496 747 q 640 365 640 561 q 568 76 640 169 q 349 -17 496 -17 m 349 124 q 439 177 411 124 q 467 339 467 231 l 467 392 q 439 553 467 500 q 349 607 411 607 q 258 553 286 607 q 231 392 231 500 l 231 339 q 258 177 231 231 q 349 124 286 124 m 160 1004 l 285 1004 l 347 908 l 408 1004 l 533 1004 l 415 817 l 279 817 l 160 1004 z "},"ô":{"ha":696,"x_min":57,"x_max":640,"o":"m 349 -17 q 129 76 201 -17 q 57 365 57 169 q 129 654 57 561 q 349 747 201 747 q 568 654 496 747 q 640 365 640 561 q 568 76 640 169 q 349 -17 496 -17 m 349 124 q 439 177 411 124 q 467 339 467 231 l 467 392 q 439 553 467 500 q 349 607 411 607 q 258 553 286 607 q 231 392 231 500 l 231 339 q 258 177 231 231 q 349 124 286 124 m 279 1004 l 415 1004 l 533 817 l 408 817 l 347 913 l 285 817 l 160 817 l 279 1004 z "},"ố":{"ha":696,"x_min":57,"x_max":640,"o":"m 349 -17 q 129 76 201 -17 q 57 365 57 169 q 129 654 57 561 q 349 747 201 747 q 568 654 496 747 q 640 365 640 561 q 568 76 640 169 q 349 -17 496 -17 m 349 124 q 439 177 411 124 q 467 339 467 231 l 467 392 q 439 553 467 500 q 349 607 411 607 q 258 553 286 607 q 231 392 231 500 l 231 339 q 258 177 231 231 q 349 124 286 124 m 279 1004 l 415 1004 l 533 817 l 408 817 l 347 913 l 285 817 l 160 817 l 279 1004 m 371 1236 l 538 1236 l 539 1232 l 389 1053 l 251 1053 l 371 1236 z "},"ộ":{"ha":696,"x_min":57,"x_max":640,"o":"m 349 -17 q 129 76 201 -17 q 57 365 57 169 q 129 654 57 561 q 349 747 201 747 q 568 654 496 747 q 640 365 640 561 q 568 76 640 169 q 349 -17 496 -17 m 349 124 q 439 177 411 124 q 467 339 467 231 l 467 392 q 439 553 467 500 q 349 607 411 607 q 258 553 286 607 q 231 392 231 500 l 231 339 q 258 177 231 231 q 349 124 286 124 m 267 -93 l 429 -93 l 429 -253 l 267 -253 l 267 -93 m 279 1004 l 415 1004 l 533 817 l 408 817 l 347 913 l 285 817 l 160 817 l 279 1004 z "},"ồ":{"ha":696,"x_min":57,"x_max":640,"o":"m 349 -17 q 129 76 201 -17 q 57 365 57 169 q 129 654 57 561 q 349 747 201 747 q 568 654 496 747 q 640 365 640 561 q 568 76 640 169 q 349 -17 496 -17 m 349 124 q 439 177 411 124 q 467 339 467 231 l 467 392 q 439 553 467 500 q 349 607 411 607 q 258 553 286 607 q 231 392 231 500 l 231 339 q 258 177 231 231 q 349 124 286 124 m 279 1004 l 415 1004 l 533 817 l 408 817 l 347 913 l 285 817 l 160 817 l 279 1004 m 156 1232 l 157 1236 l 324 1236 l 443 1053 l 306 1053 l 156 1232 z "},"ổ":{"ha":696,"x_min":57,"x_max":640,"o":"m 349 -17 q 129 76 201 -17 q 57 365 57 169 q 129 654 57 561 q 349 747 201 747 q 568 654 496 747 q 640 365 640 561 q 568 76 640 169 q 349 -17 496 -17 m 349 124 q 439 177 411 124 q 467 339 467 231 l 467 392 q 439 553 467 500 q 349 607 411 607 q 258 553 286 607 q 231 392 231 500 l 231 339 q 258 177 231 231 q 349 124 286 124 m 279 1004 l 415 1004 l 533 817 l 408 817 l 347 913 l 285 817 l 160 817 l 279 1004 m 301 1117 l 321 1117 q 354 1123 344 1117 q 364 1143 364 1129 q 352 1164 364 1158 q 317 1169 340 1169 l 250 1169 l 250 1228 q 346 1239 294 1239 q 441 1220 400 1239 q 482 1154 482 1201 q 456 1097 482 1117 q 390 1075 431 1078 l 390 1046 l 301 1046 l 301 1117 z "},"ỗ":{"ha":696,"x_min":57,"x_max":640,"o":"m 349 -17 q 129 76 201 -17 q 57 365 57 169 q 129 654 57 561 q 349 747 201 747 q 568 654 496 747 q 640 365 640 561 q 568 76 640 169 q 349 -17 496 -17 m 349 124 q 439 177 411 124 q 467 339 467 231 l 467 392 q 439 553 467 500 q 349 607 411 607 q 258 553 286 607 q 231 392 231 500 l 231 339 q 258 177 231 231 q 349 124 286 124 m 279 1004 l 415 1004 l 533 817 l 408 817 l 347 913 l 285 817 l 160 817 l 279 1004 m 114 1067 q 149 1185 114 1133 q 250 1236 183 1236 q 292 1230 272 1236 q 346 1210 311 1224 q 394 1191 375 1197 q 435 1185 414 1185 q 472 1197 458 1185 q 489 1236 485 1208 l 581 1236 q 546 1118 581 1169 q 443 1067 511 1067 q 402 1073 421 1067 q 349 1093 383 1079 q 300 1112 319 1106 q 260 1118 281 1118 q 206 1067 213 1118 l 114 1067 z "},"ȍ":{"ha":696,"x_min":57,"x_max":640,"o":"m 349 -17 q 129 76 201 -17 q 57 365 57 169 q 129 654 57 561 q 349 747 201 747 q 568 654 496 747 q 640 365 640 561 q 568 76 640 169 q 349 -17 496 -17 m 349 124 q 439 177 411 124 q 467 339 467 231 l 467 392 q 439 553 467 500 q 349 607 411 607 q 258 553 286 607 q 231 392 231 500 l 231 339 q 258 177 231 231 q 349 124 286 124 m 90 1000 l 92 1004 l 233 1004 l 319 821 l 207 821 l 90 1000 m 288 1000 l 289 1004 l 425 1004 l 511 821 l 404 821 l 288 1000 z "},"ö":{"ha":696,"x_min":57,"x_max":640,"o":"m 349 -17 q 129 76 201 -17 q 57 365 57 169 q 129 654 57 561 q 349 747 201 747 q 568 654 496 747 q 640 365 640 561 q 568 76 640 169 q 349 -17 496 -17 m 349 124 q 439 177 411 124 q 467 339 467 231 l 467 392 q 439 553 467 500 q 349 607 411 607 q 258 553 286 607 q 231 392 231 500 l 231 339 q 258 177 231 231 q 349 124 286 124 m 156 1004 l 294 1004 l 294 853 l 156 853 l 156 1004 m 399 1004 l 538 1004 l 538 853 l 399 853 l 399 1004 z "},"ȫ":{"ha":696,"x_min":57,"x_max":640,"o":"m 349 -17 q 129 76 201 -17 q 57 365 57 169 q 129 654 57 561 q 349 747 201 747 q 568 654 496 747 q 640 365 640 561 q 568 76 640 169 q 349 -17 496 -17 m 349 124 q 439 177 411 124 q 467 339 467 231 l 467 392 q 439 553 467 500 q 349 607 411 607 q 258 553 286 607 q 231 392 231 500 l 231 339 q 258 177 231 231 q 349 124 286 124 m 156 1004 l 294 1004 l 294 853 l 156 853 l 156 1004 m 399 1004 l 538 1004 l 538 853 l 399 853 l 399 1004 m 169 1226 l 524 1226 l 524 1106 l 169 1106 l 169 1226 z "},"ȱ":{"ha":696,"x_min":57,"x_max":640,"o":"m 349 -17 q 129 76 201 -17 q 57 365 57 169 q 129 654 57 561 q 349 747 201 747 q 568 654 496 747 q 640 365 640 561 q 568 76 640 169 q 349 -17 496 -17 m 349 124 q 439 177 411 124 q 467 339 467 231 l 467 392 q 439 553 467 500 q 349 607 411 607 q 258 553 286 607 q 231 392 231 500 l 231 339 q 258 177 231 231 q 349 124 286 124 m 275 1004 l 424 1004 l 424 844 l 275 844 l 275 1004 m 172 1218 l 526 1218 l 526 1097 l 172 1097 l 172 1218 z "},"ọ":{"ha":696,"x_min":57,"x_max":640,"o":"m 349 -17 q 129 76 201 -17 q 57 365 57 169 q 129 654 57 561 q 349 747 201 747 q 568 654 496 747 q 640 365 640 561 q 568 76 640 169 q 349 -17 496 -17 m 349 124 q 439 177 411 124 q 467 339 467 231 l 467 392 q 439 553 467 500 q 349 607 411 607 q 258 553 286 607 q 231 392 231 500 l 231 339 q 258 177 231 231 q 349 124 286 124 m 267 -93 l 429 -93 l 429 -253 l 267 -253 l 267 -93 z "},"ò":{"ha":696,"x_min":57,"x_max":640,"o":"m 349 -17 q 129 76 201 -17 q 57 365 57 169 q 129 654 57 561 q 349 747 201 747 q 568 654 496 747 q 640 365 640 561 q 568 76 640 169 q 349 -17 496 -17 m 349 124 q 439 177 411 124 q 467 339 467 231 l 467 392 q 439 553 467 500 q 349 607 411 607 q 258 553 286 607 q 231 392 231 500 l 231 339 q 258 177 231 231 q 349 124 286 124 m 156 1000 l 157 1004 l 324 1004 l 443 821 l 306 821 l 156 1000 z "},"ỏ":{"ha":696,"x_min":57,"x_max":640,"o":"m 349 -17 q 129 76 201 -17 q 57 365 57 169 q 129 654 57 561 q 349 747 201 747 q 568 654 496 747 q 640 365 640 561 q 568 76 640 169 q 349 -17 496 -17 m 349 124 q 439 177 411 124 q 467 339 467 231 l 467 392 q 439 553 467 500 q 349 607 411 607 q 258 553 286 607 q 231 392 231 500 l 231 339 q 258 177 231 231 q 349 124 286 124 m 301 885 l 321 885 q 354 891 344 885 q 364 911 364 897 q 352 932 364 926 q 317 938 340 938 l 250 938 l 250 996 q 346 1007 294 1007 q 441 988 400 1007 q 482 922 482 969 q 456 865 482 885 q 390 843 431 846 l 390 814 l 301 814 l 301 885 z "},"ơ":{"ha":696,"x_min":57,"x_max":668,"o":"m 668 804 q 640 713 668 751 q 564 658 613 675 q 640 365 640 565 q 568 76 640 169 q 349 -17 496 -17 q 129 76 201 -17 q 57 365 57 169 q 129 654 57 561 q 349 747 201 747 q 460 731 413 747 q 529 748 508 731 q 550 804 550 765 l 550 889 l 668 889 l 668 804 m 467 392 q 439 553 467 500 q 349 607 411 607 q 258 553 286 607 q 231 392 231 500 l 231 339 q 258 177 231 231 q 349 124 286 124 q 439 177 411 124 q 467 339 467 231 l 467 392 z "},"ớ":{"ha":696,"x_min":57,"x_max":668,"o":"m 668 804 q 640 713 668 751 q 564 658 613 675 q 640 365 640 565 q 568 76 640 169 q 349 -17 496 -17 q 129 76 201 -17 q 57 365 57 169 q 129 654 57 561 q 349 747 201 747 q 460 731 413 747 q 529 748 508 731 q 550 804 550 765 l 550 889 l 668 889 l 668 804 m 467 392 q 439 553 467 500 q 349 607 411 607 q 258 553 286 607 q 231 392 231 500 l 231 339 q 258 177 231 231 q 349 124 286 124 q 439 177 411 124 q 467 339 467 231 l 467 392 m 371 1004 l 538 1004 l 539 1000 l 389 821 l 251 821 l 371 1004 z "},"ợ":{"ha":696,"x_min":57,"x_max":668,"o":"m 668 804 q 640 713 668 751 q 564 658 613 675 q 640 365 640 565 q 568 76 640 169 q 349 -17 496 -17 q 129 76 201 -17 q 57 365 57 169 q 129 654 57 561 q 349 747 201 747 q 460 731 413 747 q 529 748 508 731 q 550 804 550 765 l 550 889 l 668 889 l 668 804 m 467 392 q 439 553 467 500 q 349 607 411 607 q 258 553 286 607 q 231 392 231 500 l 231 339 q 258 177 231 231 q 349 124 286 124 q 439 177 411 124 q 467 339 467 231 l 467 392 m 267 -93 l 429 -93 l 429 -253 l 267 -253 l 267 -93 z "},"ờ":{"ha":696,"x_min":57,"x_max":668,"o":"m 668 804 q 640 713 668 751 q 564 658 613 675 q 640 365 640 565 q 568 76 640 169 q 349 -17 496 -17 q 129 76 201 -17 q 57 365 57 169 q 129 654 57 561 q 349 747 201 747 q 460 731 413 747 q 529 748 508 731 q 550 804 550 765 l 550 889 l 668 889 l 668 804 m 467 392 q 439 553 467 500 q 349 607 411 607 q 258 553 286 607 q 231 392 231 500 l 231 339 q 258 177 231 231 q 349 124 286 124 q 439 177 411 124 q 467 339 467 231 l 467 392 m 156 1000 l 157 1004 l 324 1004 l 443 821 l 306 821 l 156 1000 z "},"ở":{"ha":696,"x_min":57,"x_max":668,"o":"m 668 804 q 640 713 668 751 q 564 658 613 675 q 640 365 640 565 q 568 76 640 169 q 349 -17 496 -17 q 129 76 201 -17 q 57 365 57 169 q 129 654 57 561 q 349 747 201 747 q 460 731 413 747 q 529 748 508 731 q 550 804 550 765 l 550 889 l 668 889 l 668 804 m 467 392 q 439 553 467 500 q 349 607 411 607 q 258 553 286 607 q 231 392 231 500 l 231 339 q 258 177 231 231 q 349 124 286 124 q 439 177 411 124 q 467 339 467 231 l 467 392 m 301 885 l 321 885 q 354 891 344 885 q 364 911 364 897 q 352 932 364 926 q 317 938 340 938 l 250 938 l 250 996 q 346 1007 294 1007 q 441 988 400 1007 q 482 922 482 969 q 456 865 482 885 q 390 843 431 846 l 390 814 l 301 814 l 301 885 z "},"ỡ":{"ha":696,"x_min":57,"x_max":668,"o":"m 269 886 q 219 835 226 886 l 138 835 q 169 953 138 901 q 260 1004 200 1004 q 297 998 279 1004 q 346 978 314 992 q 390 959 372 965 q 426 953 408 953 q 459 965 447 953 q 475 1004 471 976 l 557 1004 q 526 886 557 938 q 433 835 494 835 q 394 841 413 835 q 349 861 376 847 q 304 880 321 874 q 269 886 288 886 m 668 804 q 640 713 668 751 q 564 658 613 675 q 640 365 640 565 q 568 76 640 169 q 349 -17 496 -17 q 129 76 201 -17 q 57 365 57 169 q 129 654 57 561 q 349 747 201 747 q 460 731 413 747 q 529 748 508 731 q 550 804 550 765 l 550 889 l 668 889 l 668 804 m 467 392 q 439 553 467 500 q 349 607 411 607 q 258 553 286 607 q 231 392 231 500 l 231 339 q 258 177 231 231 q 349 124 286 124 q 439 177 411 124 q 467 339 467 231 l 467 392 z "},"ő":{"ha":696,"x_min":57,"x_max":640,"o":"m 349 -17 q 129 76 201 -17 q 57 365 57 169 q 129 654 57 561 q 349 747 201 747 q 568 654 496 747 q 640 365 640 561 q 568 76 640 169 q 349 -17 496 -17 m 349 124 q 439 177 411 124 q 467 339 467 231 l 467 392 q 439 553 467 500 q 349 607 411 607 q 258 553 286 607 q 231 392 231 500 l 231 339 q 258 177 231 231 q 349 124 286 124 m 276 1004 l 415 1004 l 417 1000 l 300 821 l 190 821 l 276 1004 m 471 1004 l 610 1004 l 611 1000 l 494 821 l 385 821 l 471 1004 z "},"ȏ":{"ha":696,"x_min":57,"x_max":640,"o":"m 349 -17 q 129 76 201 -17 q 57 365 57 169 q 129 654 57 561 q 349 747 201 747 q 568 654 496 747 q 640 365 640 561 q 568 76 640 169 q 349 -17 496 -17 m 349 124 q 439 177 411 124 q 467 339 467 231 l 467 392 q 439 553 467 500 q 349 607 411 607 q 258 553 286 607 q 231 392 231 500 l 231 339 q 258 177 231 231 q 349 124 286 124 m 161 828 q 184 898 161 864 q 249 954 207 932 q 346 976 292 976 q 444 954 401 976 q 509 898 486 932 q 532 828 532 864 l 429 828 q 403 859 426 844 q 346 874 379 874 q 291 859 314 874 q 264 828 268 844 l 161 828 z "},"ō":{"ha":696,"x_min":57,"x_max":640,"o":"m 349 -17 q 129 76 201 -17 q 57 365 57 169 q 129 654 57 561 q 349 747 201 747 q 568 654 496 747 q 640 365 640 561 q 568 76 640 169 q 349 -17 496 -17 m 349 124 q 439 177 411 124 q 467 339 467 231 l 467 392 q 439 553 467 500 q 349 607 411 607 q 258 553 286 607 q 231 392 231 500 l 231 339 q 258 177 231 231 q 349 124 286 124 m 169 953 l 524 953 l 524 832 l 169 832 l 169 953 z "},"ǫ":{"ha":696,"x_min":57,"x_max":640,"o":"m 640 365 q 578 91 640 185 q 390 -15 517 -3 q 369 -53 378 -32 q 361 -97 361 -75 q 377 -148 361 -128 q 425 -168 393 -168 l 456 -168 l 456 -244 q 364 -264 406 -264 q 267 -234 307 -264 q 226 -139 226 -204 q 241 -72 226 -106 q 279 -11 256 -39 q 112 102 167 10 q 57 365 57 194 q 129 654 57 561 q 349 747 201 747 q 568 654 496 747 q 640 365 640 561 m 231 339 q 258 177 231 231 q 349 124 286 124 q 439 177 411 124 q 467 339 467 231 l 467 392 q 439 553 467 500 q 349 607 411 607 q 258 553 286 607 q 231 392 231 500 l 231 339 z "},"ø":{"ha":696,"x_min":57,"x_max":640,"o":"m 563 661 q 640 365 640 567 q 568 76 640 169 q 349 -17 496 -17 q 208 13 267 -17 l 178 -44 l 74 -44 l 135 69 q 57 365 57 164 q 129 654 57 561 q 349 747 201 747 q 489 718 431 747 l 519 775 l 624 775 l 563 661 m 231 339 q 236 254 231 288 l 415 585 q 349 607 389 607 q 258 553 286 607 q 231 392 231 500 l 231 339 m 467 392 q 461 476 467 443 l 282 146 q 349 124 308 124 q 439 177 411 124 q 467 339 467 231 l 467 392 z "},"ǿ":{"ha":696,"x_min":57,"x_max":640,"o":"m 563 661 q 640 365 640 567 q 568 76 640 169 q 349 -17 496 -17 q 208 13 267 -17 l 178 -44 l 74 -44 l 135 69 q 57 365 57 164 q 129 654 57 561 q 349 747 201 747 q 489 718 431 747 l 519 775 l 624 775 l 563 661 m 231 339 q 236 254 231 288 l 415 585 q 349 607 389 607 q 258 553 286 607 q 231 392 231 500 l 231 339 m 467 392 q 461 476 467 443 l 282 146 q 349 124 308 124 q 439 177 411 124 q 467 339 467 231 l 467 392 m 371 1004 l 538 1004 l 539 1000 l 389 821 l 251 821 l 371 1004 z "},"õ":{"ha":696,"x_min":57,"x_max":640,"o":"m 349 -17 q 129 76 201 -17 q 57 365 57 169 q 129 654 57 561 q 349 747 201 747 q 568 654 496 747 q 640 365 640 561 q 568 76 640 169 q 349 -17 496 -17 m 349 124 q 439 177 411 124 q 467 339 467 231 l 467 392 q 439 553 467 500 q 349 607 411 607 q 258 553 286 607 q 231 392 231 500 l 231 339 q 258 177 231 231 q 349 124 286 124 m 114 835 q 149 953 114 901 q 250 1004 183 1004 q 292 998 272 1004 q 346 978 311 992 q 394 959 375 965 q 435 953 414 953 q 472 965 458 953 q 489 1004 485 976 l 581 1004 q 546 886 581 938 q 443 835 511 835 q 402 841 421 835 q 349 861 383 847 q 300 880 319 874 q 260 886 281 886 q 206 835 213 886 l 114 835 z "},"ȭ":{"ha":696,"x_min":57,"x_max":640,"o":"m 349 -17 q 129 76 201 -17 q 57 365 57 169 q 129 654 57 561 q 349 747 201 747 q 568 654 496 747 q 640 365 640 561 q 568 76 640 169 q 349 -17 496 -17 m 349 124 q 439 177 411 124 q 467 339 467 231 l 467 392 q 439 553 467 500 q 349 607 411 607 q 258 553 286 607 q 231 392 231 500 l 231 339 q 258 177 231 231 q 349 124 286 124 m 115 835 q 150 953 115 901 q 251 1004 185 1004 q 293 998 274 1004 q 347 978 313 992 q 396 959 376 965 q 436 953 415 953 q 473 965 460 953 q 490 1004 486 976 l 582 1004 q 547 886 582 938 q 444 835 513 835 q 403 841 422 835 q 350 861 385 847 q 301 880 321 874 q 261 886 282 886 q 207 835 214 886 l 115 835 m 172 1218 l 526 1218 l 526 1097 l 172 1097 l 172 1218 z "},"œ":{"ha":1075,"x_min":57,"x_max":1013,"o":"m 349 -17 q 129 76 201 -17 q 57 365 57 169 q 129 654 57 561 q 349 747 201 747 q 553 656 483 747 q 749 747 622 747 q 947 654 882 747 q 1013 365 1013 561 l 1013 324 l 642 324 q 669 170 643 221 q 754 119 694 119 q 822 156 797 119 q 847 258 847 193 l 1013 258 q 942 53 1013 122 q 754 -17 871 -17 q 554 74 624 -17 q 349 -17 482 -17 m 838 444 q 749 611 838 611 q 672 569 697 611 q 643 444 647 526 l 838 444 m 349 124 q 439 177 411 124 q 467 339 467 231 l 467 392 q 439 553 467 500 q 349 607 411 607 q 258 553 286 607 q 231 392 231 500 l 231 339 q 258 177 231 231 q 349 124 286 124 z "},"p":{"ha":696,"x_min":76,"x_max":639,"o":"m 76 731 l 215 731 l 232 640 l 239 640 q 308 720 265 693 q 404 747 351 747 q 577 652 515 747 q 639 364 639 557 q 577 78 639 174 q 413 -17 515 -17 q 313 8 357 -17 q 250 75 269 32 l 243 75 l 243 -240 l 76 -240 l 76 731 m 354 135 q 439 185 413 135 q 465 339 465 236 l 465 392 q 439 545 465 494 q 354 596 413 596 q 269 545 296 596 q 243 392 243 494 l 243 342 q 269 187 243 239 q 354 135 296 135 z "},"þ":{"ha":696,"x_min":76,"x_max":639,"o":"m 76 1004 l 243 1004 l 243 647 l 244 647 q 313 722 271 696 q 404 747 354 747 q 577 652 515 747 q 639 364 639 557 q 577 78 639 174 q 413 -17 515 -17 q 313 8 357 -17 q 250 75 269 32 l 243 75 l 243 -240 l 76 -240 l 76 1004 m 354 135 q 439 185 413 135 q 465 339 465 236 l 465 392 q 439 545 465 494 q 354 596 413 596 q 269 545 296 596 q 243 392 243 494 l 243 342 q 269 187 243 239 q 354 135 296 135 z "},"q":{"ha":696,"x_min":57,"x_max":619,"o":"m 453 75 l 446 75 q 383 8 426 32 q 283 -17 339 -17 q 119 78 181 -17 q 57 364 57 174 q 119 652 57 557 q 292 747 181 747 q 388 720 344 747 q 457 640 431 693 l 464 640 l 481 731 l 619 731 l 619 -240 l 453 -240 l 453 75 m 342 135 q 426 187 400 135 q 453 342 453 239 l 453 392 q 426 545 453 494 q 342 596 400 596 q 257 545 283 596 q 231 392 231 494 l 231 339 q 257 185 231 236 q 342 135 283 135 z "},"r":{"ha":443,"x_min":76,"x_max":439,"o":"m 76 731 l 215 731 l 235 624 l 243 624 q 290 713 261 679 q 369 747 319 747 q 439 736 410 747 l 439 575 l 379 575 q 281 536 318 575 q 243 407 243 497 l 243 0 l 76 0 l 76 731 z "},"ŕ":{"ha":443,"x_min":76,"x_max":442,"o":"m 76 731 l 215 731 l 235 624 l 243 624 q 290 713 261 679 q 369 747 319 747 q 439 736 410 747 l 439 575 l 379 575 q 281 536 318 575 q 243 407 243 497 l 243 0 l 76 0 l 76 731 m 274 1004 l 440 1004 l 442 1000 l 292 821 l 154 821 l 274 1004 z "},"ř":{"ha":443,"x_min":63,"x_max":439,"o":"m 76 731 l 215 731 l 235 624 l 243 624 q 290 713 261 679 q 369 747 319 747 q 439 736 410 747 l 439 575 l 379 575 q 281 536 318 575 q 243 407 243 497 l 243 0 l 76 0 l 76 731 m 63 1004 l 188 1004 l 250 908 l 311 1004 l 436 1004 l 318 817 l 182 817 l 63 1004 z "},"ŗ":{"ha":443,"x_min":76,"x_max":439,"o":"m 76 731 l 215 731 l 235 624 l 243 624 q 290 713 261 679 q 369 747 319 747 q 439 736 410 747 l 439 575 l 379 575 q 281 536 318 575 q 243 407 243 497 l 243 0 l 76 0 l 76 731 m 140 -247 l 96 -247 l 96 -93 l 244 -93 l 244 -232 l 181 -365 l 90 -365 l 140 -247 z "},"ȑ":{"ha":443,"x_min":-7,"x_max":439,"o":"m 76 731 l 215 731 l 235 624 l 243 624 q 290 713 261 679 q 369 747 319 747 q 439 736 410 747 l 439 575 l 379 575 q 281 536 318 575 q 243 407 243 497 l 243 0 l 76 0 l 76 731 m -7 1000 l -6 1004 l 136 1004 l 222 821 l 110 821 l -7 1000 m 190 1000 l 192 1004 l 328 1004 l 414 821 l 307 821 l 190 1000 z "},"ȓ":{"ha":443,"x_min":64,"x_max":439,"o":"m 76 731 l 215 731 l 235 624 l 243 624 q 290 713 261 679 q 369 747 319 747 q 439 736 410 747 l 439 575 l 379 575 q 281 536 318 575 q 243 407 243 497 l 243 0 l 76 0 l 76 731 m 64 828 q 87 898 64 864 q 152 954 110 932 q 249 976 194 976 q 347 954 304 976 q 412 898 389 932 q 435 828 435 864 l 332 828 q 306 859 329 844 q 249 874 282 874 q 194 859 217 874 q 167 828 171 844 l 64 828 z "},"s":{"ha":633,"x_min":46,"x_max":583,"o":"m 311 -17 q 116 47 186 -17 q 46 215 46 110 l 47 232 l 217 232 l 217 222 q 247 144 218 168 q 317 119 276 119 q 385 138 356 119 q 414 199 414 157 q 381 263 414 243 q 275 303 347 283 q 163 342 206 322 q 88 406 119 361 q 57 525 57 450 q 130 690 57 632 q 318 747 203 747 q 495 694 425 747 q 565 549 565 640 l 564 517 l 394 517 l 394 519 q 313 611 393 611 q 250 592 274 611 q 226 539 226 572 q 258 483 226 500 q 358 447 290 465 q 474 409 429 429 q 551 344 518 389 q 583 219 583 299 q 311 -17 583 -17 z "},"ś":{"ha":633,"x_min":46,"x_max":583,"o":"m 311 -17 q 116 47 186 -17 q 46 215 46 110 l 47 232 l 217 232 l 217 222 q 247 144 218 168 q 317 119 276 119 q 385 138 356 119 q 414 199 414 157 q 381 263 414 243 q 275 303 347 283 q 163 342 206 322 q 88 406 119 361 q 57 525 57 450 q 130 690 57 632 q 318 747 203 747 q 495 694 425 747 q 565 549 565 640 l 564 517 l 394 517 l 394 519 q 313 611 393 611 q 250 592 274 611 q 226 539 226 572 q 258 483 226 500 q 358 447 290 465 q 474 409 429 429 q 551 344 518 389 q 583 219 583 299 q 311 -17 583 -17 m 340 1004 l 507 1004 l 508 1000 l 358 821 l 221 821 l 340 1004 z "},"š":{"ha":633,"x_min":46,"x_max":583,"o":"m 311 -17 q 116 47 186 -17 q 46 215 46 110 l 47 232 l 217 232 l 217 222 q 247 144 218 168 q 317 119 276 119 q 385 138 356 119 q 414 199 414 157 q 381 263 414 243 q 275 303 347 283 q 163 342 206 322 q 88 406 119 361 q 57 525 57 450 q 130 690 57 632 q 318 747 203 747 q 495 694 425 747 q 565 549 565 640 l 564 517 l 394 517 l 394 519 q 313 611 393 611 q 250 592 274 611 q 226 539 226 572 q 258 483 226 500 q 358 447 290 465 q 474 409 429 429 q 551 344 518 389 q 583 219 583 299 q 311 -17 583 -17 m 129 1004 l 254 1004 l 317 908 l 378 1004 l 503 1004 l 385 817 l 249 817 l 129 1004 z "},"ş":{"ha":633,"x_min":46,"x_max":583,"o":"m 583 219 q 343 -15 583 -3 l 340 -46 q 419 -72 389 -49 q 450 -140 450 -96 q 403 -228 450 -203 q 299 -253 357 -253 q 182 -242 235 -253 l 182 -174 l 281 -174 q 318 -166 306 -174 q 331 -140 331 -158 q 320 -115 331 -124 q 283 -107 310 -107 l 238 -107 l 250 -12 q 99 63 153 3 q 46 215 46 124 l 47 232 l 217 232 l 217 222 q 247 144 218 168 q 317 119 276 119 q 385 138 356 119 q 414 199 414 157 q 381 263 414 243 q 275 303 347 283 q 163 342 206 322 q 88 406 119 361 q 57 525 57 450 q 130 690 57 632 q 318 747 203 747 q 495 694 425 747 q 565 549 565 640 l 564 517 l 394 517 l 394 519 q 313 611 393 611 q 250 592 274 611 q 226 539 226 572 q 258 483 226 500 q 358 447 290 465 q 474 409 429 429 q 551 344 518 389 q 583 219 583 299 z "},"ŝ":{"ha":633,"x_min":46,"x_max":583,"o":"m 311 -17 q 116 47 186 -17 q 46 215 46 110 l 47 232 l 217 232 l 217 222 q 247 144 218 168 q 317 119 276 119 q 385 138 356 119 q 414 199 414 157 q 381 263 414 243 q 275 303 347 283 q 163 342 206 322 q 88 406 119 361 q 57 525 57 450 q 130 690 57 632 q 318 747 203 747 q 495 694 425 747 q 565 549 565 640 l 564 517 l 394 517 l 394 519 q 313 611 393 611 q 250 592 274 611 q 226 539 226 572 q 258 483 226 500 q 358 447 290 465 q 474 409 429 429 q 551 344 518 389 q 583 219 583 299 q 311 -17 583 -17 m 249 1004 l 385 1004 l 503 817 l 378 817 l 317 913 l 254 817 l 129 817 l 249 1004 z "},"ș":{"ha":633,"x_min":46,"x_max":583,"o":"m 311 -17 q 116 47 186 -17 q 46 215 46 110 l 47 232 l 217 232 l 217 222 q 247 144 218 168 q 317 119 276 119 q 385 138 356 119 q 414 199 414 157 q 381 263 414 243 q 275 303 347 283 q 163 342 206 322 q 88 406 119 361 q 57 525 57 450 q 130 690 57 632 q 318 747 203 747 q 495 694 425 747 q 565 549 565 640 l 564 517 l 394 517 l 394 519 q 313 611 393 611 q 250 592 274 611 q 226 539 226 572 q 258 483 226 500 q 358 447 290 465 q 474 409 429 429 q 551 344 518 389 q 583 219 583 299 q 311 -17 583 -17 m 289 -247 l 244 -247 l 244 -93 l 393 -93 l 393 -232 l 329 -365 l 239 -365 l 289 -247 z "},"ß":{"ha":696,"x_min":56,"x_max":657,"o":"m 56 722 q 138 947 56 874 q 353 1021 219 1021 q 551 951 474 1021 q 628 761 628 881 q 591 631 628 692 q 496 549 554 571 l 496 543 q 612 447 567 517 q 657 297 657 378 q 620 142 657 210 q 520 38 583 75 q 379 0 457 0 l 289 0 l 289 142 l 361 142 q 451 188 414 142 q 489 299 489 235 q 451 406 489 361 q 361 450 414 450 l 289 450 l 289 607 l 357 607 q 430 651 400 607 q 460 757 460 696 q 430 847 460 813 q 346 881 400 881 q 256 842 289 881 q 222 733 222 803 l 222 0 l 56 0 l 56 722 z "},"ſ":{"ha":317,"x_min":13,"x_max":379,"o":"m 86 590 l 13 590 l 13 731 l 86 731 l 86 819 q 126 959 86 903 q 258 1015 167 1015 q 322 1010 286 1015 q 379 999 357 1006 l 379 875 l 311 875 q 268 860 283 875 q 253 815 253 844 l 253 0 l 86 0 l 86 590 z "},"t":{"ha":379,"x_min":13,"x_max":358,"o":"m 258 -17 q 126 40 167 -17 q 86 179 86 96 l 86 590 l 13 590 l 13 731 l 86 731 l 111 936 l 253 936 l 253 731 l 358 731 l 358 590 l 253 590 l 253 183 q 268 139 253 154 q 311 124 283 124 l 358 124 l 358 0 q 311 -12 340 -7 q 258 -17 282 -17 z "},"ŧ":{"ha":379,"x_min":13,"x_max":358,"o":"m 258 -17 q 126 40 167 -17 q 86 179 86 96 l 86 364 l 15 364 l 15 485 l 86 485 l 86 590 l 13 590 l 13 731 l 86 731 l 111 936 l 253 936 l 253 731 l 358 731 l 358 590 l 253 590 l 253 485 l 353 485 l 353 364 l 253 364 l 253 183 q 268 139 253 154 q 311 124 283 124 l 358 124 l 358 0 q 311 -12 340 -7 q 258 -17 282 -17 z "},"ť":{"ha":379,"x_min":13,"x_max":488,"o":"m 258 -17 q 126 40 167 -17 q 86 179 86 96 l 86 590 l 13 590 l 13 731 l 86 731 l 111 936 l 253 936 l 253 731 l 358 731 l 358 590 l 253 590 l 253 183 q 268 139 253 154 q 311 124 283 124 l 358 124 l 358 0 q 311 -12 340 -7 q 258 -17 282 -17 m 351 1032 l 488 1032 l 396 786 l 296 786 l 351 1032 z "},"ţ":{"ha":379,"x_min":13,"x_max":364,"o":"m 254 -46 q 333 -72 303 -49 q 364 -140 364 -96 q 317 -228 364 -203 q 213 -253 271 -253 q 96 -242 149 -253 l 96 -174 l 194 -174 q 232 -166 219 -174 q 244 -140 244 -158 q 234 -115 244 -124 q 197 -107 224 -107 l 151 -107 l 165 6 q 105 76 124 31 q 86 179 86 122 l 86 590 l 13 590 l 13 731 l 86 731 l 111 936 l 253 936 l 253 731 l 358 731 l 358 590 l 253 590 l 253 183 q 268 139 253 154 q 311 124 283 124 l 358 124 l 358 0 q 311 -12 340 -7 q 258 -17 282 -17 l 257 -17 l 254 -46 z "},"ț":{"ha":379,"x_min":13,"x_max":358,"o":"m 258 -17 q 126 40 167 -17 q 86 179 86 96 l 86 590 l 13 590 l 13 731 l 86 731 l 111 936 l 253 936 l 253 731 l 358 731 l 358 590 l 253 590 l 253 183 q 268 139 253 154 q 311 124 283 124 l 358 124 l 358 0 q 311 -12 340 -7 q 258 -17 282 -17 m 203 -247 l 158 -247 l 158 -93 l 307 -93 l 307 -232 l 243 -365 l 153 -365 l 203 -247 z "},"u":{"ha":696,"x_min":76,"x_max":619,"o":"m 271 -17 q 128 40 181 -17 q 76 218 76 96 l 76 731 l 243 731 l 243 264 q 267 165 243 194 q 339 135 290 135 q 420 176 388 135 q 453 278 453 217 l 453 731 l 619 731 l 619 0 l 481 0 l 464 90 l 456 90 q 378 13 424 43 q 271 -17 332 -17 z "},"ú":{"ha":696,"x_min":76,"x_max":619,"o":"m 271 -17 q 128 40 181 -17 q 76 218 76 96 l 76 731 l 243 731 l 243 264 q 267 165 243 194 q 339 135 290 135 q 420 176 388 135 q 453 278 453 217 l 453 731 l 619 731 l 619 0 l 481 0 l 464 90 l 456 90 q 378 13 424 43 q 271 -17 332 -17 m 371 1004 l 538 1004 l 539 1000 l 389 821 l 251 821 l 371 1004 z "},"ŭ":{"ha":696,"x_min":76,"x_max":619,"o":"m 271 -17 q 128 40 181 -17 q 76 218 76 96 l 76 731 l 243 731 l 243 264 q 267 165 243 194 q 339 135 290 135 q 420 176 388 135 q 453 278 453 217 l 453 731 l 619 731 l 619 0 l 481 0 l 464 90 l 456 90 q 378 13 424 43 q 271 -17 332 -17 m 346 800 q 249 822 292 800 q 184 878 207 844 q 161 949 161 913 l 264 949 q 291 917 268 932 q 346 903 314 903 q 403 917 379 903 q 429 949 426 932 l 532 949 q 509 878 532 913 q 444 822 486 844 q 346 800 401 800 z "},"ǔ":{"ha":696,"x_min":76,"x_max":619,"o":"m 271 -17 q 128 40 181 -17 q 76 218 76 96 l 76 731 l 243 731 l 243 264 q 267 165 243 194 q 339 135 290 135 q 420 176 388 135 q 453 278 453 217 l 453 731 l 619 731 l 619 0 l 481 0 l 464 90 l 456 90 q 378 13 424 43 q 271 -17 332 -17 m 160 1004 l 285 1004 l 347 908 l 408 1004 l 533 1004 l 415 817 l 279 817 l 160 1004 z "},"û":{"ha":696,"x_min":76,"x_max":619,"o":"m 271 -17 q 128 40 181 -17 q 76 218 76 96 l 76 731 l 243 731 l 243 264 q 267 165 243 194 q 339 135 290 135 q 420 176 388 135 q 453 278 453 217 l 453 731 l 619 731 l 619 0 l 481 0 l 464 90 l 456 90 q 378 13 424 43 q 271 -17 332 -17 m 279 1004 l 415 1004 l 533 817 l 408 817 l 347 913 l 285 817 l 160 817 l 279 1004 z "},"ȕ":{"ha":696,"x_min":76,"x_max":619,"o":"m 271 -17 q 128 40 181 -17 q 76 218 76 96 l 76 731 l 243 731 l 243 264 q 267 165 243 194 q 339 135 290 135 q 420 176 388 135 q 453 278 453 217 l 453 731 l 619 731 l 619 0 l 481 0 l 464 90 l 456 90 q 378 13 424 43 q 271 -17 332 -17 m 90 1000 l 92 1004 l 233 1004 l 319 821 l 207 821 l 90 1000 m 288 1000 l 289 1004 l 425 1004 l 511 821 l 404 821 l 288 1000 z "},"ü":{"ha":696,"x_min":76,"x_max":619,"o":"m 271 -17 q 128 40 181 -17 q 76 218 76 96 l 76 731 l 243 731 l 243 264 q 267 165 243 194 q 339 135 290 135 q 420 176 388 135 q 453 278 453 217 l 453 731 l 619 731 l 619 0 l 481 0 l 464 90 l 456 90 q 378 13 424 43 q 271 -17 332 -17 m 156 1004 l 294 1004 l 294 853 l 156 853 l 156 1004 m 399 1004 l 538 1004 l 538 853 l 399 853 l 399 1004 z "},"ǘ":{"ha":696,"x_min":76,"x_max":619,"o":"m 271 -17 q 128 40 181 -17 q 76 218 76 96 l 76 731 l 243 731 l 243 264 q 267 165 243 194 q 339 135 290 135 q 420 176 388 135 q 453 278 453 217 l 453 731 l 619 731 l 619 0 l 481 0 l 464 90 l 456 90 q 378 13 424 43 q 271 -17 332 -17 m 156 1004 l 294 1004 l 294 853 l 156 853 l 156 1004 m 399 1004 l 538 1004 l 538 853 l 399 853 l 399 1004 m 371 1278 l 538 1278 l 539 1274 l 389 1094 l 251 1094 l 371 1278 z "},"ǚ":{"ha":696,"x_min":76,"x_max":619,"o":"m 271 -17 q 128 40 181 -17 q 76 218 76 96 l 76 731 l 243 731 l 243 264 q 267 165 243 194 q 339 135 290 135 q 420 176 388 135 q 453 278 453 217 l 453 731 l 619 731 l 619 0 l 481 0 l 464 90 l 456 90 q 378 13 424 43 q 271 -17 332 -17 m 156 1004 l 294 1004 l 294 853 l 156 853 l 156 1004 m 399 1004 l 538 1004 l 538 853 l 399 853 l 399 1004 m 160 1278 l 285 1278 l 347 1182 l 408 1278 l 533 1278 l 415 1090 l 279 1090 l 160 1278 z "},"ǜ":{"ha":696,"x_min":76,"x_max":619,"o":"m 271 -17 q 128 40 181 -17 q 76 218 76 96 l 76 731 l 243 731 l 243 264 q 267 165 243 194 q 339 135 290 135 q 420 176 388 135 q 453 278 453 217 l 453 731 l 619 731 l 619 0 l 481 0 l 464 90 l 456 90 q 378 13 424 43 q 271 -17 332 -17 m 156 1004 l 294 1004 l 294 853 l 156 853 l 156 1004 m 399 1004 l 538 1004 l 538 853 l 399 853 l 399 1004 m 156 1274 l 157 1278 l 324 1278 l 443 1094 l 306 1094 l 156 1274 z "},"ǖ":{"ha":696,"x_min":76,"x_max":619,"o":"m 271 -17 q 128 40 181 -17 q 76 218 76 96 l 76 731 l 243 731 l 243 264 q 267 165 243 194 q 339 135 290 135 q 420 176 388 135 q 453 278 453 217 l 453 731 l 619 731 l 619 0 l 481 0 l 464 90 l 456 90 q 378 13 424 43 q 271 -17 332 -17 m 156 1004 l 294 1004 l 294 853 l 156 853 l 156 1004 m 399 1004 l 538 1004 l 538 853 l 399 853 l 399 1004 m 169 1226 l 524 1226 l 524 1106 l 169 1106 l 169 1226 z "},"ụ":{"ha":696,"x_min":76,"x_max":619,"o":"m 271 -17 q 128 40 181 -17 q 76 218 76 96 l 76 731 l 243 731 l 243 264 q 267 165 243 194 q 339 135 290 135 q 420 176 388 135 q 453 278 453 217 l 453 731 l 619 731 l 619 0 l 481 0 l 464 90 l 456 90 q 378 13 424 43 q 271 -17 332 -17 m 267 -93 l 429 -93 l 429 -253 l 267 -253 l 267 -93 z "},"ù":{"ha":696,"x_min":76,"x_max":619,"o":"m 271 -17 q 128 40 181 -17 q 76 218 76 96 l 76 731 l 243 731 l 243 264 q 267 165 243 194 q 339 135 290 135 q 420 176 388 135 q 453 278 453 217 l 453 731 l 619 731 l 619 0 l 481 0 l 464 90 l 456 90 q 378 13 424 43 q 271 -17 332 -17 m 156 1000 l 157 1004 l 324 1004 l 443 821 l 306 821 l 156 1000 z "},"ủ":{"ha":696,"x_min":76,"x_max":619,"o":"m 271 -17 q 128 40 181 -17 q 76 218 76 96 l 76 731 l 243 731 l 243 264 q 267 165 243 194 q 339 135 290 135 q 420 176 388 135 q 453 278 453 217 l 453 731 l 619 731 l 619 0 l 481 0 l 464 90 l 456 90 q 378 13 424 43 q 271 -17 332 -17 m 301 885 l 321 885 q 354 891 344 885 q 364 911 364 897 q 352 932 364 926 q 317 938 340 938 l 250 938 l 250 996 q 346 1007 294 1007 q 441 988 400 1007 q 482 922 482 969 q 456 865 482 885 q 390 843 431 846 l 390 814 l 301 814 l 301 885 z "},"ư":{"ha":696,"x_min":76,"x_max":758,"o":"m 758 889 l 758 804 q 722 701 758 742 q 619 650 685 661 l 619 0 l 481 0 l 464 90 l 456 90 q 378 13 424 43 q 271 -17 332 -17 q 128 40 181 -17 q 76 218 76 96 l 76 731 l 243 731 l 243 264 q 267 165 243 194 q 339 135 290 135 q 420 176 388 135 q 453 278 453 217 l 453 731 l 550 731 q 619 748 599 731 q 640 804 640 765 l 640 889 l 758 889 z "},"ứ":{"ha":696,"x_min":76,"x_max":758,"o":"m 758 889 l 758 804 q 722 701 758 742 q 619 650 685 661 l 619 0 l 481 0 l 464 90 l 456 90 q 378 13 424 43 q 271 -17 332 -17 q 128 40 181 -17 q 76 218 76 96 l 76 731 l 243 731 l 243 264 q 267 165 243 194 q 339 135 290 135 q 420 176 388 135 q 453 278 453 217 l 453 731 l 550 731 q 619 748 599 731 q 640 804 640 765 l 640 889 l 758 889 m 371 1004 l 538 1004 l 539 1000 l 389 821 l 251 821 l 371 1004 z "},"ự":{"ha":696,"x_min":76,"x_max":758,"o":"m 758 889 l 758 804 q 722 701 758 742 q 619 650 685 661 l 619 0 l 481 0 l 464 90 l 456 90 q 378 13 424 43 q 271 -17 332 -17 q 128 40 181 -17 q 76 218 76 96 l 76 731 l 243 731 l 243 264 q 267 165 243 194 q 339 135 290 135 q 420 176 388 135 q 453 278 453 217 l 453 731 l 550 731 q 619 748 599 731 q 640 804 640 765 l 640 889 l 758 889 m 267 -93 l 429 -93 l 429 -253 l 267 -253 l 267 -93 z "},"ừ":{"ha":696,"x_min":76,"x_max":758,"o":"m 758 889 l 758 804 q 722 701 758 742 q 619 650 685 661 l 619 0 l 481 0 l 464 90 l 456 90 q 378 13 424 43 q 271 -17 332 -17 q 128 40 181 -17 q 76 218 76 96 l 76 731 l 243 731 l 243 264 q 267 165 243 194 q 339 135 290 135 q 420 176 388 135 q 453 278 453 217 l 453 731 l 550 731 q 619 748 599 731 q 640 804 640 765 l 640 889 l 758 889 m 156 1000 l 157 1004 l 324 1004 l 443 821 l 306 821 l 156 1000 z "},"ử":{"ha":696,"x_min":76,"x_max":758,"o":"m 758 889 l 758 804 q 722 701 758 742 q 619 650 685 661 l 619 0 l 481 0 l 464 90 l 456 90 q 378 13 424 43 q 271 -17 332 -17 q 128 40 181 -17 q 76 218 76 96 l 76 731 l 243 731 l 243 264 q 267 165 243 194 q 339 135 290 135 q 420 176 388 135 q 453 278 453 217 l 453 731 l 550 731 q 619 748 599 731 q 640 804 640 765 l 640 889 l 758 889 m 301 885 l 321 885 q 354 891 344 885 q 364 911 364 897 q 352 932 364 926 q 317 938 340 938 l 250 938 l 250 996 q 346 1007 294 1007 q 441 988 400 1007 q 482 922 482 969 q 456 865 482 885 q 390 843 431 846 l 390 814 l 301 814 l 301 885 z "},"ữ":{"ha":696,"x_min":76,"x_max":758,"o":"m 758 889 l 758 804 q 722 701 758 742 q 619 650 685 661 l 619 0 l 481 0 l 464 90 l 456 90 q 378 13 424 43 q 271 -17 332 -17 q 128 40 181 -17 q 76 218 76 96 l 76 731 l 243 731 l 243 264 q 267 165 243 194 q 339 135 290 135 q 420 176 388 135 q 453 278 453 217 l 453 731 l 550 731 q 619 748 599 731 q 640 804 640 765 l 640 889 l 758 889 m 114 835 q 149 953 114 901 q 250 1004 183 1004 q 292 998 272 1004 q 346 978 311 992 q 394 959 375 965 q 435 953 414 953 q 472 965 458 953 q 489 1004 485 976 l 581 1004 q 546 886 581 938 q 443 835 511 835 q 402 841 421 835 q 349 861 383 847 q 300 880 319 874 q 260 886 281 886 q 206 835 213 886 l 114 835 z "},"ű":{"ha":696,"x_min":76,"x_max":619,"o":"m 271 -17 q 128 40 181 -17 q 76 218 76 96 l 76 731 l 243 731 l 243 264 q 267 165 243 194 q 339 135 290 135 q 420 176 388 135 q 453 278 453 217 l 453 731 l 619 731 l 619 0 l 481 0 l 464 90 l 456 90 q 378 13 424 43 q 271 -17 332 -17 m 276 1004 l 415 1004 l 417 1000 l 300 821 l 190 821 l 276 1004 m 471 1004 l 610 1004 l 611 1000 l 494 821 l 385 821 l 471 1004 z "},"ȗ":{"ha":696,"x_min":76,"x_max":619,"o":"m 271 -17 q 128 40 181 -17 q 76 218 76 96 l 76 731 l 243 731 l 243 264 q 267 165 243 194 q 339 135 290 135 q 420 176 388 135 q 453 278 453 217 l 453 731 l 619 731 l 619 0 l 481 0 l 464 90 l 456 90 q 378 13 424 43 q 271 -17 332 -17 m 161 828 q 184 898 161 864 q 249 954 207 932 q 346 976 292 976 q 444 954 401 976 q 509 898 486 932 q 532 828 532 864 l 429 828 q 403 859 426 844 q 346 874 379 874 q 291 859 314 874 q 264 828 268 844 l 161 828 z "},"ū":{"ha":696,"x_min":76,"x_max":619,"o":"m 271 -17 q 128 40 181 -17 q 76 218 76 96 l 76 731 l 243 731 l 243 264 q 267 165 243 194 q 339 135 290 135 q 420 176 388 135 q 453 278 453 217 l 453 731 l 619 731 l 619 0 l 481 0 l 464 90 l 456 90 q 378 13 424 43 q 271 -17 332 -17 m 169 953 l 524 953 l 524 832 l 169 832 l 169 953 z "},"ų":{"ha":696,"x_min":76,"x_max":671,"o":"m 671 -168 l 671 -244 q 579 -264 621 -264 q 482 -234 522 -264 q 442 -139 442 -204 q 459 -67 442 -104 q 503 0 476 -29 l 481 0 l 464 90 l 456 90 q 378 13 424 43 q 271 -17 332 -17 q 128 40 181 -17 q 76 218 76 96 l 76 731 l 243 731 l 243 264 q 267 165 243 194 q 339 135 290 135 q 420 176 388 135 q 453 278 453 217 l 453 731 l 619 731 l 619 0 q 589 -42 601 -15 q 576 -97 576 -69 q 592 -148 576 -128 q 640 -168 608 -168 l 671 -168 z "},"ů":{"ha":696,"x_min":76,"x_max":619,"o":"m 271 -17 q 128 40 181 -17 q 76 218 76 96 l 76 731 l 243 731 l 243 264 q 267 165 243 194 q 339 135 290 135 q 420 176 388 135 q 453 278 453 217 l 453 731 l 619 731 l 619 0 l 481 0 l 464 90 l 456 90 q 378 13 424 43 q 271 -17 332 -17 m 347 779 q 253 818 293 779 q 214 913 214 857 q 253 1007 214 968 q 347 1046 292 1046 q 442 1006 403 1046 q 481 913 481 967 q 442 818 481 857 q 347 779 403 779 m 347 849 q 392 867 374 849 q 411 913 411 886 q 392 958 411 939 q 347 976 374 976 q 301 958 319 976 q 283 913 283 940 q 301 867 283 886 q 347 849 319 849 z "},"ũ":{"ha":696,"x_min":76,"x_max":619,"o":"m 271 -17 q 128 40 181 -17 q 76 218 76 96 l 76 731 l 243 731 l 243 264 q 267 165 243 194 q 339 135 290 135 q 420 176 388 135 q 453 278 453 217 l 453 731 l 619 731 l 619 0 l 481 0 l 464 90 l 456 90 q 378 13 424 43 q 271 -17 332 -17 m 114 835 q 149 953 114 901 q 250 1004 183 1004 q 292 998 272 1004 q 346 978 311 992 q 394 959 375 965 q 435 953 414 953 q 472 965 458 953 q 489 1004 485 976 l 581 1004 q 546 886 581 938 q 443 835 511 835 q 402 841 421 835 q 349 861 383 847 q 300 880 319 874 q 260 886 281 886 q 206 835 213 886 l 114 835 z "},"v":{"ha":633,"x_min":6,"x_max":628,"o":"m 6 731 l 181 731 l 275 417 q 321 197 290 364 l 326 197 q 368 417 350 356 l 461 731 l 628 731 l 401 0 l 232 0 l 6 731 z "},"w":{"ha":886,"x_min":1,"x_max":885,"o":"m 1 731 l 168 731 l 238 431 q 267 201 258 338 l 272 201 q 303 429 283 331 l 365 731 l 532 731 l 594 428 q 625 201 608 361 l 631 201 q 667 428 651 350 l 731 731 l 885 731 l 708 0 l 540 0 l 468 349 q 447 529 454 418 l 439 529 q 418 350 432 421 l 347 0 l 179 0 l 1 731 z "},"ẃ":{"ha":886,"x_min":1,"x_max":885,"o":"m 1 731 l 168 731 l 238 431 q 267 201 258 338 l 272 201 q 303 429 283 331 l 365 731 l 532 731 l 594 428 q 625 201 608 361 l 631 201 q 667 428 651 350 l 731 731 l 885 731 l 708 0 l 540 0 l 468 349 q 447 529 454 418 l 439 529 q 418 350 432 421 l 347 0 l 179 0 l 1 731 m 467 1004 l 633 1004 l 635 1000 l 485 821 l 347 821 l 467 1004 z "},"ŵ":{"ha":886,"x_min":1,"x_max":885,"o":"m 1 731 l 168 731 l 238 431 q 267 201 258 338 l 272 201 q 303 429 283 331 l 365 731 l 532 731 l 594 428 q 625 201 608 361 l 631 201 q 667 428 651 350 l 731 731 l 885 731 l 708 0 l 540 0 l 468 349 q 447 529 454 418 l 439 529 q 418 350 432 421 l 347 0 l 179 0 l 1 731 m 375 1004 l 511 1004 l 629 817 l 504 817 l 443 913 l 381 817 l 256 817 l 375 1004 z "},"ẅ":{"ha":886,"x_min":1,"x_max":885,"o":"m 1 731 l 168 731 l 238 431 q 267 201 258 338 l 272 201 q 303 429 283 331 l 365 731 l 532 731 l 594 428 q 625 201 608 361 l 631 201 q 667 428 651 350 l 731 731 l 885 731 l 708 0 l 540 0 l 468 349 q 447 529 454 418 l 439 529 q 418 350 432 421 l 347 0 l 179 0 l 1 731 m 251 1004 l 390 1004 l 390 853 l 251 853 l 251 1004 m 494 1004 l 633 1004 l 633 853 l 494 853 l 494 1004 z "},"ẁ":{"ha":886,"x_min":1,"x_max":885,"o":"m 1 731 l 168 731 l 238 431 q 267 201 258 338 l 272 201 q 303 429 283 331 l 365 731 l 532 731 l 594 428 q 625 201 608 361 l 631 201 q 667 428 651 350 l 731 731 l 885 731 l 708 0 l 540 0 l 468 349 q 447 529 454 418 l 439 529 q 418 350 432 421 l 347 0 l 179 0 l 1 731 m 251 1000 l 253 1004 l 419 1004 l 539 821 l 401 821 l 251 1000 z "},"x":{"ha":633,"x_min":7,"x_max":626,"o":"m 218 378 l 24 731 l 213 731 l 321 518 l 328 518 l 436 731 l 615 731 l 418 382 l 626 0 l 439 0 l 315 242 l 308 242 l 185 0 l 7 0 l 218 378 z "},"y":{"ha":633,"x_min":6,"x_max":628,"o":"m 169 -253 q 94 -248 126 -253 q 61 -240 61 -243 l 61 -112 l 136 -112 q 204 -85 174 -112 q 249 0 235 -57 l 6 731 l 182 731 l 292 388 q 331 197 308 335 l 336 197 q 371 386 356 326 l 461 731 l 628 731 l 428 38 q 328 -175 389 -97 q 169 -253 267 -253 z "},"ý":{"ha":633,"x_min":6,"x_max":628,"o":"m 169 -253 q 94 -248 126 -253 q 61 -240 61 -243 l 61 -112 l 136 -112 q 204 -85 174 -112 q 249 0 235 -57 l 6 731 l 182 731 l 292 388 q 331 197 308 335 l 336 197 q 371 386 356 326 l 461 731 l 628 731 l 428 38 q 328 -175 389 -97 q 169 -253 267 -253 m 340 1004 l 507 1004 l 508 1000 l 358 821 l 221 821 l 340 1004 z "},"ŷ":{"ha":633,"x_min":6,"x_max":628,"o":"m 169 -253 q 94 -248 126 -253 q 61 -240 61 -243 l 61 -112 l 136 -112 q 204 -85 174 -112 q 249 0 235 -57 l 6 731 l 182 731 l 292 388 q 331 197 308 335 l 336 197 q 371 386 356 326 l 461 731 l 628 731 l 428 38 q 328 -175 389 -97 q 169 -253 267 -253 m 249 1004 l 385 1004 l 503 817 l 378 817 l 317 913 l 254 817 l 129 817 l 249 1004 z "},"ÿ":{"ha":633,"x_min":6,"x_max":628,"o":"m 169 -253 q 94 -248 126 -253 q 61 -240 61 -243 l 61 -112 l 136 -112 q 204 -85 174 -112 q 249 0 235 -57 l 6 731 l 182 731 l 292 388 q 331 197 308 335 l 336 197 q 371 386 356 326 l 461 731 l 628 731 l 428 38 q 328 -175 389 -97 q 169 -253 267 -253 m 125 1004 l 264 1004 l 264 853 l 125 853 l 125 1004 m 368 1004 l 507 1004 l 507 853 l 368 853 l 368 1004 z "},"ỵ":{"ha":633,"x_min":6,"x_max":628,"o":"m 169 -253 q 94 -248 126 -253 q 61 -240 61 -243 l 61 -112 l 136 -112 q 204 -85 174 -112 q 249 0 235 -57 l 6 731 l 182 731 l 292 388 q 331 197 308 335 l 336 197 q 371 386 356 326 l 461 731 l 628 731 l 428 38 q 328 -175 389 -97 q 169 -253 267 -253 m 446 -93 l 608 -93 l 608 -253 l 446 -253 l 446 -93 z "},"ỳ":{"ha":633,"x_min":6,"x_max":628,"o":"m 169 -253 q 94 -248 126 -253 q 61 -240 61 -243 l 61 -112 l 136 -112 q 204 -85 174 -112 q 249 0 235 -57 l 6 731 l 182 731 l 292 388 q 331 197 308 335 l 336 197 q 371 386 356 326 l 461 731 l 628 731 l 428 38 q 328 -175 389 -97 q 169 -253 267 -253 m 125 1000 l 126 1004 l 293 1004 l 413 821 l 275 821 l 125 1000 z "},"ỷ":{"ha":633,"x_min":6,"x_max":628,"o":"m 169 -253 q 94 -248 126 -253 q 61 -240 61 -243 l 61 -112 l 136 -112 q 204 -85 174 -112 q 249 0 235 -57 l 6 731 l 182 731 l 292 388 q 331 197 308 335 l 336 197 q 371 386 356 326 l 461 731 l 628 731 l 428 38 q 328 -175 389 -97 q 169 -253 267 -253 m 271 885 l 290 885 q 324 891 314 885 q 333 911 333 897 q 322 932 333 926 q 286 938 310 938 l 219 938 l 219 996 q 315 1007 264 1007 q 410 988 369 1007 q 451 922 451 969 q 426 865 451 885 q 360 843 400 846 l 360 814 l 271 814 l 271 885 z "},"ȳ":{"ha":633,"x_min":6,"x_max":628,"o":"m 169 -253 q 94 -248 126 -253 q 61 -240 61 -243 l 61 -112 l 136 -112 q 204 -85 174 -112 q 249 0 235 -57 l 6 731 l 182 731 l 292 388 q 331 197 308 335 l 336 197 q 371 386 356 326 l 461 731 l 628 731 l 428 38 q 328 -175 389 -97 q 169 -253 267 -253 m 144 954 l 499 954 l 499 833 l 144 833 l 144 954 z "},"ỹ":{"ha":633,"x_min":6,"x_max":628,"o":"m 169 -253 q 94 -248 126 -253 q 61 -240 61 -243 l 61 -112 l 136 -112 q 204 -85 174 -112 q 249 0 235 -57 l 6 731 l 182 731 l 292 388 q 331 197 308 335 l 336 197 q 371 386 356 326 l 461 731 l 628 731 l 428 38 q 328 -175 389 -97 q 169 -253 267 -253 m 83 835 q 118 953 83 901 q 219 1004 153 1004 q 261 998 242 1004 q 315 978 281 992 q 364 959 344 965 q 404 953 383 953 q 441 965 428 953 q 458 1004 454 976 l 550 1004 q 515 886 550 938 q 413 835 481 835 q 372 841 390 835 q 318 861 353 847 q 269 880 289 874 q 229 886 250 886 q 175 835 182 886 l 83 835 z "},"z":{"ha":569,"x_min":25,"x_max":544,"o":"m 25 71 l 308 590 l 42 590 l 42 731 l 535 731 l 535 661 l 250 140 l 544 140 l 544 0 l 25 0 l 25 71 z "},"ź":{"ha":569,"x_min":25,"x_max":544,"o":"m 25 71 l 308 590 l 42 590 l 42 731 l 535 731 l 535 661 l 250 140 l 544 140 l 544 0 l 25 0 l 25 71 m 308 1004 l 475 1004 l 476 1000 l 326 821 l 189 821 l 308 1004 z "},"ž":{"ha":569,"x_min":25,"x_max":544,"o":"m 25 71 l 308 590 l 42 590 l 42 731 l 535 731 l 535 661 l 250 140 l 544 140 l 544 0 l 25 0 l 25 71 m 97 1004 l 222 1004 l 285 908 l 346 1004 l 471 1004 l 353 817 l 217 817 l 97 1004 z "},"ż":{"ha":569,"x_min":25,"x_max":544,"o":"m 25 71 l 308 590 l 42 590 l 42 731 l 535 731 l 535 661 l 250 140 l 544 140 l 544 0 l 25 0 l 25 71 m 200 1004 l 368 1004 l 368 844 l 200 844 l 200 1004 z "},"ﬁ":{"ha":696,"x_min":13,"x_max":621,"o":"m 86 590 l 13 590 l 13 731 l 86 731 l 86 819 q 126 959 86 903 q 258 1015 167 1015 q 322 1010 286 1015 q 379 999 357 1006 l 379 875 l 311 875 q 268 860 283 875 q 253 815 253 844 l 253 731 l 379 731 l 379 590 l 253 590 l 253 0 l 86 0 l 86 590 m 454 731 l 621 731 l 621 0 l 454 0 l 454 731 m 453 1004 l 621 1004 l 621 844 l 453 844 l 453 1004 z "},"ﬂ":{"ha":696,"x_min":13,"x_max":621,"o":"m 86 590 l 13 590 l 13 731 l 86 731 l 86 819 q 126 959 86 903 q 258 1015 167 1015 q 322 1010 286 1015 q 379 999 357 1006 l 379 875 l 311 875 q 268 860 283 875 q 253 815 253 844 l 253 731 l 379 731 l 379 590 l 253 590 l 253 0 l 86 0 l 86 590 m 454 1004 l 621 1004 l 621 0 l 454 0 l 454 1004 z "},"ª":{"ha":421,"x_min":19,"x_max":426,"o":"m 143 504 q 58 535 97 504 q 19 643 19 567 q 82 776 19 736 q 258 815 144 815 l 258 867 q 249 908 258 893 q 213 922 239 922 q 172 909 185 922 q 160 876 160 896 l 160 863 l 44 863 q 43 882 43 868 q 88 982 43 944 q 210 1019 133 1019 q 336 982 294 1019 q 378 874 378 944 l 378 638 q 385 613 378 621 q 404 604 393 604 l 426 604 l 426 518 q 360 504 396 504 q 305 522 328 504 q 274 568 282 539 l 268 568 q 217 520 246 536 q 143 504 189 504 m 190 603 q 242 632 225 603 q 258 706 258 661 l 258 733 q 140 653 140 733 q 190 603 140 603 z "},"º":{"ha":415,"x_min":14,"x_max":408,"o":"m 211 503 q 63 566 111 503 q 14 761 14 629 q 63 956 14 893 q 211 1019 111 1019 q 360 956 311 1019 q 408 761 408 893 q 360 566 408 629 q 211 503 311 503 m 211 604 q 267 639 250 604 q 285 743 285 674 l 285 779 q 267 883 285 849 q 211 918 250 918 q 155 883 172 918 q 138 779 138 849 l 138 743 q 155 639 138 674 q 211 604 172 604 z "},"ⁿ":{"ha":451,"x_min":43,"x_max":408,"o":"m 43 1008 l 143 1008 l 154 949 l 160 949 q 278 1019 204 1019 q 408 861 408 1019 l 408 517 l 289 517 l 289 831 q 274 893 289 874 q 232 913 260 913 q 182 886 201 913 q 163 819 163 860 l 163 517 l 43 517 l 43 1008 z "},"μ":{"ha":696,"x_min":76,"x_max":619,"o":"m 76 731 l 243 731 l 243 264 q 267 165 243 194 q 339 135 290 135 q 420 176 388 135 q 453 278 453 217 l 453 731 l 619 731 l 619 0 l 481 0 l 464 90 l 456 90 q 390 13 429 43 q 299 -17 350 -17 q 243 -6 269 -17 l 243 -240 l 76 -240 l 76 731 z "},"π":{"ha":872,"x_min":28,"x_max":807,"o":"m 106 0 q 165 280 139 100 q 194 590 192 460 q 101 586 132 590 q 44 572 69 582 l 28 689 q 250 731 85 731 l 807 731 l 796 590 l 681 590 l 681 217 q 699 0 681 68 l 535 0 q 514 204 514 38 l 514 590 l 361 590 q 327 261 353 443 q 271 0 301 79 l 106 0 z "},"ₙ":{"ha":451,"x_min":43,"x_max":408,"o":"m 43 342 l 143 342 l 154 282 l 160 282 q 278 353 204 353 q 408 194 408 353 l 408 -150 l 289 -150 l 289 164 q 274 226 289 207 q 232 246 260 246 q 182 219 201 246 q 163 153 163 193 l 163 -150 l 43 -150 l 43 342 z "},"₀":{"ha":379,"x_min":26,"x_max":353,"o":"m 190 -239 q 67 -183 108 -239 q 26 17 26 -126 q 67 218 26 161 q 190 275 108 275 q 313 218 272 275 q 353 17 353 161 q 313 -183 353 -126 q 190 -239 272 -239 m 190 -144 q 233 -116 222 -144 q 244 -15 244 -87 l 244 51 q 233 149 244 117 q 190 181 221 181 q 147 149 158 181 q 135 51 135 117 l 135 -15 q 147 -116 135 -87 q 190 -144 158 -144 z "},"₁":{"ha":379,"x_min":28,"x_max":326,"o":"m 28 -136 l 131 -136 l 131 135 l 28 135 l 28 203 q 103 223 60 207 q 175 258 146 239 l 236 258 l 236 -136 l 326 -136 l 326 -232 l 28 -232 l 28 -136 z "},"₂":{"ha":379,"x_min":33,"x_max":344,"o":"m 33 -210 q 63 -112 33 -157 q 147 -8 92 -68 q 212 67 190 36 q 233 128 233 97 q 224 172 233 157 q 189 186 214 186 q 153 168 165 186 q 140 122 140 150 l 140 88 l 39 88 q 35 121 35 106 q 76 233 35 190 q 188 275 118 275 q 297 238 256 275 q 338 138 338 200 q 309 36 338 81 q 231 -60 281 -8 q 190 -107 203 -90 q 171 -140 176 -124 l 344 -140 l 344 -231 l 33 -231 l 33 -210 z "},"₃":{"ha":379,"x_min":31,"x_max":356,"o":"m 196 -239 q 73 -200 115 -239 q 31 -89 31 -161 l 31 -74 l 135 -74 l 135 -92 q 150 -135 135 -118 q 190 -151 165 -151 q 235 -133 218 -151 q 253 -86 253 -115 q 235 -39 253 -57 q 189 -21 218 -21 l 147 -21 l 147 69 l 190 69 q 229 88 214 69 q 244 138 244 107 q 230 176 244 164 q 194 189 215 189 q 158 174 172 189 q 143 135 143 158 l 143 107 l 40 107 l 40 142 q 83 238 40 201 q 193 275 125 275 q 306 242 265 275 q 347 143 347 208 q 279 29 347 71 q 335 -19 315 13 q 356 -93 356 -50 q 312 -199 356 -158 q 196 -239 268 -239 z "},"₄":{"ha":379,"x_min":14,"x_max":354,"o":"m 211 -121 l 14 -121 l 14 -53 q 135 275 96 78 l 243 275 q 188 104 224 190 q 115 -37 153 18 l 211 -37 l 211 61 q 263 194 236 107 l 317 194 l 317 -37 l 354 -37 l 354 -121 l 317 -121 l 317 -232 l 211 -232 l 211 -121 z "},"₅":{"ha":379,"x_min":33,"x_max":351,"o":"m 193 -239 q 76 -194 119 -239 q 33 -74 33 -150 l 135 -74 q 151 -133 135 -111 q 193 -156 168 -156 q 237 -133 221 -156 q 253 -65 253 -110 q 235 -3 253 -24 q 188 17 218 17 q 163 10 174 17 q 138 -12 151 3 l 47 0 l 65 258 l 325 258 l 325 172 l 154 172 l 147 79 q 178 94 164 89 q 213 100 193 100 q 312 58 272 100 q 351 -65 351 15 q 309 -193 351 -147 q 193 -239 267 -239 z "},"₆":{"ha":379,"x_min":39,"x_max":358,"o":"m 210 -239 q 81 -180 122 -239 q 39 4 39 -121 q 55 163 39 104 q 108 249 71 222 q 206 275 144 275 q 343 114 343 275 l 244 114 q 197 188 244 188 q 156 153 168 188 q 143 50 144 119 q 226 85 171 85 q 325 40 292 85 q 358 -79 358 -6 q 317 -195 358 -151 q 210 -239 276 -239 m 204 -146 q 244 -126 229 -146 q 258 -75 258 -107 q 243 -21 258 -42 q 201 0 228 0 q 160 -19 175 0 q 146 -71 146 -39 q 161 -125 146 -104 q 204 -146 176 -146 z "},"₇":{"ha":379,"x_min":49,"x_max":344,"o":"m 99 -239 q 138 -15 99 -125 q 240 172 178 94 l 49 172 l 49 258 l 344 258 l 344 196 q 251 8 289 113 q 214 -201 214 -97 q 215 -239 214 -222 l 99 -239 z "},"₈":{"ha":379,"x_min":35,"x_max":349,"o":"m 192 -239 q 74 -199 113 -239 q 35 -97 35 -160 q 104 25 35 -11 q 60 72 75 42 q 44 138 44 101 q 83 236 44 197 q 192 275 121 275 q 299 236 261 275 q 338 138 338 197 q 322 72 338 101 q 276 25 306 43 q 331 -26 314 6 q 349 -97 349 -58 q 309 -199 349 -160 q 192 -239 269 -239 m 193 63 q 226 81 214 63 q 238 133 238 99 q 226 182 238 165 q 193 199 214 199 q 159 182 171 199 q 147 133 147 165 q 159 81 147 99 q 193 63 171 63 m 193 -157 q 246 -86 246 -157 q 193 -11 246 -11 q 153 -31 167 -11 q 139 -86 139 -50 q 153 -139 139 -121 q 193 -157 167 -157 z "},"₉":{"ha":379,"x_min":33,"x_max":347,"o":"m 190 -236 q 81 -192 117 -236 q 46 -75 46 -149 l 149 -75 q 159 -131 149 -112 q 193 -150 169 -150 q 235 -115 224 -150 q 247 -10 246 -81 q 167 -43 218 -43 q 67 1 101 -43 q 33 117 33 44 q 75 233 33 190 q 183 276 117 276 q 306 222 264 276 q 347 35 347 167 q 308 -175 347 -114 q 190 -236 268 -236 m 186 42 q 224 60 211 42 q 238 113 238 79 q 224 170 238 149 q 186 192 211 192 q 149 170 163 192 q 136 113 136 149 q 149 60 136 79 q 186 42 161 42 z "},"⁰":{"ha":379,"x_min":26,"x_max":353,"o":"m 190 594 q 67 651 108 594 q 26 850 26 707 q 67 1051 26 994 q 190 1108 108 1108 q 313 1051 272 1108 q 353 850 353 994 q 313 651 353 707 q 190 594 272 594 m 190 689 q 233 717 222 689 q 244 818 244 746 l 244 885 q 233 982 244 950 q 190 1014 221 1014 q 147 982 158 1014 q 135 885 135 950 l 135 818 q 147 717 135 746 q 190 689 158 689 z "},"¹":{"ha":379,"x_min":28,"x_max":326,"o":"m 28 697 l 131 697 l 131 968 l 28 968 l 28 1036 q 103 1056 60 1040 q 175 1092 146 1072 l 236 1092 l 236 697 l 326 697 l 326 601 l 28 601 l 28 697 z "},"²":{"ha":379,"x_min":33,"x_max":344,"o":"m 33 624 q 63 721 33 676 q 147 825 92 765 q 212 900 190 869 q 233 961 233 931 q 224 1005 233 990 q 189 1019 214 1019 q 153 1001 165 1019 q 140 956 140 983 l 140 921 l 39 921 q 35 954 35 939 q 76 1066 35 1024 q 188 1108 118 1108 q 297 1071 256 1108 q 338 971 338 1033 q 309 869 338 914 q 231 774 281 825 q 190 726 203 743 q 171 693 176 710 l 344 693 l 344 603 l 33 603 l 33 624 z "},"³":{"ha":379,"x_min":31,"x_max":356,"o":"m 196 594 q 73 633 115 594 q 31 744 31 672 l 31 760 l 135 760 l 135 742 q 150 699 135 715 q 190 682 165 682 q 235 700 218 682 q 253 747 253 718 q 235 794 253 776 q 189 813 218 813 l 147 813 l 147 903 l 190 903 q 229 922 214 903 q 244 971 244 940 q 230 1010 244 997 q 194 1022 215 1022 q 158 1007 172 1022 q 143 968 143 992 l 143 940 l 40 940 l 40 975 q 83 1072 40 1035 q 193 1108 125 1108 q 306 1075 265 1108 q 347 976 347 1042 q 279 863 347 904 q 335 815 315 846 q 356 740 356 783 q 312 635 356 675 q 196 594 268 594 z "},"⁴":{"ha":379,"x_min":14,"x_max":354,"o":"m 211 713 l 14 713 l 14 781 q 135 1108 96 911 l 243 1108 q 188 938 224 1024 q 115 796 153 851 l 211 796 l 211 894 q 263 1028 236 940 l 317 1028 l 317 796 l 354 796 l 354 713 l 317 713 l 317 601 l 211 601 l 211 713 z "},"⁵":{"ha":379,"x_min":33,"x_max":351,"o":"m 193 594 q 76 639 119 594 q 33 760 33 683 l 135 760 q 151 700 135 722 q 193 678 168 678 q 237 701 221 678 q 253 768 253 724 q 235 830 253 810 q 188 850 218 850 q 163 843 174 850 q 138 821 151 836 l 47 833 l 65 1092 l 325 1092 l 325 1006 l 154 1006 l 147 913 q 178 928 164 922 q 213 933 193 933 q 312 891 272 933 q 351 768 351 849 q 309 640 351 686 q 193 594 267 594 z "},"⁶":{"ha":379,"x_min":39,"x_max":358,"o":"m 210 594 q 81 653 122 594 q 39 838 39 713 q 55 997 39 938 q 108 1082 71 1056 q 206 1108 144 1108 q 343 947 343 1108 l 244 947 q 197 1021 244 1021 q 156 987 168 1021 q 143 883 144 953 q 226 918 171 918 q 325 873 292 918 q 358 754 358 828 q 317 638 358 682 q 210 594 276 594 m 204 688 q 244 707 229 688 q 258 758 258 726 q 243 813 258 792 q 201 833 228 833 q 160 814 175 833 q 146 763 146 794 q 161 708 146 729 q 204 688 176 688 z "},"⁷":{"ha":379,"x_min":49,"x_max":344,"o":"m 99 594 q 138 818 99 708 q 240 1006 178 928 l 49 1006 l 49 1092 l 344 1092 l 344 1029 q 251 841 289 946 q 214 632 214 736 q 215 594 214 611 l 99 594 z "},"⁸":{"ha":379,"x_min":35,"x_max":349,"o":"m 192 594 q 74 634 113 594 q 35 736 35 674 q 104 858 35 822 q 60 905 75 875 q 44 971 44 935 q 83 1069 44 1031 q 192 1108 121 1108 q 299 1069 261 1108 q 338 971 338 1031 q 322 906 338 935 q 276 858 306 876 q 331 807 314 839 q 349 736 349 775 q 309 634 349 674 q 192 594 269 594 m 193 896 q 226 914 214 896 q 238 967 238 932 q 226 1015 238 999 q 193 1032 214 1032 q 159 1015 171 1032 q 147 967 147 999 q 159 914 147 932 q 193 896 171 896 m 193 676 q 246 747 246 676 q 193 822 246 822 q 153 803 167 822 q 139 747 139 783 q 153 694 139 713 q 193 676 167 676 z "},"⁹":{"ha":379,"x_min":33,"x_max":347,"o":"m 190 597 q 81 641 117 597 q 46 758 46 685 l 149 758 q 159 702 149 721 q 193 683 169 683 q 235 718 224 683 q 247 824 246 753 q 167 790 218 790 q 67 834 101 790 q 33 950 33 878 q 75 1067 33 1024 q 183 1110 117 1110 q 306 1055 264 1110 q 347 868 347 1000 q 308 658 347 719 q 190 597 268 597 m 186 875 q 224 894 211 875 q 238 946 238 913 q 224 1003 238 982 q 186 1025 211 1025 q 149 1003 163 1025 q 136 946 136 982 q 149 894 136 913 q 186 875 161 875 z "},"⁄":{"ha":190,"x_min":-212,"x_max":429,"o":"m 338 969 l 429 969 l -119 -17 l -212 -17 l 338 969 z "},"½":{"ha":949,"x_min":28,"x_max":914,"o":"m 28 558 l 131 558 l 131 829 l 28 829 l 28 897 q 103 917 60 901 q 175 953 146 933 l 236 953 l 236 558 l 326 558 l 326 463 l 28 463 l 28 558 m 717 969 l 808 969 l 260 -17 l 167 -17 l 717 969 m 603 21 q 632 118 603 74 q 717 222 661 163 q 781 297 760 267 q 803 358 803 328 q 793 402 803 388 q 758 417 783 417 q 722 399 735 417 q 710 353 710 381 l 710 318 l 608 318 q 604 351 604 336 q 646 463 604 421 q 757 506 688 506 q 866 468 825 506 q 907 368 907 431 q 878 267 907 311 q 800 171 850 222 q 759 124 772 140 q 740 90 746 107 l 914 90 l 914 0 l 603 0 l 603 21 z "},"¼":{"ha":949,"x_min":28,"x_max":924,"o":"m 28 558 l 131 558 l 131 829 l 28 829 l 28 897 q 103 917 60 901 q 175 953 146 933 l 236 953 l 236 558 l 326 558 l 326 463 l 28 463 l 28 558 m 717 969 l 808 969 l 260 -17 l 167 -17 l 717 969 m 781 111 l 583 111 l 583 179 q 704 507 665 310 l 813 507 q 758 336 793 422 q 685 194 722 250 l 781 194 l 781 293 q 832 426 806 339 l 886 426 l 886 194 l 924 194 l 924 111 l 886 111 l 886 0 l 781 0 l 781 111 z "},"¾":{"ha":949,"x_min":31,"x_max":924,"o":"m 196 456 q 73 494 115 456 q 31 606 31 533 l 31 621 l 135 621 l 135 603 q 150 560 135 576 q 190 543 165 543 q 235 561 218 543 q 253 608 253 579 q 235 656 253 638 q 189 674 218 674 l 147 674 l 147 764 l 190 764 q 229 783 214 764 q 244 832 244 801 q 230 871 244 858 q 194 883 215 883 q 158 868 172 883 q 143 829 143 853 l 143 801 l 40 801 l 40 836 q 83 933 40 896 q 193 969 125 969 q 306 936 265 969 q 347 838 347 903 q 279 724 347 765 q 335 676 315 707 q 356 601 356 644 q 312 496 356 536 q 196 456 268 456 m 717 969 l 808 969 l 260 -17 l 167 -17 l 717 969 m 781 111 l 583 111 l 583 179 q 704 507 665 310 l 813 507 q 758 336 793 422 q 685 194 722 250 l 781 194 l 781 293 q 832 426 806 339 l 886 426 l 886 194 l 924 194 l 924 111 l 886 111 l 886 0 l 781 0 l 781 111 z "}}}
